<svg fill="none" height="42" viewBox="0 0 40 42" width="40" xmlns="http://www.w3.org/2000/svg" xmlns:xlink="http://www.w3.org/1999/xlink"><linearGradient id="a" gradientUnits="userSpaceOnUse" x1=".009766" x2="26.7152" y1="8.57478" y2="22.8584"><stop offset="0" stop-color="#249361"/><stop offset="1" stop-color="#3ecf8e"/></linearGradient><linearGradient id="b" gradientUnits="userSpaceOnUse" x1="-12.9394" x2="-3.99081" y1="-5.32758" y2="16.1552"><stop offset="0"/><stop offset="1" stop-opacity="0"/></linearGradient><path d="m23.3787 40.4712c-1.0494 1.3215-3.1771.5974-3.2023-1.0899l-.3698-24.6794h16.5944c3.0057 0 4.682 3.4716 2.8131 5.8256z" fill="url(#a)"/><path d="m23.3787 40.4712c-1.0494 1.3215-3.1771.5974-3.2023-1.0899l-.3698-24.6794h16.5944c3.0057 0 4.682 3.4716 2.8131 5.8256z" fill="url(#b)" fill-opacity=".2"/><path d="m16.6308.759906c1.0494-1.321615 3.1771-.597465 3.2024 1.089894l.162 24.6793h-16.38673c-3.005779 0-4.68216-3.4716-2.813075-5.8255z" fill="#3ecf8e"/></svg>