<svg fill="none" height="30" viewBox="0 0 40 30" width="40" xmlns="http://www.w3.org/2000/svg"><path d="m34.4212 17.2344c-1.3985.0079-2.6094.3437-3.625.8438-.375-.7422-.7501-1.3907-.8125-1.875-.0703-.5625-.1562-.9063-.0703-1.5781.0859-.672.4765-1.6251.4765-1.7032-.0079-.0703-.086-.4141-.8906-.4219s-1.5.1562-1.5782.3672c-.0781.2109-.2343.6953-.3359 1.1953-.1406.7344-1.6094 3.3359-2.4453 4.7031-.2734-.5312-.5078-1-.5548-1.3751-.0702-.5624-.1562-.9062-.0702-1.578.0859-.672.4766-1.625.4766-1.7031-.0079-.0703-.086-.4141-.8906-.4219-.8048-.0078-1.5.1563-1.5781.3672s-.1641.7109-.3359 1.1953c-.1642.4844-2.1173 4.8281-2.6251 5.9609-.2578.5782-.4843 1.0391-.6485 1.3516-.164.3125-.0078.0234-.0234.0547-.1406.2656-.2188.414-.2188.414v.0079c-.1093.1954-.2265.3828-.2813.3828-.039 0-.1172-.5235.0156-1.2421.2891-1.5079.9922-3.8594.9845-3.9453 0-.0391.1327-.4532-.4532-.6641-.5703-.2109-.7734.1406-.8203.1406s-.086.125-.086.125.6329-2.6483-1.2109-2.6483c-1.1562 0-2.75 1.2578-3.5391 2.4062-.5.2734-1.5625.8515-2.6875 1.4688-.4296.2343-.87496.4843-1.29683.7109l-.08586-.0939c-2.23438-2.3828-6.36719-4.0703-6.19531-7.2734.0625-1.1641.46875-4.23442 7.9376-7.95317 6.1172-3.04688 11.0156-2.21094 11.8671-.35157 1.2109 2.65625-2.6172 7.59374-8.9765 8.30474-2.4219.2734-3.6954-.6641-4.01563-1.0157-.33593-.3672-.38281-.3828-.50781-.3125-.20312.1094-.07812.4375 0 .6328.1875.4922.96874 1.3672 2.29684 1.8047 1.164.3828 4.0079.5938 7.4454-.7343 3.8515-1.4922 6.8593-5.63286 5.9765-9.0938-.8984-3.523436-6.7422-4.679686-12.2656-2.718749-3.28915 1.171879-6.85165 2.999999-9.41415 5.398439-3.046879 2.84375-3.531254 5.32811-3.3281293 6.35941.7110153 3.6796 5.7812493 6.0781 7.8124993 7.8515-.10156.0546-.19531.1093-.28125.1563-1.01562.4999-4.88281 2.5234-5.85156 4.664-1.093752 2.4218.17187 4.1641 1.01562 4.3985 2.60938.7265 5.28125-.5781 6.72657-2.7266 1.4374-2.1484 1.2656-4.9375.6016-6.2109l-.0236-.0469.7969-.4687c.5157-.3047 1.0235-.586 1.4688-.8283-.25.6797-.4297 1.4844-.5234 2.6563-.1094 1.3751.4531 3.1562 1.1953 3.8594.3281.3046.7188.3125.961.3125.8593 0 1.25-.711 1.6796-1.5625.5313-1.0391 1-2.2422 1-2.2422s-.5859 3.2578 1.0157 3.2578c.5859 0 1.1718-.7578 1.4375-1.1484v.0078s.0156-.0235.0468-.0782c.0328-.0484.0641-.0979.0938-.1483v-.0156c.2344-.4063.7578-1.336 1.5391-2.875 1.0077-1.9844 1.9765-4.4688 1.9765-4.4688s.0938.6094.3828 1.6094c.1718.5938.5468 1.2422.8359 1.875-.2344.3281-.375.5157-.375.5157l.0078.0078c-.1874.25-.3984.5157-.6171.7813-.7969.9531-1.75 2.0391-1.875 2.3516-.1484.3671-.1172.6405.1719.8594.2109.1562.5859.1874.9843.1562.7188-.0469 1.2188-.2265 1.4688-.336.3906-.1406.8359-.3516 1.2656-.6641.7813-.578 1.2578-1.3983 1.211-2.4921-.0235-.6015-.2188-1.1953-.461-1.7578.0703-.1015.1407-.2032.211-.3125 1.2343-1.8047 2.1875-3.789 2.1875-3.789s.0937.6093.3828 1.6093c.1483.5078.4453 1.0626.7109 1.6095-1.1562.9453-1.8828 2.039-2.1328 2.7578-.4609 1.3281-.1016 1.9297.5781 2.0703.3046.0625.7422-.0781 1.0703-.2187.4062-.1329.8984-.3595 1.3516-.6954.7812-.5781 1.5312-1.3828 1.4922-2.4687-.0235-.5-.1563-.9922-.336-1.4609.9844-.4063 2.2578-.6407 3.8751-.4454 3.4765.4063 4.164 2.5782 4.0313 3.4844-.1328.9064-.8594 1.4063-1.1017 1.5625-.2421.1485-.3203.2032-.2968.3125.0312.1642.1406.1563.3515.1251.2891-.047 1.8281-.7422 1.8906-2.414.0938-2.1487-1.9453-4.4925-5.5624-4.4691zm-26.81255 9.039c-1.14844 1.2578-2.76563 1.7344-3.45313 1.3282-.74219-.4297-.4532-2.2813.96094-3.6172.85937-.8125 1.97656-1.5625 2.71094-2.0235.16406-.1015.41406-.2499.71093-.4296.04688-.0312.07813-.0469.07813-.0469.05469-.0313.11719-.0703.17969-.1094.52343 1.9063.02343 3.5781-1.1875 4.8984zm8.39845-5.7109c-.3985.9766-1.2422 3.4844-1.75 3.3438-.4376-.1172-.7031-2.0157-.086-3.8907.3125-.9454.9765-2.0703 1.3672-2.5079.6328-.7031 1.3203-.9375 1.4922-.6484.2031.3751-.7734 3.0938-1.0234 3.7032zm6.9297 3.3125c-.1719.086-.3282.1484-.3985.1016-.0547-.0312.0703-.1484.0703-.1484s.8672-.9297 1.2109-1.3594c.1953-.2499.4297-.539.6797-.8672v.0938c.0001 1.1249-1.0781 1.8749-1.5624 2.1796zm5.3436-1.2187c-.125-.0938-.1093-.3829.3125-1.2891.1642-.3594.5391-.961 1.1875-1.5313.0782.2344.1251.4609.1172.6719-.0077 1.4063-1.0077 1.9297-1.6172 2.1485z" fill="#cf649a"/></svg>