<svg fill="none" height="40" viewBox="0 0 27 40" width="27" xmlns="http://www.w3.org/2000/svg"><path d="m13.334 19.9999c0-3.6443 2.9543-6.5988 6.5988-6.5988 3.6443 0 6.5988 2.9545 6.5988 6.5988 0 3.6445-2.9545 6.5988-6.5988 6.5988-3.6445 0-6.5988-2.9543-6.5988-6.5988z" fill="#1abcfe"/><path d="m.136719 33.1977c0-3.6444 2.954381-6.5988 6.598791-6.5988h6.59879v6.5988c0 3.6444-2.9543 6.5988-6.59879 6.5988-3.64441 0-6.598791-2.9544-6.598791-6.5988z" fill="#0acf83"/><path d="m13.334.203613v13.197587l6.5988-.0001c3.6444 0 6.5988-2.9543 6.5988-6.5987s-2.9544-6.598787-6.5988-6.598787z" fill="#ff7262"/><path d="m.136719 6.80241c0 3.64439 2.954381 6.59879 6.598791 6.59879h6.59849v-13.197587h-6.59849c-3.64441 0-6.598791 2.954377-6.598791 6.598797z" fill="#f24e1e"/><path d="m.136719 19.9999c0 3.6445 2.954381 6.599 6.598791 6.599h6.59879l-.0003-13.1977h-6.59849c-3.64441 0-6.598791 2.9544-6.598791 6.5987z" fill="#a259ff"/></svg>