<svg fill="none" height="9" viewBox="0 0 40 9" width="40" xmlns="http://www.w3.org/2000/svg"><g fill="#fff"><path d="m26.5898.00488281h6.9674v1.28598719h-2.7639v6.76537h-1.382v-6.76537h-2.8215z"/><path d="m15.1313.00488281v1.28598719h-5.58472v2.06875h4.49122v1.28598h-4.49122v2.12467h5.58472v1.28597h-6.96666l-.00058-8.05135719z"/><path d="m18.6113.00830078h-1.8086l6.4778 8.05136922h1.8138l-3.2393-4.02292 3.2341-4.0223065-1.8086.0027949-2.331 2.8949716z"/><path d="m20.4664 5.75938-.9057-1.12608-2.7638 3.43246h1.8137z"/><path clip-rule="evenodd" d="m8.21391 8.05643-6.48649-8.05472102h-1.72742v8.05136102h1.38194v-6.33039l5.0959 6.33375z" fill-rule="evenodd"/><path d="m33.8682 8.00715c-.1013 0-.1873-.03505-.2594-.10517s-.1077-.15502-.1068-.25559c-.0009-.0978.0347-.18177.1068-.2519.0721-.07012.1581-.10518.2594-.10518.0973 0 .1825.03506.2546.10518.0731.07013.1095.1541.1105.2519-.001.06643-.0178.12732-.0515.18176-.0346.05537-.0786.09874-.1339.13011-.0544.0323-.1143.04889-.1797.04889z"/><path d="m36.2278 4.61548h.6124v2.35932c-.0009.21683-.0479.40229-.1395.55823-.0927.15593-.221.27495-.3858.35892-.1639.08303-.3558.12549-.574.12549-.1995 0-.3783-.03599-.5375-.10611-.1592-.07013-.2856-.17531-.3783-.31372-.0937-.13841-.1396-.31094-.1396-.51762h.6135c.0009.09042.0215.16884.0608.23435s.0936.11533.1629.1504c.0702.03506.1508.0526.2415.0526.0984 0 .1827-.02031.251-.06183.0683-.0406.1208-.10149.1574-.18269.0355-.08026.0543-.17992.0552-.29802z"/><path d="m39.3596 5.53797c-.0149-.14302-.0805-.25466-.1947-.33401-.1152-.08028-.2641-.11995-.4467-.11995-.1282 0-.2387.01938-.3305.05721-.0917.03875-.1629.09041-.2116.15592-.0487.06552-.073.14026-.075.22423 0 .07012.0169.13101.0497.18176.0328.05167.0767.09504.1339.13011.0561.03598.1189.0655.1873.08949.0692.02399.1386.04429.2078.0609l.3193.07843c.1283.02952.2529.06921.3718.11995.1189.04983.2266.11349.3211.19007.0946.07659.1695.16885.2248.27681.0552.10795.0833.23436.0833.38014 0 .19653-.0505.36908-.1527.51855-.102.14855-.249.26481-.4419.34878-.192.08305-.4242.12548-.6976.12548-.264 0-.4944-.04058-.6882-.12178-.1947-.08028-.3465-.19839-.456-.3534-.1096-.15501-.1686-.34417-.177-.56653h.6068c.0084.11625.0459.21315.1096.29157.0645.07751.1488.13471.2518.17347.104.03782.22.0572.3484.0572.1339 0 .2518-.0203.3539-.05998.1011-.03967.1807-.09502.2378-.16699.0581-.07106.0872-.15502.0881-.25098-.0009-.08765-.0272-.16055-.0778-.21776-.0515-.0572-.1226-.10518-.2135-.14393-.0917-.03875-.1985-.07382-.3202-.10427l-.3876-.0978c-.28-.07105-.502-.179-.664-.32386-.1628-.14486-.2434-.33678-.2434-.5776 0-.19746.0543-.37092.1639-.51948.1086-.14855.2575-.26388.4457-.34601.1891-.08303.4026-.12364.6404-.12364.2416 0 .4532.04061.6359.12364.1825.08213.3258.19654.4297.34232.104.14578.1583.31279.1611.50194z"/></g></svg>