<svg width="988" height="521" fill="none" xmlns="http://www.w3.org/2000/svg"><g opacity=".1"><mask id="prefix__a" maskUnits="userSpaceOnUse" x="0" y="0" width="988" height="521" fill="#000"><path fill="#fff" d="M0 0h988v521H0z"/><path d="M85.27 141.673H24.421v-35.231h60.847c8.336 0 14.934-.695 19.797-2.084 4.862-1.39 8.335-4.517 10.419-9.381 2.084-5.004 3.126-12.717 3.126-23.14 0-10.563-1.042-18.276-3.126-23.14-2.084-4.864-5.557-7.992-10.419-9.381-4.863-1.39-11.461-2.085-19.797-2.085H24.421V2H85.27c15.421 0 28.757 2.78 40.01 8.339 11.253 5.42 19.935 13.342 26.048 23.765 6.112 10.423 9.169 23.001 9.169 37.733 0 14.731-3.057 27.309-9.169 37.732-6.113 10.424-14.795 18.415-26.048 23.974-11.253 5.42-24.589 8.13-40.01 8.13zm-31.466 0H14.627V2h39.176v139.673zM210.037 141.673h-39.176V36.606h39.176v105.067zm0-114.657h-39.176V2h39.176v25.016zM284.648 179.198c-12.225 0-22.644-1.668-31.257-5.004-8.614-3.335-15.212-8.199-19.797-14.592-4.584-6.393-6.877-14.176-6.877-23.349h39.176c0 2.78.348 4.934 1.042 6.463.834 1.667 2.709 2.779 5.627 3.335 3.056.556 7.988.834 14.795.834 5.696 0 10.002-.486 12.92-1.459 3.056-.834 5.14-2.71 6.251-5.629 1.112-2.918 1.667-7.296 1.667-13.133V62.456h2.501v-25.85h36.675v87.348c0 12.508-2.431 22.792-7.293 30.853-4.862 8.2-11.947 14.315-21.255 18.345-9.308 4.03-20.7 6.046-34.175 6.046zm-15.42-49.199c-10.42 0-19.241-1.876-26.465-5.628-7.224-3.892-12.781-9.381-16.671-16.469-3.751-7.227-5.626-15.844-5.626-25.85 0-9.868 1.945-18.346 5.835-25.434 4.028-7.087 9.794-12.508 17.296-16.26 7.501-3.891 16.392-5.837 26.673-5.837 10.697 0 19.379 2.224 26.047 6.67 6.808 4.31 10.906 10.98 12.295 20.014h6.46l-2.917 20.638h-3.96c0-3.752-.903-6.601-2.709-8.547-1.667-1.946-4.306-3.266-7.918-3.96-3.612-.696-8.336-1.043-14.17-1.043-6.113 0-10.906.486-14.379 1.459-3.334.834-5.696 2.224-7.085 4.17-1.25 1.945-1.875 4.655-1.875 8.13 0 3.474.625 6.254 1.875 8.338 1.389 2.085 3.751 3.614 7.085 4.587 3.473.972 8.266 1.459 14.379 1.459 8.752 0 15.073-.765 18.963-2.293 3.889-1.668 5.834-5.281 5.834-10.84h3.96v21.263h-6.044c-1.389 7.644-5.001 13.828-10.836 18.554-5.834 4.586-14.517 6.879-26.047 6.879zM399.088 141.673h-39.176V36.606h39.176v105.067zm0-114.657h-39.176V2h39.176v25.016zM490.161 141.673h-27.507c-13.058 0-23.339-3.266-30.84-9.798-7.363-6.532-11.045-16.608-11.045-30.227V18.469h39.176v77.55c0 4.169.764 6.949 2.293 8.339 1.667 1.389 4.723 2.084 9.168 2.084h18.755v35.231zm0-72.963h-84.812V36.606h84.812V68.71zM611.83 141.673h-36.675v-23.348h-2.084V81.009c0-5.28-1.389-8.616-4.167-10.006-2.64-1.529-7.433-2.293-14.379-2.293-6.39 0-10.836.764-13.336 2.293-2.362 1.529-3.543 4.517-3.543 8.964v.834H498.47v-.417c0-9.312 2.431-17.372 7.293-24.182 4.863-6.95 11.739-12.3 20.63-16.052 8.891-3.753 19.241-5.629 31.049-5.629 12.226 0 22.367 1.946 30.424 5.837 8.058 3.753 14.032 9.173 17.921 16.26 4.029 6.95 6.043 15.358 6.043 25.225v59.83zm-78.352 2.085c-11.808 0-20.977-2.571-27.506-7.713-6.391-5.142-9.586-12.161-9.586-21.055 0-5.004 1.181-9.451 3.543-13.342 2.361-3.892 6.043-7.019 11.044-9.382 5.001-2.501 11.461-4.169 19.38-5.003l44.802-4.378v21.681l-34.383 3.961c-1.806.139-3.126.556-3.959 1.251-.695.695-1.042 1.598-1.042 2.71 0 1.668.764 2.779 2.292 3.335 1.667.417 4.029.626 7.085.626 6.946 0 12.433-.348 16.462-1.043 4.029-.833 6.946-2.293 8.752-4.377 1.806-2.085 2.709-5.073 2.709-8.964l2.918-.834v18.345h-2.918c-1.945 7.366-6.182 13.272-12.711 17.72-6.529 4.308-15.49 6.462-26.882 6.462zM662.619 141.673h-39.176V2h39.176v139.673zM714.308 141.673h-39.176V2h39.176v139.673zM749.951 177.113h-18.963v-35.44h30.424c3.195 0 5.626-.417 7.293-1.25 1.667-.834 2.918-2.294 3.751-4.378l2.918-7.088-3.751 17.511-53.138-109.862h44.594l18.129 41.276 7.502 24.183h2.709l6.877-24.6 15.628-40.86h43.761l-49.804 109.238c-3.751 8.199-8.196 14.592-13.336 19.179-5.001 4.586-11.114 7.713-18.338 9.381-7.224 1.807-15.976 2.71-26.256 2.71zM47.969 329.294H4l60.223-139.673h56.055l60.431 139.673h-45.011l-33.133-80.677-9.169-23.557h-2.709l-8.96 23.557-33.758 80.677zm94.606-25.85H39.634v-35.231h102.941v35.231zM232.622 331.379c-10.697 0-19.796-2.154-27.298-6.462-7.363-4.448-12.989-10.771-16.879-18.971-3.751-8.2-5.626-17.928-5.626-29.186 0-11.396 1.875-21.124 5.626-29.185 3.751-8.2 9.169-14.454 16.254-18.762 7.224-4.447 15.976-6.671 26.256-6.671 12.364 0 21.672 2.71 27.923 8.13 6.252 5.281 10.142 12.3 11.67 21.055h6.043v24.183h-3.959c0-7.366-2.154-12.161-6.46-14.385-4.168-2.223-10.628-3.335-19.38-3.335-5.973 0-10.766.625-14.378 1.876s-6.182 3.266-7.71 6.046c-1.528 2.64-2.293 6.323-2.293 11.048 0 4.587.765 8.27 2.293 11.049 1.528 2.78 4.098 4.795 7.71 6.046 3.612 1.112 8.405 1.668 14.378 1.668 5.835 0 10.628-.487 14.379-1.46 3.89-.973 6.737-2.779 8.543-5.42 1.945-2.779 2.918-6.671 2.918-11.674h3.959l2.917 23.974h-6.459c-1.668 10.423-5.766 18.136-12.295 23.14-6.39 4.864-15.768 7.296-28.132 7.296zm79.186-2.085h-36.676v-29.602l-2.5-2.71V189.621h39.176v139.673zM372.019 331.379c-10.697 0-19.796-2.154-27.298-6.462-7.363-4.448-12.989-10.771-16.879-18.971-3.751-8.2-5.626-17.928-5.626-29.186 0-11.396 1.875-21.124 5.626-29.185 3.751-8.2 9.169-14.454 16.254-18.762 7.224-4.447 15.976-6.671 26.256-6.671 12.364 0 21.672 2.71 27.923 8.13 6.252 5.281 10.142 12.3 11.67 21.055h6.043v24.183h-3.959c0-7.366-2.154-12.161-6.46-14.385-4.168-2.223-10.628-3.335-19.38-3.335-5.974 0-10.766.625-14.378 1.876s-6.182 3.266-7.711 6.046c-1.528 2.64-2.292 6.323-2.292 11.048 0 4.587.764 8.27 2.292 11.049 1.529 2.78 4.099 4.795 7.711 6.046 3.612 1.112 8.404 1.668 14.378 1.668 5.835 0 10.628-.487 14.379-1.46 3.889-.973 6.737-2.779 8.543-5.42 1.945-2.779 2.918-6.671 2.918-11.674h3.959l2.917 23.974h-6.46c-1.667 10.423-5.765 18.136-12.294 23.14-6.391 4.864-15.768 7.296-28.132 7.296zm79.186-2.085h-36.676v-29.602l-2.5-2.71V189.621h39.176v139.673zM502.872 329.294h-39.176V224.227h39.176v105.067zm0-114.657h-39.176v-25.016h39.176v25.016zM574.357 331.379c-12.364 0-23.13-2.154-32.299-6.462-9.169-4.448-16.254-10.771-21.255-18.971-5.001-8.2-7.502-17.928-7.502-29.186 0-11.396 2.501-21.124 7.502-29.185 5.001-8.2 12.086-14.454 21.255-18.762 9.169-4.447 19.935-6.671 32.299-6.671 11.948 0 22.297 1.946 31.049 5.837 8.891 3.752 15.699 9.103 20.422 16.052 4.862 6.949 7.293 15.149 7.293 24.599v3.336h-38.967v-1.668c0-5.42-1.876-8.964-5.627-10.632-3.612-1.668-8.613-2.501-15.003-2.501-7.224 0-12.573 1.25-16.046 3.752-3.473 2.363-5.209 7.644-5.209 15.843 0 8.061 1.736 13.342 5.209 15.844 3.473 2.363 8.822 3.544 16.046 3.544 6.39 0 11.391-.764 15.003-2.293 3.751-1.668 5.627-5.212 5.627-10.632v-1.876h38.967v3.544c0 9.311-2.431 17.442-7.293 24.39-4.723 6.949-11.531 12.37-20.422 16.261-8.752 3.891-19.101 5.837-31.049 5.837zM722.15 329.294h-27.507c-13.059 0-23.339-3.266-30.841-9.798-7.362-6.532-11.044-16.608-11.044-30.227V206.09h39.176v77.55c0 4.169.764 6.949 2.292 8.339 1.667 1.389 4.724 2.084 9.169 2.084h18.755v35.231zm0-72.963h-84.812v-32.104h84.812v32.104zM790.057 331.379c-11.809 0-22.297-1.807-31.466-5.42-9.169-3.614-16.324-9.451-21.464-17.511-5.14-8.061-7.71-18.624-7.71-31.688 0-11.396 2.57-21.124 7.71-29.185 5.14-8.2 12.156-14.454 21.047-18.762 9.03-4.447 19.38-6.671 31.049-6.671 12.086 0 22.575 2.015 31.466 6.046 8.891 3.891 15.767 9.728 20.63 17.511 4.862 7.644 7.293 17.094 7.293 28.351 0 1.807-.069 3.475-.208 5.004 0 1.389-.139 3.057-.417 5.003h-92.939v-19.805h64.599l-8.544 12.3v-3.544-3.752c0-6.393-1.667-10.841-5.001-13.342-3.195-2.502-9.099-3.753-17.713-3.753-8.891 0-14.934 1.39-18.129 4.17-3.056 2.779-4.584 7.782-4.584 15.009v10.007c0 7.366 1.597 12.369 4.793 15.009 3.195 2.641 9.238 3.961 18.129 3.961 7.918 0 13.197-.695 15.837-2.084 2.778-1.529 4.168-3.822 4.168-6.88v-2.293h39.176v2.502c0 7.782-2.362 14.662-7.085 20.638-4.724 5.976-11.392 10.701-20.005 14.176-8.613 3.335-18.824 5.003-30.632 5.003zM906.815 331.379c-10.698 0-19.797-2.154-27.299-6.462-7.363-4.448-12.989-10.771-16.879-18.971-3.751-8.2-5.626-17.928-5.626-29.186 0-11.396 1.875-21.124 5.626-29.185 3.751-8.2 9.169-14.454 16.254-18.762 7.224-4.447 15.976-6.671 26.256-6.671 12.365 0 21.672 2.71 27.924 8.13 6.251 5.281 10.141 12.3 11.669 21.055h6.043v24.183h-3.959c0-7.366-2.153-12.161-6.46-14.385-4.167-2.223-10.627-3.335-19.379-3.335-5.974 0-10.767.625-14.379 1.876s-6.182 3.266-7.71 6.046c-1.528 2.64-2.292 6.323-2.292 11.048 0 4.587.764 8.27 2.292 11.049 1.528 2.78 4.098 4.795 7.71 6.046 3.612 1.112 8.405 1.668 14.379 1.668 5.834 0 10.627-.487 14.378-1.46 3.89-.973 6.738-2.779 8.544-5.42 1.945-2.779 2.917-6.671 2.917-11.674h3.959l2.918 23.974h-6.46c-1.667 10.423-5.765 18.136-12.295 23.14-6.39 4.864-15.767 7.296-28.131 7.296zM986 329.294h-36.675v-29.602l-2.501-2.71V189.621H986v139.673zM87.353 519c-16.115 0-29.937-2.919-41.468-8.756-11.53-5.976-20.352-14.314-26.465-25.016-6.112-10.84-9.169-23.557-9.169-38.149 0-14.593 3.057-27.24 9.17-37.941 6.112-10.841 14.934-19.18 26.464-25.017 11.53-5.976 25.353-8.964 41.468-8.964 15.698 0 29.104 2.363 40.218 7.088 11.253 4.725 19.866 11.535 25.84 20.43 5.973 8.895 8.96 19.596 8.96 32.104v3.544h-43.76v-3.544c0-7.922-2.223-13.55-6.669-16.886-4.445-3.474-12.433-5.212-23.964-5.212-9.446 0-16.81.973-22.088 2.919-5.14 1.807-8.752 5.212-10.836 10.215-2.084 4.864-3.126 11.952-3.126 21.264 0 9.172 1.042 16.26 3.126 21.263 2.084 5.004 5.696 8.478 10.836 10.424 5.279 1.806 12.642 2.71 22.088 2.71 11.53 0 19.519-1.668 23.964-5.003 4.446-3.475 6.669-9.173 6.669-17.095v-3.544h43.76v3.544c0 12.369-2.987 23.071-8.96 32.104-5.974 8.895-14.587 15.705-25.84 20.43-11.114 4.725-24.52 7.088-40.218 7.088zM211.869 516.915h-39.176V411.848h36.675v30.019l2.501 1.042v74.006zm0-62.748h-7.294v-14.802h6.877c.972-5.837 2.848-10.979 5.626-15.426 2.779-4.448 6.529-7.922 11.253-10.424 4.862-2.501 10.766-3.752 17.712-3.752 7.78 0 14.032 1.598 18.755 4.795 4.723 3.057 8.127 7.296 10.211 12.716 2.222 5.42 3.334 11.674 3.334 18.762v20.847h-39.176v-12.3c0-4.447-.973-7.504-2.918-9.172-1.945-1.807-5.487-2.71-10.627-2.71-5.279 0-8.891.903-10.836 2.71-1.945 1.668-2.917 4.586-2.917 8.756zM345.208 519c-11.809 0-22.297-1.807-31.466-5.42-9.169-3.614-16.324-9.451-21.464-17.511-5.14-8.061-7.71-18.624-7.71-31.688 0-11.396 2.57-21.124 7.71-29.185 5.14-8.2 12.156-14.454 21.047-18.762 9.03-4.447 19.38-6.671 31.049-6.671 12.086 0 22.575 2.015 31.466 6.045 8.891 3.892 15.768 9.729 20.63 17.512 4.862 7.644 7.293 17.094 7.293 28.351 0 1.807-.069 3.475-.208 5.004 0 1.389-.139 3.057-.417 5.003h-92.939v-19.805h64.599l-8.544 12.3v-3.544-3.752c0-6.393-1.667-10.841-5.001-13.342-3.195-2.502-9.099-3.753-17.712-3.753-8.891 0-14.935 1.39-18.13 4.17-3.056 2.779-4.584 7.782-4.584 15.009v10.007c0 7.366 1.597 12.369 4.793 15.009 3.195 2.641 9.238 3.961 18.129 3.961 7.919 0 13.198-.695 15.837-2.084 2.779-1.529 4.168-3.822 4.168-6.88v-2.293h39.176v2.502c0 7.782-2.362 14.662-7.085 20.638-4.724 5.976-11.392 10.701-20.005 14.176-8.613 3.335-18.824 5.003-30.632 5.003zM526.564 516.915h-36.675v-23.348h-2.084v-37.316c0-5.281-1.389-8.616-4.168-10.006-2.639-1.529-7.432-2.293-14.378-2.293-6.39 0-10.836.764-13.336 2.293-2.362 1.528-3.543 4.517-3.543 8.964v.834h-39.176v-.417c0-9.312 2.431-17.372 7.293-24.182 4.863-6.949 11.739-12.3 20.63-16.052 8.891-3.753 19.241-5.629 31.049-5.629 12.226 0 22.367 1.946 30.424 5.837 8.058 3.752 14.031 9.173 17.921 16.26 4.029 6.949 6.043 15.358 6.043 25.225v59.83zM448.212 519c-11.808 0-20.977-2.571-27.506-7.713-6.391-5.142-9.586-12.161-9.586-21.056 0-5.003 1.181-9.45 3.543-13.341 2.361-3.892 6.043-7.019 11.044-9.382 5.001-2.501 11.461-4.169 19.38-5.003l44.802-4.378v21.681l-34.383 3.961c-1.806.139-3.126.556-3.96 1.251-.694.695-1.041 1.598-1.041 2.71 0 1.668.764 2.779 2.292 3.335 1.667.417 4.029.626 7.085.626 6.946 0 12.433-.348 16.462-1.043 4.029-.833 6.946-2.293 8.752-4.377 1.806-2.085 2.709-5.073 2.709-8.965l2.917-.833v18.345h-2.917c-1.945 7.366-6.182 13.272-12.711 17.72-6.53 4.308-15.49 6.462-26.882 6.462zM616.737 516.915h-27.506c-13.059 0-23.339-3.266-30.841-9.798-7.363-6.532-11.044-16.608-11.044-30.227v-83.179h39.176v77.55c0 4.169.764 6.949 2.292 8.339 1.667 1.389 4.723 2.084 9.169 2.084h18.754v35.231zm0-72.963h-84.812v-32.104h84.812v32.104zM684.227 519c-12.086 0-22.783-2.154-32.091-6.462-9.169-4.448-16.323-10.771-21.463-18.971-5.14-8.2-7.71-17.928-7.71-29.186 0-11.396 2.57-21.124 7.71-29.185 5.14-8.2 12.294-14.454 21.463-18.762 9.308-4.447 20.005-6.671 32.091-6.671 12.225 0 22.922 2.224 32.091 6.671 9.169 4.308 16.324 10.562 21.464 18.762 5.14 8.061 7.71 17.789 7.71 29.185 0 11.258-2.57 20.986-7.71 29.186-5.14 8.2-12.295 14.523-21.464 18.971-9.169 4.308-19.866 6.462-32.091 6.462zm0-34.606c8.891 0 14.865-1.389 17.921-4.169 3.056-2.919 4.585-8.2 4.585-15.844 0-7.643-1.529-12.925-4.585-15.843-3.056-2.919-9.03-4.378-17.921-4.378s-14.864 1.459-17.921 4.378c-3.056 2.918-4.584 8.2-4.584 15.843 0 7.644 1.528 12.925 4.584 15.844 3.057 2.78 9.03 4.169 17.921 4.169zM794.079 516.915h-39.176V411.848h36.676v30.019l2.5 1.042v74.006zm0-62.748h-7.293v-14.802h6.877c.972-5.837 2.847-10.979 5.626-15.426 2.778-4.448 6.529-7.922 11.253-10.424 4.862-2.501 10.766-3.752 17.712-3.752 7.78 0 14.031 1.598 18.755 4.795 4.723 3.057 8.127 7.296 10.21 12.716 2.223 5.42 3.335 11.674 3.335 18.762v20.847h-39.177v-12.3c0-4.447-.972-7.504-2.917-9.172-1.945-1.807-5.487-2.71-10.627-2.71-5.279 0-8.891.903-10.836 2.71-1.945 1.668-2.918 4.586-2.918 8.756z"/></mask><path d="M85.27 141.673H24.421v-35.231h60.847c8.336 0 14.934-.695 19.797-2.084 4.862-1.39 8.335-4.517 10.419-9.381 2.084-5.004 3.126-12.717 3.126-23.14 0-10.563-1.042-18.276-3.126-23.14-2.084-4.864-5.557-7.992-10.419-9.381-4.863-1.39-11.461-2.085-19.797-2.085H24.421V2H85.27c15.421 0 28.757 2.78 40.01 8.339 11.253 5.42 19.935 13.342 26.048 23.765 6.112 10.423 9.169 23.001 9.169 37.733 0 14.731-3.057 27.309-9.169 37.732-6.113 10.424-14.795 18.415-26.048 23.974-11.253 5.42-24.589 8.13-40.01 8.13zm-31.466 0H14.627V2h39.176v139.673z" stroke="url(#prefix__paint0_linear_1205_1309)" stroke-width="4" mask="url(#prefix__a)"/><path d="M210.037 141.673h-39.176V36.606h39.176v105.067zm0-114.657h-39.176V2h39.176v25.016z" stroke="url(#prefix__paint1_linear_1205_1309)" stroke-width="4" mask="url(#prefix__a)"/><path d="M284.648 179.198c-12.225 0-22.644-1.668-31.257-5.004-8.614-3.335-15.212-8.199-19.797-14.592-4.584-6.393-6.877-14.176-6.877-23.349h39.176c0 2.78.348 4.934 1.042 6.463.834 1.667 2.709 2.779 5.627 3.335 3.056.556 7.988.834 14.795.834 5.696 0 10.002-.486 12.92-1.459 3.056-.834 5.14-2.71 6.251-5.629 1.112-2.918 1.667-7.296 1.667-13.133V62.456h2.501v-25.85h36.675v87.348c0 12.508-2.431 22.792-7.293 30.853-4.862 8.2-11.947 14.315-21.255 18.345-9.308 4.03-20.7 6.046-34.175 6.046zm-15.42-49.199c-10.42 0-19.241-1.876-26.465-5.628-7.224-3.892-12.781-9.381-16.671-16.469-3.751-7.227-5.626-15.844-5.626-25.85 0-9.868 1.945-18.346 5.835-25.434 4.028-7.087 9.794-12.508 17.296-16.26 7.501-3.891 16.392-5.837 26.673-5.837 10.697 0 19.379 2.224 26.047 6.67 6.808 4.31 10.906 10.98 12.295 20.014h6.46l-2.917 20.638h-3.96c0-3.752-.903-6.601-2.709-8.547-1.667-1.946-4.306-3.266-7.918-3.96-3.612-.696-8.336-1.043-14.17-1.043-6.113 0-10.906.486-14.379 1.459-3.334.834-5.696 2.224-7.085 4.17-1.25 1.945-1.875 4.655-1.875 8.13 0 3.474.625 6.254 1.875 8.338 1.389 2.085 3.751 3.614 7.085 4.587 3.473.972 8.266 1.459 14.379 1.459 8.752 0 15.073-.765 18.963-2.293 3.889-1.668 5.834-5.281 5.834-10.84h3.96v21.263h-6.044c-1.389 7.644-5.001 13.828-10.836 18.554-5.834 4.586-14.517 6.879-26.047 6.879z" stroke="url(#prefix__paint2_linear_1205_1309)" stroke-width="4" mask="url(#prefix__a)"/><path d="M399.088 141.673h-39.176V36.606h39.176v105.067zm0-114.657h-39.176V2h39.176v25.016z" stroke="url(#prefix__paint3_linear_1205_1309)" stroke-width="4" mask="url(#prefix__a)"/><path d="M490.161 141.673h-27.507c-13.058 0-23.339-3.266-30.84-9.798-7.363-6.532-11.045-16.608-11.045-30.227V18.469h39.176v77.55c0 4.169.764 6.949 2.293 8.339 1.667 1.389 4.723 2.084 9.168 2.084h18.755v35.231zm0-72.963h-84.812V36.606h84.812V68.71z" stroke="url(#prefix__paint4_linear_1205_1309)" stroke-width="4" mask="url(#prefix__a)"/><path d="M611.83 141.673h-36.675v-23.348h-2.084V81.009c0-5.28-1.389-8.616-4.167-10.006-2.64-1.529-7.433-2.293-14.379-2.293-6.39 0-10.836.764-13.336 2.293-2.362 1.529-3.543 4.517-3.543 8.964v.834H498.47v-.417c0-9.312 2.431-17.372 7.293-24.182 4.863-6.95 11.739-12.3 20.63-16.052 8.891-3.753 19.241-5.629 31.049-5.629 12.226 0 22.367 1.946 30.424 5.837 8.058 3.753 14.032 9.173 17.921 16.26 4.029 6.95 6.043 15.358 6.043 25.225v59.83zm-78.352 2.085c-11.808 0-20.977-2.571-27.506-7.713-6.391-5.142-9.586-12.161-9.586-21.055 0-5.004 1.181-9.451 3.543-13.342 2.361-3.892 6.043-7.019 11.044-9.382 5.001-2.501 11.461-4.169 19.38-5.003l44.802-4.378v21.681l-34.383 3.961c-1.806.139-3.126.556-3.959 1.251-.695.695-1.042 1.598-1.042 2.71 0 1.668.764 2.779 2.292 3.335 1.667.417 4.029.626 7.085.626 6.946 0 12.433-.348 16.462-1.043 4.029-.833 6.946-2.293 8.752-4.377 1.806-2.085 2.709-5.073 2.709-8.964l2.918-.834v18.345h-2.918c-1.945 7.366-6.182 13.272-12.711 17.72-6.529 4.308-15.49 6.462-26.882 6.462z" stroke="url(#prefix__paint5_linear_1205_1309)" stroke-width="4" mask="url(#prefix__a)"/><path d="M662.619 141.673h-39.176V2h39.176v139.673z" stroke="url(#prefix__paint6_linear_1205_1309)" stroke-width="4" mask="url(#prefix__a)"/><path d="M714.308 141.673h-39.176V2h39.176v139.673z" stroke="url(#prefix__paint7_linear_1205_1309)" stroke-width="4" mask="url(#prefix__a)"/><path d="M749.951 177.113h-18.963v-35.44h30.424c3.195 0 5.626-.417 7.293-1.25 1.667-.834 2.918-2.294 3.751-4.378l2.918-7.088-3.751 17.511-53.138-109.862h44.594l18.129 41.276 7.502 24.183h2.709l6.877-24.6 15.628-40.86h43.761l-49.804 109.238c-3.751 8.199-8.196 14.592-13.336 19.179-5.001 4.586-11.114 7.713-18.338 9.381-7.224 1.807-15.976 2.71-26.256 2.71z" stroke="url(#prefix__paint8_linear_1205_1309)" stroke-width="4" mask="url(#prefix__a)"/><path d="M47.969 329.294H4l60.223-139.673h56.055l60.431 139.673h-45.011l-33.133-80.677-9.169-23.557h-2.709l-8.96 23.557-33.758 80.677zm94.606-25.85H39.634v-35.231h102.941v35.231z" stroke="url(#prefix__paint9_linear_1205_1309)" stroke-width="4" mask="url(#prefix__a)"/><path d="M232.622 331.379c-10.697 0-19.796-2.154-27.298-6.462-7.363-4.448-12.989-10.771-16.879-18.971-3.751-8.2-5.626-17.928-5.626-29.186 0-11.396 1.875-21.124 5.626-29.185 3.751-8.2 9.169-14.454 16.254-18.762 7.224-4.447 15.976-6.671 26.256-6.671 12.364 0 21.672 2.71 27.923 8.13 6.252 5.281 10.142 12.3 11.67 21.055h6.043v24.183h-3.959c0-7.366-2.154-12.161-6.46-14.385-4.168-2.223-10.628-3.335-19.38-3.335-5.973 0-10.766.625-14.378 1.876s-6.182 3.266-7.71 6.046c-1.528 2.64-2.293 6.323-2.293 11.048 0 4.587.765 8.27 2.293 11.049 1.528 2.78 4.098 4.795 7.71 6.046 3.612 1.112 8.405 1.668 14.378 1.668 5.835 0 10.628-.487 14.379-1.46 3.89-.973 6.737-2.779 8.543-5.42 1.945-2.779 2.918-6.671 2.918-11.674h3.959l2.917 23.974h-6.459c-1.668 10.423-5.766 18.136-12.295 23.14-6.39 4.864-15.768 7.296-28.132 7.296zm79.186-2.085h-36.676v-29.602l-2.5-2.71V189.621h39.176v139.673z" stroke="url(#prefix__paint10_linear_1205_1309)" stroke-width="4" mask="url(#prefix__a)"/><path d="M372.019 331.379c-10.697 0-19.796-2.154-27.298-6.462-7.363-4.448-12.989-10.771-16.879-18.971-3.751-8.2-5.626-17.928-5.626-29.186 0-11.396 1.875-21.124 5.626-29.185 3.751-8.2 9.169-14.454 16.254-18.762 7.224-4.447 15.976-6.671 26.256-6.671 12.364 0 21.672 2.71 27.923 8.13 6.252 5.281 10.142 12.3 11.67 21.055h6.043v24.183h-3.959c0-7.366-2.154-12.161-6.46-14.385-4.168-2.223-10.628-3.335-19.38-3.335-5.974 0-10.766.625-14.378 1.876s-6.182 3.266-7.711 6.046c-1.528 2.64-2.292 6.323-2.292 11.048 0 4.587.764 8.27 2.292 11.049 1.529 2.78 4.099 4.795 7.711 6.046 3.612 1.112 8.404 1.668 14.378 1.668 5.835 0 10.628-.487 14.379-1.46 3.889-.973 6.737-2.779 8.543-5.42 1.945-2.779 2.918-6.671 2.918-11.674h3.959l2.917 23.974h-6.46c-1.667 10.423-5.765 18.136-12.294 23.14-6.391 4.864-15.768 7.296-28.132 7.296zm79.186-2.085h-36.676v-29.602l-2.5-2.71V189.621h39.176v139.673z" stroke="url(#prefix__paint11_linear_1205_1309)" stroke-width="4" mask="url(#prefix__a)"/><path d="M502.872 329.294h-39.176V224.227h39.176v105.067zm0-114.657h-39.176v-25.016h39.176v25.016z" stroke="url(#prefix__paint12_linear_1205_1309)" stroke-width="4" mask="url(#prefix__a)"/><path d="M574.357 331.379c-12.364 0-23.13-2.154-32.299-6.462-9.169-4.448-16.254-10.771-21.255-18.971-5.001-8.2-7.502-17.928-7.502-29.186 0-11.396 2.501-21.124 7.502-29.185 5.001-8.2 12.086-14.454 21.255-18.762 9.169-4.447 19.935-6.671 32.299-6.671 11.948 0 22.297 1.946 31.049 5.837 8.891 3.752 15.699 9.103 20.422 16.052 4.862 6.949 7.293 15.149 7.293 24.599v3.336h-38.967v-1.668c0-5.42-1.876-8.964-5.627-10.632-3.612-1.668-8.613-2.501-15.003-2.501-7.224 0-12.573 1.25-16.046 3.752-3.473 2.363-5.209 7.644-5.209 15.843 0 8.061 1.736 13.342 5.209 15.844 3.473 2.363 8.822 3.544 16.046 3.544 6.39 0 11.391-.764 15.003-2.293 3.751-1.668 5.627-5.212 5.627-10.632v-1.876h38.967v3.544c0 9.311-2.431 17.442-7.293 24.39-4.723 6.949-11.531 12.37-20.422 16.261-8.752 3.891-19.101 5.837-31.049 5.837z" stroke="url(#prefix__paint13_linear_1205_1309)" stroke-width="4" mask="url(#prefix__a)"/><path d="M722.15 329.294h-27.507c-13.059 0-23.339-3.266-30.841-9.798-7.362-6.532-11.044-16.608-11.044-30.227V206.09h39.176v77.55c0 4.169.764 6.949 2.292 8.339 1.667 1.389 4.724 2.084 9.169 2.084h18.755v35.231zm0-72.963h-84.812v-32.104h84.812v32.104z" stroke="url(#prefix__paint14_linear_1205_1309)" stroke-width="4" mask="url(#prefix__a)"/><path d="M790.057 331.379c-11.809 0-22.297-1.807-31.466-5.42-9.169-3.614-16.324-9.451-21.464-17.511-5.14-8.061-7.71-18.624-7.71-31.688 0-11.396 2.57-21.124 7.71-29.185 5.14-8.2 12.156-14.454 21.047-18.762 9.03-4.447 19.38-6.671 31.049-6.671 12.086 0 22.575 2.015 31.466 6.046 8.891 3.891 15.767 9.728 20.63 17.511 4.862 7.644 7.293 17.094 7.293 28.351 0 1.807-.069 3.475-.208 5.004 0 1.389-.139 3.057-.417 5.003h-92.939v-19.805h64.599l-8.544 12.3v-3.544-3.752c0-6.393-1.667-10.841-5.001-13.342-3.195-2.502-9.099-3.753-17.713-3.753-8.891 0-14.934 1.39-18.129 4.17-3.056 2.779-4.584 7.782-4.584 15.009v10.007c0 7.366 1.597 12.369 4.793 15.009 3.195 2.641 9.238 3.961 18.129 3.961 7.918 0 13.197-.695 15.837-2.084 2.778-1.529 4.168-3.822 4.168-6.88v-2.293h39.176v2.502c0 7.782-2.362 14.662-7.085 20.638-4.724 5.976-11.392 10.701-20.005 14.176-8.613 3.335-18.824 5.003-30.632 5.003z" stroke="url(#prefix__paint15_linear_1205_1309)" stroke-width="4" mask="url(#prefix__a)"/><path d="M906.815 331.379c-10.698 0-19.797-2.154-27.299-6.462-7.363-4.448-12.989-10.771-16.879-18.971-3.751-8.2-5.626-17.928-5.626-29.186 0-11.396 1.875-21.124 5.626-29.185 3.751-8.2 9.169-14.454 16.254-18.762 7.224-4.447 15.976-6.671 26.256-6.671 12.365 0 21.672 2.71 27.924 8.13 6.251 5.281 10.141 12.3 11.669 21.055h6.043v24.183h-3.959c0-7.366-2.153-12.161-6.46-14.385-4.167-2.223-10.627-3.335-19.379-3.335-5.974 0-10.767.625-14.379 1.876s-6.182 3.266-7.71 6.046c-1.528 2.64-2.292 6.323-2.292 11.048 0 4.587.764 8.27 2.292 11.049 1.528 2.78 4.098 4.795 7.71 6.046 3.612 1.112 8.405 1.668 14.379 1.668 5.834 0 10.627-.487 14.378-1.46 3.89-.973 6.738-2.779 8.544-5.42 1.945-2.779 2.917-6.671 2.917-11.674h3.959l2.918 23.974h-6.46c-1.667 10.423-5.765 18.136-12.295 23.14-6.39 4.864-15.767 7.296-28.131 7.296zM986 329.294h-36.675v-29.602l-2.501-2.71V189.621H986v139.673z" stroke="url(#prefix__paint16_linear_1205_1309)" stroke-width="4" mask="url(#prefix__a)"/><path d="M87.353 519c-16.115 0-29.937-2.919-41.468-8.756-11.53-5.976-20.352-14.314-26.465-25.016-6.112-10.84-9.169-23.557-9.169-38.149 0-14.593 3.057-27.24 9.17-37.941 6.112-10.841 14.934-19.18 26.464-25.017 11.53-5.976 25.353-8.964 41.468-8.964 15.698 0 29.104 2.363 40.218 7.088 11.253 4.725 19.866 11.535 25.84 20.43 5.973 8.895 8.96 19.596 8.96 32.104v3.544h-43.76v-3.544c0-7.922-2.223-13.55-6.669-16.886-4.445-3.474-12.433-5.212-23.964-5.212-9.446 0-16.81.973-22.088 2.919-5.14 1.807-8.752 5.212-10.836 10.215-2.084 4.864-3.126 11.952-3.126 21.264 0 9.172 1.042 16.26 3.126 21.263 2.084 5.004 5.696 8.478 10.836 10.424 5.279 1.806 12.642 2.71 22.088 2.71 11.53 0 19.519-1.668 23.964-5.003 4.446-3.475 6.669-9.173 6.669-17.095v-3.544h43.76v3.544c0 12.369-2.987 23.071-8.96 32.104-5.974 8.895-14.587 15.705-25.84 20.43-11.114 4.725-24.52 7.088-40.218 7.088z" stroke="url(#prefix__paint17_linear_1205_1309)" stroke-width="4" mask="url(#prefix__a)"/><path d="M211.869 516.915h-39.176V411.848h36.675v30.019l2.501 1.042v74.006zm0-62.748h-7.294v-14.802h6.877c.972-5.837 2.848-10.979 5.626-15.426 2.779-4.448 6.529-7.922 11.253-10.424 4.862-2.501 10.766-3.752 17.712-3.752 7.78 0 14.032 1.598 18.755 4.795 4.723 3.057 8.127 7.296 10.211 12.716 2.222 5.42 3.334 11.674 3.334 18.762v20.847h-39.176v-12.3c0-4.447-.973-7.504-2.918-9.172-1.945-1.807-5.487-2.71-10.627-2.71-5.279 0-8.891.903-10.836 2.71-1.945 1.668-2.917 4.586-2.917 8.756z" stroke="url(#prefix__paint18_linear_1205_1309)" stroke-width="4" mask="url(#prefix__a)"/><path d="M345.208 519c-11.809 0-22.297-1.807-31.466-5.42-9.169-3.614-16.324-9.451-21.464-17.511-5.14-8.061-7.71-18.624-7.71-31.688 0-11.396 2.57-21.124 7.71-29.185 5.14-8.2 12.156-14.454 21.047-18.762 9.03-4.447 19.38-6.671 31.049-6.671 12.086 0 22.575 2.015 31.466 6.045 8.891 3.892 15.768 9.729 20.63 17.512 4.862 7.644 7.293 17.094 7.293 28.351 0 1.807-.069 3.475-.208 5.004 0 1.389-.139 3.057-.417 5.003h-92.939v-19.805h64.599l-8.544 12.3v-3.544-3.752c0-6.393-1.667-10.841-5.001-13.342-3.195-2.502-9.099-3.753-17.712-3.753-8.891 0-14.935 1.39-18.13 4.17-3.056 2.779-4.584 7.782-4.584 15.009v10.007c0 7.366 1.597 12.369 4.793 15.009 3.195 2.641 9.238 3.961 18.129 3.961 7.919 0 13.198-.695 15.837-2.084 2.779-1.529 4.168-3.822 4.168-6.88v-2.293h39.176v2.502c0 7.782-2.362 14.662-7.085 20.638-4.724 5.976-11.392 10.701-20.005 14.176-8.613 3.335-18.824 5.003-30.632 5.003z" stroke="url(#prefix__paint19_linear_1205_1309)" stroke-width="4" mask="url(#prefix__a)"/><path d="M526.564 516.915h-36.675v-23.348h-2.084v-37.316c0-5.281-1.389-8.616-4.168-10.006-2.639-1.529-7.432-2.293-14.378-2.293-6.39 0-10.836.764-13.336 2.293-2.362 1.528-3.543 4.517-3.543 8.964v.834h-39.176v-.417c0-9.312 2.431-17.372 7.293-24.182 4.863-6.949 11.739-12.3 20.63-16.052 8.891-3.753 19.241-5.629 31.049-5.629 12.226 0 22.367 1.946 30.424 5.837 8.058 3.752 14.031 9.173 17.921 16.26 4.029 6.949 6.043 15.358 6.043 25.225v59.83zM448.212 519c-11.808 0-20.977-2.571-27.506-7.713-6.391-5.142-9.586-12.161-9.586-21.056 0-5.003 1.181-9.45 3.543-13.341 2.361-3.892 6.043-7.019 11.044-9.382 5.001-2.501 11.461-4.169 19.38-5.003l44.802-4.378v21.681l-34.383 3.961c-1.806.139-3.126.556-3.96 1.251-.694.695-1.041 1.598-1.041 2.71 0 1.668.764 2.779 2.292 3.335 1.667.417 4.029.626 7.085.626 6.946 0 12.433-.348 16.462-1.043 4.029-.833 6.946-2.293 8.752-4.377 1.806-2.085 2.709-5.073 2.709-8.965l2.917-.833v18.345h-2.917c-1.945 7.366-6.182 13.272-12.711 17.72-6.53 4.308-15.49 6.462-26.882 6.462z" stroke="url(#prefix__paint20_linear_1205_1309)" stroke-width="4" mask="url(#prefix__a)"/><path d="M616.737 516.915h-27.506c-13.059 0-23.339-3.266-30.841-9.798-7.363-6.532-11.044-16.608-11.044-30.227v-83.179h39.176v77.55c0 4.169.764 6.949 2.292 8.339 1.667 1.389 4.723 2.084 9.169 2.084h18.754v35.231zm0-72.963h-84.812v-32.104h84.812v32.104z" stroke="url(#prefix__paint21_linear_1205_1309)" stroke-width="4" mask="url(#prefix__a)"/><path d="M684.227 519c-12.086 0-22.783-2.154-32.091-6.462-9.169-4.448-16.323-10.771-21.463-18.971-5.14-8.2-7.71-17.928-7.71-29.186 0-11.396 2.57-21.124 7.71-29.185 5.14-8.2 12.294-14.454 21.463-18.762 9.308-4.447 20.005-6.671 32.091-6.671 12.225 0 22.922 2.224 32.091 6.671 9.169 4.308 16.324 10.562 21.464 18.762 5.14 8.061 7.71 17.789 7.71 29.185 0 11.258-2.57 20.986-7.71 29.186-5.14 8.2-12.295 14.523-21.464 18.971-9.169 4.308-19.866 6.462-32.091 6.462zm0-34.606c8.891 0 14.865-1.389 17.921-4.169 3.056-2.919 4.585-8.2 4.585-15.844 0-7.643-1.529-12.925-4.585-15.843-3.056-2.919-9.03-4.378-17.921-4.378s-14.864 1.459-17.921 4.378c-3.056 2.918-4.584 8.2-4.584 15.843 0 7.644 1.528 12.925 4.584 15.844 3.057 2.78 9.03 4.169 17.921 4.169z" stroke="url(#prefix__paint22_linear_1205_1309)" stroke-width="4" mask="url(#prefix__a)"/><path d="M794.079 516.915h-39.176V411.848h36.676v30.019l2.5 1.042v74.006zm0-62.748h-7.293v-14.802h6.877c.972-5.837 2.847-10.979 5.626-15.426 2.778-4.448 6.529-7.922 11.253-10.424 4.862-2.501 10.766-3.752 17.712-3.752 7.78 0 14.031 1.598 18.755 4.795 4.723 3.057 8.127 7.296 10.21 12.716 2.223 5.42 3.335 11.674 3.335 18.762v20.847h-39.177v-12.3c0-4.447-.972-7.504-2.917-9.172-1.945-1.807-5.487-2.71-10.627-2.71-5.279 0-8.891.903-10.836 2.71-1.945 1.668-2.918 4.586-2.918 8.756z" stroke="url(#prefix__paint23_linear_1205_1309)" stroke-width="4" mask="url(#prefix__a)"/></g><defs><linearGradient id="prefix__paint0_linear_1205_1309" x1="831" y1="2" x2="-71" y2="500" gradientUnits="userSpaceOnUse"><stop stop-color="#fff"/><stop offset="1" stop-color="#fff" stop-opacity="0"/></linearGradient><linearGradient id="prefix__paint1_linear_1205_1309" x1="831" y1="2" x2="-71" y2="500" gradientUnits="userSpaceOnUse"><stop stop-color="#fff"/><stop offset="1" stop-color="#fff" stop-opacity="0"/></linearGradient><linearGradient id="prefix__paint2_linear_1205_1309" x1="831" y1="2" x2="-71" y2="500" gradientUnits="userSpaceOnUse"><stop stop-color="#fff"/><stop offset="1" stop-color="#fff" stop-opacity="0"/></linearGradient><linearGradient id="prefix__paint3_linear_1205_1309" x1="831" y1="2" x2="-71" y2="500" gradientUnits="userSpaceOnUse"><stop stop-color="#fff"/><stop offset="1" stop-color="#fff" stop-opacity="0"/></linearGradient><linearGradient id="prefix__paint4_linear_1205_1309" x1="831" y1="2" x2="-71" y2="500" gradientUnits="userSpaceOnUse"><stop stop-color="#fff"/><stop offset="1" stop-color="#fff" stop-opacity="0"/></linearGradient><linearGradient id="prefix__paint5_linear_1205_1309" x1="831" y1="2" x2="-71" y2="500" gradientUnits="userSpaceOnUse"><stop stop-color="#fff"/><stop offset="1" stop-color="#fff" stop-opacity="0"/></linearGradient><linearGradient id="prefix__paint6_linear_1205_1309" x1="831" y1="2" x2="-71" y2="500" gradientUnits="userSpaceOnUse"><stop stop-color="#fff"/><stop offset="1" stop-color="#fff" stop-opacity="0"/></linearGradient><linearGradient id="prefix__paint7_linear_1205_1309" x1="831" y1="2" x2="-71" y2="500" gradientUnits="userSpaceOnUse"><stop stop-color="#fff"/><stop offset="1" stop-color="#fff" stop-opacity="0"/></linearGradient><linearGradient id="prefix__paint8_linear_1205_1309" x1="831" y1="2" x2="-71" y2="500" gradientUnits="userSpaceOnUse"><stop stop-color="#fff"/><stop offset="1" stop-color="#fff" stop-opacity="0"/></linearGradient><linearGradient id="prefix__paint9_linear_1205_1309" x1="831" y1="2" x2="-71" y2="500" gradientUnits="userSpaceOnUse"><stop stop-color="#fff"/><stop offset="1" stop-color="#fff" stop-opacity="0"/></linearGradient><linearGradient id="prefix__paint10_linear_1205_1309" x1="831" y1="2" x2="-71" y2="500" gradientUnits="userSpaceOnUse"><stop stop-color="#fff"/><stop offset="1" stop-color="#fff" stop-opacity="0"/></linearGradient><linearGradient id="prefix__paint11_linear_1205_1309" x1="831" y1="2" x2="-71" y2="500" gradientUnits="userSpaceOnUse"><stop stop-color="#fff"/><stop offset="1" stop-color="#fff" stop-opacity="0"/></linearGradient><linearGradient id="prefix__paint12_linear_1205_1309" x1="831" y1="2" x2="-71" y2="500" gradientUnits="userSpaceOnUse"><stop stop-color="#fff"/><stop offset="1" stop-color="#fff" stop-opacity="0"/></linearGradient><linearGradient id="prefix__paint13_linear_1205_1309" x1="831" y1="2" x2="-71" y2="500" gradientUnits="userSpaceOnUse"><stop stop-color="#fff"/><stop offset="1" stop-color="#fff" stop-opacity="0"/></linearGradient><linearGradient id="prefix__paint14_linear_1205_1309" x1="831" y1="2" x2="-71" y2="500" gradientUnits="userSpaceOnUse"><stop stop-color="#fff"/><stop offset="1" stop-color="#fff" stop-opacity="0"/></linearGradient><linearGradient id="prefix__paint15_linear_1205_1309" x1="831" y1="2" x2="-71" y2="500" gradientUnits="userSpaceOnUse"><stop stop-color="#fff"/><stop offset="1" stop-color="#fff" stop-opacity="0"/></linearGradient><linearGradient id="prefix__paint16_linear_1205_1309" x1="831" y1="2" x2="-71" y2="500" gradientUnits="userSpaceOnUse"><stop stop-color="#fff"/><stop offset="1" stop-color="#fff" stop-opacity="0"/></linearGradient><linearGradient id="prefix__paint17_linear_1205_1309" x1="831" y1="2" x2="-71" y2="500" gradientUnits="userSpaceOnUse"><stop stop-color="#fff"/><stop offset="1" stop-color="#fff" stop-opacity="0"/></linearGradient><linearGradient id="prefix__paint18_linear_1205_1309" x1="831" y1="2" x2="-71" y2="500" gradientUnits="userSpaceOnUse"><stop stop-color="#fff"/><stop offset="1" stop-color="#fff" stop-opacity="0"/></linearGradient><linearGradient id="prefix__paint19_linear_1205_1309" x1="831" y1="2" x2="-71" y2="500" gradientUnits="userSpaceOnUse"><stop stop-color="#fff"/><stop offset="1" stop-color="#fff" stop-opacity="0"/></linearGradient><linearGradient id="prefix__paint20_linear_1205_1309" x1="831" y1="2" x2="-71" y2="500" gradientUnits="userSpaceOnUse"><stop stop-color="#fff"/><stop offset="1" stop-color="#fff" stop-opacity="0"/></linearGradient><linearGradient id="prefix__paint21_linear_1205_1309" x1="831" y1="2" x2="-71" y2="500" gradientUnits="userSpaceOnUse"><stop stop-color="#fff"/><stop offset="1" stop-color="#fff" stop-opacity="0"/></linearGradient><linearGradient id="prefix__paint22_linear_1205_1309" x1="831" y1="2" x2="-71" y2="500" gradientUnits="userSpaceOnUse"><stop stop-color="#fff"/><stop offset="1" stop-color="#fff" stop-opacity="0"/></linearGradient><linearGradient id="prefix__paint23_linear_1205_1309" x1="831" y1="2" x2="-71" y2="500" gradientUnits="userSpaceOnUse"><stop stop-color="#fff"/><stop offset="1" stop-color="#fff" stop-opacity="0"/></linearGradient></defs></svg>