<svg width="988" height="521" viewBox="0 0 988 521" fill="none" xmlns="http://www.w3.org/2000/svg">
<g opacity="0.1">
<mask id="path-1-outside-1_1205_1309" maskUnits="userSpaceOnUse" x="0" y="0" width="988" height="521" fill="black">
<rect fill="white" width="988" height="521"/>
<path d="M85.2694 141.673H24.4215V106.442H85.2694C93.6047 106.442 100.203 105.747 105.066 104.358C109.928 102.968 113.401 99.8409 115.485 94.9766C117.569 89.9734 118.611 82.2601 118.611 71.8367C118.611 61.2743 117.569 53.561 115.485 48.6968C113.401 43.8325 109.928 40.7055 105.066 39.3157C100.203 37.9259 93.6047 37.231 85.2694 37.231H24.4215V2H85.2694C100.69 2 114.026 4.77957 125.279 10.3387C136.532 15.7589 145.214 23.6806 151.327 34.104C157.439 44.5274 160.496 57.105 160.496 71.8367C160.496 86.5684 157.439 99.146 151.327 109.569C145.214 119.993 136.532 127.984 125.279 133.543C114.026 138.963 100.69 141.673 85.2694 141.673ZM53.8035 141.673H14.6275V2H53.8035V141.673Z"/>
<path d="M210.037 141.673H170.861V36.6056H210.037V141.673ZM210.037 27.0161H170.861V2H210.037V27.0161Z"/>
<path d="M284.648 179.198C272.423 179.198 262.004 177.53 253.391 174.194C244.777 170.859 238.179 165.995 233.594 159.602C229.01 153.209 226.717 145.426 226.717 136.253H265.893C265.893 139.033 266.241 141.187 266.935 142.716C267.769 144.383 269.644 145.495 272.562 146.051C275.618 146.607 280.55 146.885 287.357 146.885C293.053 146.885 297.359 146.399 300.277 145.426C303.333 144.592 305.417 142.716 306.528 139.797C307.64 136.879 308.195 132.501 308.195 126.664V62.4556H310.696V36.6056H347.371V123.954C347.371 136.462 344.94 146.746 340.078 154.807C335.216 163.007 328.131 169.122 318.823 173.152C309.515 177.182 298.123 179.198 284.648 179.198ZM269.228 129.999C258.808 129.999 249.987 128.123 242.763 124.371C235.539 120.479 229.982 114.99 226.092 107.902C222.341 100.675 220.466 92.0581 220.466 82.0516C220.466 72.1841 222.411 63.7065 226.301 56.6185C230.329 49.5306 236.095 44.1105 243.597 40.3581C251.098 36.4667 259.989 34.521 270.27 34.521C280.967 34.521 289.649 36.7446 296.317 41.1919C303.125 45.5003 307.223 52.1712 308.612 61.2048H315.072L312.155 81.8432H308.195C308.195 78.0907 307.292 75.2417 305.486 73.296C303.819 71.3503 301.18 70.03 297.568 69.3351C293.956 68.6402 289.232 68.2927 283.398 68.2927C277.285 68.2927 272.492 68.7792 269.019 69.752C265.685 70.5859 263.323 71.9757 261.934 73.9214C260.684 75.8671 260.059 78.5772 260.059 82.0516C260.059 85.5261 260.684 88.3056 261.934 90.3903C263.323 92.475 265.685 94.0038 269.019 94.9766C272.492 95.9495 277.285 96.4359 283.398 96.4359C292.15 96.4359 298.471 95.6715 302.361 94.1427C306.25 92.475 308.195 88.8616 308.195 83.3024H312.155V104.566H306.111C304.722 112.21 301.11 118.394 295.275 123.12C289.441 127.706 280.758 129.999 269.228 129.999Z"/>
<path d="M399.088 141.673H359.912V36.6056H399.088V141.673ZM399.088 27.0161H359.912V2H399.088V27.0161Z"/>
<path d="M490.161 141.673H462.654C449.596 141.673 439.315 138.407 431.814 131.875C424.451 125.343 420.769 115.267 420.769 101.648V18.469H459.945V96.019C459.945 100.188 460.709 102.968 462.238 104.358C463.905 105.747 466.961 106.442 471.406 106.442H490.161V141.673ZM490.161 68.7097H405.349V36.6056H490.161V68.7097Z"/>
<path d="M611.83 141.673H575.155V118.325H573.071V81.0093C573.071 75.7281 571.682 72.3926 568.904 71.0028C566.264 69.4741 561.471 68.7097 554.525 68.7097C548.135 68.7097 543.689 69.4741 541.189 71.0028C538.827 72.5316 537.646 75.5196 537.646 79.9669V80.8008H498.47V80.3839C498.47 71.0723 500.901 63.0116 505.763 56.2016C510.626 49.2527 517.502 43.902 526.393 40.1496C535.284 36.3972 545.634 34.521 557.442 34.521C569.668 34.521 579.809 36.4667 587.866 40.3581C595.924 44.1105 601.898 49.5306 605.787 56.6185C609.816 63.5675 611.83 71.9757 611.83 81.8432V141.673ZM533.478 143.758C521.67 143.758 512.501 141.187 505.972 136.045C499.581 130.903 496.386 123.884 496.386 114.99C496.386 109.986 497.567 105.539 499.929 101.648C502.29 97.7562 505.972 94.6292 510.973 92.2665C515.974 89.7649 522.434 88.0972 530.353 87.2633L575.155 82.8855V104.566L540.772 108.527C538.966 108.666 537.646 109.083 536.813 109.778C536.118 110.473 535.771 111.376 535.771 112.488C535.771 114.156 536.535 115.267 538.063 115.823C539.73 116.24 542.092 116.449 545.148 116.449C552.094 116.449 557.581 116.101 561.61 115.406C565.639 114.573 568.556 113.113 570.362 111.029C572.168 108.944 573.071 105.956 573.071 102.065L575.989 101.231V119.576H573.071C571.126 126.942 566.889 132.848 560.36 137.296C553.831 141.604 544.87 143.758 533.478 143.758Z"/>
<path d="M662.619 141.673H623.443V2H662.619V141.673Z"/>
<path d="M714.308 141.673H675.132V2H714.308V141.673Z"/>
<path d="M749.951 177.113H730.988V141.673H761.412C764.607 141.673 767.038 141.256 768.705 140.423C770.372 139.589 771.623 138.129 772.456 136.045L775.374 128.957L771.623 146.468L718.485 36.6056H763.079L781.208 77.8823L788.71 102.065H791.419L798.296 77.4653L813.924 36.6056H857.685L807.881 145.843C804.13 154.042 799.685 160.435 794.545 165.022C789.544 169.608 783.431 172.735 776.207 174.403C768.983 176.21 760.231 177.113 749.951 177.113Z"/>
<path d="M47.9688 329.294H4L64.2227 189.621H120.278L180.709 329.294H135.698L102.565 248.617L93.3963 225.06H90.6873L81.7269 248.617L47.9688 329.294ZM142.575 303.444H39.6335V268.213H142.575V303.444Z"/>
<path d="M232.622 331.379C221.925 331.379 212.826 329.225 205.324 324.917C197.961 320.469 192.335 314.146 188.445 305.946C184.694 297.746 182.819 288.018 182.819 276.76C182.819 265.364 184.694 255.636 188.445 247.575C192.196 239.375 197.614 233.121 204.699 228.813C211.923 224.366 220.675 222.142 230.955 222.142C243.319 222.142 252.627 224.852 258.878 230.272C265.13 235.553 269.02 242.572 270.548 251.327H276.591V275.51H272.632C272.632 268.144 270.478 263.349 266.172 261.125C262.004 258.902 255.544 257.79 246.792 257.79C240.819 257.79 236.026 258.415 232.414 259.666C228.802 260.917 226.232 262.932 224.704 265.712C223.176 268.352 222.411 272.035 222.411 276.76C222.411 281.347 223.176 285.03 224.704 287.809C226.232 290.589 228.802 292.604 232.414 293.855C236.026 294.967 240.819 295.523 246.792 295.523C252.627 295.523 257.42 295.036 261.171 294.063C265.061 293.09 267.908 291.284 269.714 288.643C271.659 285.864 272.632 281.972 272.632 276.969H276.591L279.508 300.943H273.049C271.381 311.366 267.283 319.079 260.754 324.083C254.364 328.947 244.986 331.379 232.622 331.379ZM311.808 329.294H275.132V299.692L272.632 296.982V189.621H311.808V329.294Z"/>
<path d="M372.019 331.379C361.322 331.379 352.223 329.225 344.721 324.917C337.358 320.469 331.732 314.146 327.842 305.946C324.091 297.746 322.216 288.018 322.216 276.76C322.216 265.364 324.091 255.636 327.842 247.575C331.593 239.375 337.011 233.121 344.096 228.813C351.32 224.366 360.072 222.142 370.352 222.142C382.716 222.142 392.024 224.852 398.275 230.272C404.527 235.553 408.417 242.572 409.945 251.327H415.988V275.51H412.029C412.029 268.144 409.875 263.349 405.569 261.125C401.401 258.902 394.941 257.79 386.189 257.79C380.215 257.79 375.423 258.415 371.811 259.666C368.199 260.917 365.629 262.932 364.1 265.712C362.572 268.352 361.808 272.035 361.808 276.76C361.808 281.347 362.572 285.03 364.1 287.809C365.629 290.589 368.199 292.604 371.811 293.855C375.423 294.967 380.215 295.523 386.189 295.523C392.024 295.523 396.817 295.036 400.568 294.063C404.457 293.09 407.305 291.284 409.111 288.643C411.056 285.864 412.029 281.972 412.029 276.969H415.988L418.905 300.943H412.445C410.778 311.366 406.68 319.079 400.151 324.083C393.76 328.947 384.383 331.379 372.019 331.379ZM451.205 329.294H414.529V299.692L412.029 296.982V189.621H451.205V329.294Z"/>
<path d="M502.872 329.294H463.696V224.227H502.872V329.294ZM502.872 214.637H463.696V189.621H502.872V214.637Z"/>
<path d="M574.357 331.379C561.993 331.379 551.227 329.225 542.058 324.917C532.889 320.469 525.804 314.146 520.803 305.946C515.802 297.746 513.301 288.018 513.301 276.76C513.301 265.364 515.802 255.636 520.803 247.575C525.804 239.375 532.889 233.121 542.058 228.813C551.227 224.366 561.993 222.142 574.357 222.142C586.305 222.142 596.654 224.088 605.406 227.979C614.297 231.731 621.105 237.082 625.828 244.031C630.69 250.98 633.121 259.18 633.121 268.63V271.966H594.154V270.298C594.154 264.878 592.278 261.334 588.527 259.666C584.915 257.998 579.914 257.165 573.524 257.165C566.3 257.165 560.951 258.415 557.478 260.917C554.005 263.28 552.269 268.561 552.269 276.76C552.269 284.821 554.005 290.102 557.478 292.604C560.951 294.967 566.3 296.148 573.524 296.148C579.914 296.148 584.915 295.384 588.527 293.855C592.278 292.187 594.154 288.643 594.154 283.223V281.347H633.121V284.891C633.121 294.202 630.69 302.333 625.828 309.281C621.105 316.23 614.297 321.651 605.406 325.542C596.654 329.433 586.305 331.379 574.357 331.379Z"/>
<path d="M722.15 329.294H694.643C681.584 329.294 671.304 326.028 663.802 319.496C656.44 312.964 652.758 302.888 652.758 289.269V206.09H691.934V283.64C691.934 287.809 692.698 290.589 694.226 291.979C695.893 293.368 698.95 294.063 703.395 294.063H722.15V329.294ZM722.15 256.331H637.338V224.227H722.15V256.331Z"/>
<path d="M790.057 331.379C778.248 331.379 767.76 329.572 758.591 325.959C749.422 322.345 742.267 316.508 737.127 308.448C731.987 300.387 729.417 289.824 729.417 276.76C729.417 265.364 731.987 255.636 737.127 247.575C742.267 239.375 749.283 233.121 758.174 228.813C767.204 224.366 777.554 222.142 789.223 222.142C801.309 222.142 811.798 224.157 820.689 228.188C829.58 232.079 836.456 237.916 841.319 245.699C846.181 253.343 848.612 262.793 848.612 274.05C848.612 275.857 848.543 277.525 848.404 279.054C848.404 280.443 848.265 282.111 847.987 284.057H755.048V264.252H819.647L811.103 276.552C811.103 275.301 811.103 274.12 811.103 273.008C811.103 271.757 811.103 270.506 811.103 269.256C811.103 262.863 809.436 258.415 806.102 255.914C802.907 253.412 797.003 252.161 788.389 252.161C779.498 252.161 773.455 253.551 770.26 256.331C767.204 259.11 765.676 264.113 765.676 271.34V281.347C765.676 288.713 767.273 293.716 770.469 296.356C773.664 298.997 779.707 300.317 788.598 300.317C796.516 300.317 801.795 299.622 804.435 298.233C807.213 296.704 808.603 294.411 808.603 291.353V289.06H847.779V291.562C847.779 299.344 845.417 306.224 840.694 312.2C835.97 318.176 829.302 322.901 820.689 326.376C812.076 329.711 801.865 331.379 790.057 331.379Z"/>
<path d="M906.815 331.379C896.117 331.379 887.018 329.225 879.516 324.917C872.153 320.469 866.527 314.146 862.637 305.946C858.886 297.746 857.011 288.018 857.011 276.76C857.011 265.364 858.886 255.636 862.637 247.575C866.388 239.375 871.806 233.121 878.891 228.813C886.115 224.366 894.867 222.142 905.147 222.142C917.512 222.142 926.819 224.852 933.071 230.272C939.322 235.553 943.212 242.572 944.74 251.327H950.783V275.51H946.824C946.824 268.144 944.671 263.349 940.364 261.125C936.197 258.902 929.737 257.79 920.985 257.79C915.011 257.79 910.218 258.415 906.606 259.666C902.994 260.917 900.424 262.932 898.896 265.712C897.368 268.352 896.604 272.035 896.604 276.76C896.604 281.347 897.368 285.03 898.896 287.809C900.424 290.589 902.994 292.604 906.606 293.855C910.218 294.967 915.011 295.523 920.985 295.523C926.819 295.523 931.612 295.036 935.363 294.063C939.253 293.09 942.101 291.284 943.907 288.643C945.852 285.864 946.824 281.972 946.824 276.969H950.783L953.701 300.943H947.241C945.574 311.366 941.476 319.079 934.946 324.083C928.556 328.947 919.179 331.379 906.815 331.379ZM986 329.294H949.325V299.692L946.824 296.982V189.621H986V329.294Z"/>
<path d="M87.3532 519C71.2383 519 57.4155 516.081 45.885 510.244C34.3545 504.268 25.5329 495.93 19.4203 485.228C13.3078 474.388 10.2515 461.671 10.2515 447.079C10.2515 432.486 13.3078 419.839 19.4203 409.138C25.5329 398.297 34.3545 389.958 45.885 384.121C57.4155 378.145 71.2383 375.157 87.3532 375.157C103.051 375.157 116.457 377.52 127.571 382.245C138.824 386.97 147.437 393.78 153.411 402.675C159.384 411.57 162.371 422.271 162.371 434.779V438.323H118.611V434.779C118.611 426.857 116.388 421.229 111.942 417.893C107.497 414.419 99.5089 412.681 87.9784 412.681C78.5317 412.681 71.1688 413.654 65.8898 415.6C60.7496 417.407 57.1377 420.812 55.0538 425.815C52.97 430.679 51.9281 437.767 51.9281 447.079C51.9281 456.251 52.97 463.339 55.0538 468.342C57.1377 473.346 60.7496 476.82 65.8898 478.766C71.1688 480.572 78.5317 481.476 87.9784 481.476C99.5089 481.476 107.497 479.808 111.942 476.473C116.388 472.998 118.611 467.3 118.611 459.378V455.834H162.371V459.378C162.371 471.747 159.384 482.449 153.411 491.482C147.437 500.377 138.824 507.187 127.571 511.912C116.457 516.637 103.051 519 87.3532 519Z"/>
<path d="M211.869 516.915H172.693V411.848H209.368V441.867L211.869 442.909V516.915ZM211.869 454.167H204.575V439.365H211.452C212.424 433.528 214.3 428.386 217.078 423.939C219.857 419.491 223.607 416.017 228.331 413.515C233.193 411.014 239.097 409.763 246.043 409.763C253.823 409.763 260.075 411.361 264.798 414.558C269.521 417.615 272.925 421.854 275.009 427.274C277.231 432.694 278.343 438.948 278.343 446.036V466.883H239.167V454.583C239.167 450.136 238.194 447.079 236.249 445.411C234.304 443.604 230.762 442.701 225.622 442.701C220.343 442.701 216.731 443.604 214.786 445.411C212.841 447.079 211.869 449.997 211.869 454.167Z"/>
<path d="M345.208 519C333.399 519 322.911 517.193 313.742 513.58C304.573 509.966 297.418 504.129 292.278 496.069C287.138 488.008 284.568 477.445 284.568 464.381C284.568 452.985 287.138 443.257 292.278 435.196C297.418 426.996 304.434 420.742 313.325 416.434C322.355 411.987 332.705 409.763 344.374 409.763C356.46 409.763 366.949 411.778 375.84 415.808C384.731 419.7 391.608 425.537 396.47 433.32C401.332 440.964 403.763 450.414 403.763 461.671C403.763 463.478 403.694 465.146 403.555 466.675C403.555 468.064 403.416 469.732 403.138 471.678H310.199V451.873H374.798L366.254 464.173C366.254 462.922 366.254 461.741 366.254 460.629C366.254 459.378 366.254 458.127 366.254 456.877C366.254 450.484 364.587 446.036 361.253 443.535C358.058 441.033 352.154 439.782 343.541 439.782C334.65 439.782 328.606 441.172 325.411 443.952C322.355 446.731 320.827 451.734 320.827 458.961V468.968C320.827 476.334 322.424 481.337 325.62 483.977C328.815 486.618 334.858 487.938 343.749 487.938C351.668 487.938 356.947 487.243 359.586 485.854C362.365 484.325 363.754 482.032 363.754 478.974V476.681H402.93V479.183C402.93 486.965 400.568 493.845 395.845 499.821C391.121 505.797 384.453 510.522 375.84 513.997C367.227 517.332 357.016 519 345.208 519Z"/>
<path d="M526.564 516.915H489.889V493.567H487.805V456.251C487.805 450.97 486.416 447.635 483.637 446.245C480.998 444.716 476.205 443.952 469.259 443.952C462.869 443.952 458.423 444.716 455.923 446.245C453.561 447.773 452.38 450.762 452.38 455.209V456.043H413.204V455.626C413.204 446.314 415.635 438.254 420.497 431.444C425.36 424.495 432.236 419.144 441.127 415.392C450.018 411.639 460.368 409.763 472.176 409.763C484.402 409.763 494.543 411.709 502.6 415.6C510.658 419.352 516.631 424.773 520.521 431.86C524.55 438.809 526.564 447.218 526.564 457.085V516.915ZM448.212 519C436.404 519 427.235 516.429 420.706 511.287C414.315 506.145 411.12 499.126 411.12 490.231C411.12 485.228 412.301 480.781 414.663 476.89C417.024 472.998 420.706 469.871 425.707 467.508C430.708 465.007 437.168 463.339 445.087 462.505L489.889 458.127V479.808L455.506 483.769C453.7 483.908 452.38 484.325 451.546 485.02C450.852 485.715 450.505 486.618 450.505 487.73C450.505 489.398 451.269 490.509 452.797 491.065C454.464 491.482 456.826 491.691 459.882 491.691C466.828 491.691 472.315 491.343 476.344 490.648C480.373 489.815 483.29 488.355 485.096 486.271C486.902 484.186 487.805 481.198 487.805 477.306L490.722 476.473V494.818H487.805C485.86 502.184 481.623 508.09 475.094 512.538C468.564 516.846 459.604 519 448.212 519Z"/>
<path d="M616.737 516.915H589.231C576.172 516.915 565.892 513.649 558.39 507.117C551.027 500.585 547.346 490.509 547.346 476.89V393.711H586.522V471.261C586.522 475.43 587.286 478.21 588.814 479.6C590.481 480.989 593.537 481.684 597.983 481.684H616.737V516.915ZM616.737 443.952H531.925V411.848H616.737V443.952Z"/>
<path d="M684.227 519C672.141 519 661.444 516.846 652.136 512.538C642.967 508.09 635.813 501.767 630.673 493.567C625.533 485.367 622.963 475.639 622.963 464.381C622.963 452.985 625.533 443.257 630.673 435.196C635.813 426.996 642.967 420.742 652.136 416.434C661.444 411.987 672.141 409.763 684.227 409.763C696.452 409.763 707.149 411.987 716.318 416.434C725.487 420.742 732.642 426.996 737.782 435.196C742.922 443.257 745.492 452.985 745.492 464.381C745.492 475.639 742.922 485.367 737.782 493.567C732.642 501.767 725.487 508.09 716.318 512.538C707.149 516.846 696.452 519 684.227 519ZM684.227 484.394C693.118 484.394 699.092 483.005 702.148 480.225C705.204 477.306 706.733 472.025 706.733 464.381C706.733 456.738 705.204 451.456 702.148 448.538C699.092 445.619 693.118 444.16 684.227 444.16C675.336 444.16 669.363 445.619 666.306 448.538C663.25 451.456 661.722 456.738 661.722 464.381C661.722 472.025 663.25 477.306 666.306 480.225C669.363 483.005 675.336 484.394 684.227 484.394Z"/>
<path d="M794.079 516.915H754.903V411.848H791.579V441.867L794.079 442.909V516.915ZM794.079 454.167H786.786V439.365H793.663C794.635 433.528 796.51 428.386 799.289 423.939C802.067 419.491 805.818 416.017 810.542 413.515C815.404 411.014 821.308 409.763 828.254 409.763C836.034 409.763 842.285 411.361 847.009 414.558C851.732 417.615 855.136 421.854 857.219 427.274C859.442 432.694 860.554 438.948 860.554 446.036V466.883H821.377V454.583C821.377 450.136 820.405 447.079 818.46 445.411C816.515 443.604 812.973 442.701 807.833 442.701C802.554 442.701 798.942 443.604 796.997 445.411C795.052 447.079 794.079 449.997 794.079 454.167Z"/>
</mask>
<path d="M85.2694 141.673H24.4215V106.442H85.2694C93.6047 106.442 100.203 105.747 105.066 104.358C109.928 102.968 113.401 99.8409 115.485 94.9766C117.569 89.9734 118.611 82.2601 118.611 71.8367C118.611 61.2743 117.569 53.561 115.485 48.6968C113.401 43.8325 109.928 40.7055 105.066 39.3157C100.203 37.9259 93.6047 37.231 85.2694 37.231H24.4215V2H85.2694C100.69 2 114.026 4.77957 125.279 10.3387C136.532 15.7589 145.214 23.6806 151.327 34.104C157.439 44.5274 160.496 57.105 160.496 71.8367C160.496 86.5684 157.439 99.146 151.327 109.569C145.214 119.993 136.532 127.984 125.279 133.543C114.026 138.963 100.69 141.673 85.2694 141.673ZM53.8035 141.673H14.6275V2H53.8035V141.673Z" stroke="url(#paint0_linear_1205_1309)" stroke-width="4" mask="url(#path-1-outside-1_1205_1309)"/>
<path d="M210.037 141.673H170.861V36.6056H210.037V141.673ZM210.037 27.0161H170.861V2H210.037V27.0161Z" stroke="url(#paint1_linear_1205_1309)" stroke-width="4" mask="url(#path-1-outside-1_1205_1309)"/>
<path d="M284.648 179.198C272.423 179.198 262.004 177.53 253.391 174.194C244.777 170.859 238.179 165.995 233.594 159.602C229.01 153.209 226.717 145.426 226.717 136.253H265.893C265.893 139.033 266.241 141.187 266.935 142.716C267.769 144.383 269.644 145.495 272.562 146.051C275.618 146.607 280.55 146.885 287.357 146.885C293.053 146.885 297.359 146.399 300.277 145.426C303.333 144.592 305.417 142.716 306.528 139.797C307.64 136.879 308.195 132.501 308.195 126.664V62.4556H310.696V36.6056H347.371V123.954C347.371 136.462 344.94 146.746 340.078 154.807C335.216 163.007 328.131 169.122 318.823 173.152C309.515 177.182 298.123 179.198 284.648 179.198ZM269.228 129.999C258.808 129.999 249.987 128.123 242.763 124.371C235.539 120.479 229.982 114.99 226.092 107.902C222.341 100.675 220.466 92.0581 220.466 82.0516C220.466 72.1841 222.411 63.7065 226.301 56.6185C230.329 49.5306 236.095 44.1105 243.597 40.3581C251.098 36.4667 259.989 34.521 270.27 34.521C280.967 34.521 289.649 36.7446 296.317 41.1919C303.125 45.5003 307.223 52.1712 308.612 61.2048H315.072L312.155 81.8432H308.195C308.195 78.0907 307.292 75.2417 305.486 73.296C303.819 71.3503 301.18 70.03 297.568 69.3351C293.956 68.6402 289.232 68.2927 283.398 68.2927C277.285 68.2927 272.492 68.7792 269.019 69.752C265.685 70.5859 263.323 71.9757 261.934 73.9214C260.684 75.8671 260.059 78.5772 260.059 82.0516C260.059 85.5261 260.684 88.3056 261.934 90.3903C263.323 92.475 265.685 94.0038 269.019 94.9766C272.492 95.9495 277.285 96.4359 283.398 96.4359C292.15 96.4359 298.471 95.6715 302.361 94.1427C306.25 92.475 308.195 88.8616 308.195 83.3024H312.155V104.566H306.111C304.722 112.21 301.11 118.394 295.275 123.12C289.441 127.706 280.758 129.999 269.228 129.999Z" stroke="url(#paint2_linear_1205_1309)" stroke-width="4" mask="url(#path-1-outside-1_1205_1309)"/>
<path d="M399.088 141.673H359.912V36.6056H399.088V141.673ZM399.088 27.0161H359.912V2H399.088V27.0161Z" stroke="url(#paint3_linear_1205_1309)" stroke-width="4" mask="url(#path-1-outside-1_1205_1309)"/>
<path d="M490.161 141.673H462.654C449.596 141.673 439.315 138.407 431.814 131.875C424.451 125.343 420.769 115.267 420.769 101.648V18.469H459.945V96.019C459.945 100.188 460.709 102.968 462.238 104.358C463.905 105.747 466.961 106.442 471.406 106.442H490.161V141.673ZM490.161 68.7097H405.349V36.6056H490.161V68.7097Z" stroke="url(#paint4_linear_1205_1309)" stroke-width="4" mask="url(#path-1-outside-1_1205_1309)"/>
<path d="M611.83 141.673H575.155V118.325H573.071V81.0093C573.071 75.7281 571.682 72.3926 568.904 71.0028C566.264 69.4741 561.471 68.7097 554.525 68.7097C548.135 68.7097 543.689 69.4741 541.189 71.0028C538.827 72.5316 537.646 75.5196 537.646 79.9669V80.8008H498.47V80.3839C498.47 71.0723 500.901 63.0116 505.763 56.2016C510.626 49.2527 517.502 43.902 526.393 40.1496C535.284 36.3972 545.634 34.521 557.442 34.521C569.668 34.521 579.809 36.4667 587.866 40.3581C595.924 44.1105 601.898 49.5306 605.787 56.6185C609.816 63.5675 611.83 71.9757 611.83 81.8432V141.673ZM533.478 143.758C521.67 143.758 512.501 141.187 505.972 136.045C499.581 130.903 496.386 123.884 496.386 114.99C496.386 109.986 497.567 105.539 499.929 101.648C502.29 97.7562 505.972 94.6292 510.973 92.2665C515.974 89.7649 522.434 88.0972 530.353 87.2633L575.155 82.8855V104.566L540.772 108.527C538.966 108.666 537.646 109.083 536.813 109.778C536.118 110.473 535.771 111.376 535.771 112.488C535.771 114.156 536.535 115.267 538.063 115.823C539.73 116.24 542.092 116.449 545.148 116.449C552.094 116.449 557.581 116.101 561.61 115.406C565.639 114.573 568.556 113.113 570.362 111.029C572.168 108.944 573.071 105.956 573.071 102.065L575.989 101.231V119.576H573.071C571.126 126.942 566.889 132.848 560.36 137.296C553.831 141.604 544.87 143.758 533.478 143.758Z" stroke="url(#paint5_linear_1205_1309)" stroke-width="4" mask="url(#path-1-outside-1_1205_1309)"/>
<path d="M662.619 141.673H623.443V2H662.619V141.673Z" stroke="url(#paint6_linear_1205_1309)" stroke-width="4" mask="url(#path-1-outside-1_1205_1309)"/>
<path d="M714.308 141.673H675.132V2H714.308V141.673Z" stroke="url(#paint7_linear_1205_1309)" stroke-width="4" mask="url(#path-1-outside-1_1205_1309)"/>
<path d="M749.951 177.113H730.988V141.673H761.412C764.607 141.673 767.038 141.256 768.705 140.423C770.372 139.589 771.623 138.129 772.456 136.045L775.374 128.957L771.623 146.468L718.485 36.6056H763.079L781.208 77.8823L788.71 102.065H791.419L798.296 77.4653L813.924 36.6056H857.685L807.881 145.843C804.13 154.042 799.685 160.435 794.545 165.022C789.544 169.608 783.431 172.735 776.207 174.403C768.983 176.21 760.231 177.113 749.951 177.113Z" stroke="url(#paint8_linear_1205_1309)" stroke-width="4" mask="url(#path-1-outside-1_1205_1309)"/>
<path d="M47.9688 329.294H4L64.2227 189.621H120.278L180.709 329.294H135.698L102.565 248.617L93.3963 225.06H90.6873L81.7269 248.617L47.9688 329.294ZM142.575 303.444H39.6335V268.213H142.575V303.444Z" stroke="url(#paint9_linear_1205_1309)" stroke-width="4" mask="url(#path-1-outside-1_1205_1309)"/>
<path d="M232.622 331.379C221.925 331.379 212.826 329.225 205.324 324.917C197.961 320.469 192.335 314.146 188.445 305.946C184.694 297.746 182.819 288.018 182.819 276.76C182.819 265.364 184.694 255.636 188.445 247.575C192.196 239.375 197.614 233.121 204.699 228.813C211.923 224.366 220.675 222.142 230.955 222.142C243.319 222.142 252.627 224.852 258.878 230.272C265.13 235.553 269.02 242.572 270.548 251.327H276.591V275.51H272.632C272.632 268.144 270.478 263.349 266.172 261.125C262.004 258.902 255.544 257.79 246.792 257.79C240.819 257.79 236.026 258.415 232.414 259.666C228.802 260.917 226.232 262.932 224.704 265.712C223.176 268.352 222.411 272.035 222.411 276.76C222.411 281.347 223.176 285.03 224.704 287.809C226.232 290.589 228.802 292.604 232.414 293.855C236.026 294.967 240.819 295.523 246.792 295.523C252.627 295.523 257.42 295.036 261.171 294.063C265.061 293.09 267.908 291.284 269.714 288.643C271.659 285.864 272.632 281.972 272.632 276.969H276.591L279.508 300.943H273.049C271.381 311.366 267.283 319.079 260.754 324.083C254.364 328.947 244.986 331.379 232.622 331.379ZM311.808 329.294H275.132V299.692L272.632 296.982V189.621H311.808V329.294Z" stroke="url(#paint10_linear_1205_1309)" stroke-width="4" mask="url(#path-1-outside-1_1205_1309)"/>
<path d="M372.019 331.379C361.322 331.379 352.223 329.225 344.721 324.917C337.358 320.469 331.732 314.146 327.842 305.946C324.091 297.746 322.216 288.018 322.216 276.76C322.216 265.364 324.091 255.636 327.842 247.575C331.593 239.375 337.011 233.121 344.096 228.813C351.32 224.366 360.072 222.142 370.352 222.142C382.716 222.142 392.024 224.852 398.275 230.272C404.527 235.553 408.417 242.572 409.945 251.327H415.988V275.51H412.029C412.029 268.144 409.875 263.349 405.569 261.125C401.401 258.902 394.941 257.79 386.189 257.79C380.215 257.79 375.423 258.415 371.811 259.666C368.199 260.917 365.629 262.932 364.1 265.712C362.572 268.352 361.808 272.035 361.808 276.76C361.808 281.347 362.572 285.03 364.1 287.809C365.629 290.589 368.199 292.604 371.811 293.855C375.423 294.967 380.215 295.523 386.189 295.523C392.024 295.523 396.817 295.036 400.568 294.063C404.457 293.09 407.305 291.284 409.111 288.643C411.056 285.864 412.029 281.972 412.029 276.969H415.988L418.905 300.943H412.445C410.778 311.366 406.68 319.079 400.151 324.083C393.76 328.947 384.383 331.379 372.019 331.379ZM451.205 329.294H414.529V299.692L412.029 296.982V189.621H451.205V329.294Z" stroke="url(#paint11_linear_1205_1309)" stroke-width="4" mask="url(#path-1-outside-1_1205_1309)"/>
<path d="M502.872 329.294H463.696V224.227H502.872V329.294ZM502.872 214.637H463.696V189.621H502.872V214.637Z" stroke="url(#paint12_linear_1205_1309)" stroke-width="4" mask="url(#path-1-outside-1_1205_1309)"/>
<path d="M574.357 331.379C561.993 331.379 551.227 329.225 542.058 324.917C532.889 320.469 525.804 314.146 520.803 305.946C515.802 297.746 513.301 288.018 513.301 276.76C513.301 265.364 515.802 255.636 520.803 247.575C525.804 239.375 532.889 233.121 542.058 228.813C551.227 224.366 561.993 222.142 574.357 222.142C586.305 222.142 596.654 224.088 605.406 227.979C614.297 231.731 621.105 237.082 625.828 244.031C630.69 250.98 633.121 259.18 633.121 268.63V271.966H594.154V270.298C594.154 264.878 592.278 261.334 588.527 259.666C584.915 257.998 579.914 257.165 573.524 257.165C566.3 257.165 560.951 258.415 557.478 260.917C554.005 263.28 552.269 268.561 552.269 276.76C552.269 284.821 554.005 290.102 557.478 292.604C560.951 294.967 566.3 296.148 573.524 296.148C579.914 296.148 584.915 295.384 588.527 293.855C592.278 292.187 594.154 288.643 594.154 283.223V281.347H633.121V284.891C633.121 294.202 630.69 302.333 625.828 309.281C621.105 316.23 614.297 321.651 605.406 325.542C596.654 329.433 586.305 331.379 574.357 331.379Z" stroke="url(#paint13_linear_1205_1309)" stroke-width="4" mask="url(#path-1-outside-1_1205_1309)"/>
<path d="M722.15 329.294H694.643C681.584 329.294 671.304 326.028 663.802 319.496C656.44 312.964 652.758 302.888 652.758 289.269V206.09H691.934V283.64C691.934 287.809 692.698 290.589 694.226 291.979C695.893 293.368 698.95 294.063 703.395 294.063H722.15V329.294ZM722.15 256.331H637.338V224.227H722.15V256.331Z" stroke="url(#paint14_linear_1205_1309)" stroke-width="4" mask="url(#path-1-outside-1_1205_1309)"/>
<path d="M790.057 331.379C778.248 331.379 767.76 329.572 758.591 325.959C749.422 322.345 742.267 316.508 737.127 308.448C731.987 300.387 729.417 289.824 729.417 276.76C729.417 265.364 731.987 255.636 737.127 247.575C742.267 239.375 749.283 233.121 758.174 228.813C767.204 224.366 777.554 222.142 789.223 222.142C801.309 222.142 811.798 224.157 820.689 228.188C829.58 232.079 836.456 237.916 841.319 245.699C846.181 253.343 848.612 262.793 848.612 274.05C848.612 275.857 848.543 277.525 848.404 279.054C848.404 280.443 848.265 282.111 847.987 284.057H755.048V264.252H819.647L811.103 276.552C811.103 275.301 811.103 274.12 811.103 273.008C811.103 271.757 811.103 270.506 811.103 269.256C811.103 262.863 809.436 258.415 806.102 255.914C802.907 253.412 797.003 252.161 788.389 252.161C779.498 252.161 773.455 253.551 770.26 256.331C767.204 259.11 765.676 264.113 765.676 271.34V281.347C765.676 288.713 767.273 293.716 770.469 296.356C773.664 298.997 779.707 300.317 788.598 300.317C796.516 300.317 801.795 299.622 804.435 298.233C807.213 296.704 808.603 294.411 808.603 291.353V289.06H847.779V291.562C847.779 299.344 845.417 306.224 840.694 312.2C835.97 318.176 829.302 322.901 820.689 326.376C812.076 329.711 801.865 331.379 790.057 331.379Z" stroke="url(#paint15_linear_1205_1309)" stroke-width="4" mask="url(#path-1-outside-1_1205_1309)"/>
<path d="M906.815 331.379C896.117 331.379 887.018 329.225 879.516 324.917C872.153 320.469 866.527 314.146 862.637 305.946C858.886 297.746 857.011 288.018 857.011 276.76C857.011 265.364 858.886 255.636 862.637 247.575C866.388 239.375 871.806 233.121 878.891 228.813C886.115 224.366 894.867 222.142 905.147 222.142C917.512 222.142 926.819 224.852 933.071 230.272C939.322 235.553 943.212 242.572 944.74 251.327H950.783V275.51H946.824C946.824 268.144 944.671 263.349 940.364 261.125C936.197 258.902 929.737 257.79 920.985 257.79C915.011 257.79 910.218 258.415 906.606 259.666C902.994 260.917 900.424 262.932 898.896 265.712C897.368 268.352 896.604 272.035 896.604 276.76C896.604 281.347 897.368 285.03 898.896 287.809C900.424 290.589 902.994 292.604 906.606 293.855C910.218 294.967 915.011 295.523 920.985 295.523C926.819 295.523 931.612 295.036 935.363 294.063C939.253 293.09 942.101 291.284 943.907 288.643C945.852 285.864 946.824 281.972 946.824 276.969H950.783L953.701 300.943H947.241C945.574 311.366 941.476 319.079 934.946 324.083C928.556 328.947 919.179 331.379 906.815 331.379ZM986 329.294H949.325V299.692L946.824 296.982V189.621H986V329.294Z" stroke="url(#paint16_linear_1205_1309)" stroke-width="4" mask="url(#path-1-outside-1_1205_1309)"/>
<path d="M87.3532 519C71.2383 519 57.4155 516.081 45.885 510.244C34.3545 504.268 25.5329 495.93 19.4203 485.228C13.3078 474.388 10.2515 461.671 10.2515 447.079C10.2515 432.486 13.3078 419.839 19.4203 409.138C25.5329 398.297 34.3545 389.958 45.885 384.121C57.4155 378.145 71.2383 375.157 87.3532 375.157C103.051 375.157 116.457 377.52 127.571 382.245C138.824 386.97 147.437 393.78 153.411 402.675C159.384 411.57 162.371 422.271 162.371 434.779V438.323H118.611V434.779C118.611 426.857 116.388 421.229 111.942 417.893C107.497 414.419 99.5089 412.681 87.9784 412.681C78.5317 412.681 71.1688 413.654 65.8898 415.6C60.7496 417.407 57.1377 420.812 55.0538 425.815C52.97 430.679 51.9281 437.767 51.9281 447.079C51.9281 456.251 52.97 463.339 55.0538 468.342C57.1377 473.346 60.7496 476.82 65.8898 478.766C71.1688 480.572 78.5317 481.476 87.9784 481.476C99.5089 481.476 107.497 479.808 111.942 476.473C116.388 472.998 118.611 467.3 118.611 459.378V455.834H162.371V459.378C162.371 471.747 159.384 482.449 153.411 491.482C147.437 500.377 138.824 507.187 127.571 511.912C116.457 516.637 103.051 519 87.3532 519Z" stroke="url(#paint17_linear_1205_1309)" stroke-width="4" mask="url(#path-1-outside-1_1205_1309)"/>
<path d="M211.869 516.915H172.693V411.848H209.368V441.867L211.869 442.909V516.915ZM211.869 454.167H204.575V439.365H211.452C212.424 433.528 214.3 428.386 217.078 423.939C219.857 419.491 223.607 416.017 228.331 413.515C233.193 411.014 239.097 409.763 246.043 409.763C253.823 409.763 260.075 411.361 264.798 414.558C269.521 417.615 272.925 421.854 275.009 427.274C277.231 432.694 278.343 438.948 278.343 446.036V466.883H239.167V454.583C239.167 450.136 238.194 447.079 236.249 445.411C234.304 443.604 230.762 442.701 225.622 442.701C220.343 442.701 216.731 443.604 214.786 445.411C212.841 447.079 211.869 449.997 211.869 454.167Z" stroke="url(#paint18_linear_1205_1309)" stroke-width="4" mask="url(#path-1-outside-1_1205_1309)"/>
<path d="M345.208 519C333.399 519 322.911 517.193 313.742 513.58C304.573 509.966 297.418 504.129 292.278 496.069C287.138 488.008 284.568 477.445 284.568 464.381C284.568 452.985 287.138 443.257 292.278 435.196C297.418 426.996 304.434 420.742 313.325 416.434C322.355 411.987 332.705 409.763 344.374 409.763C356.46 409.763 366.949 411.778 375.84 415.808C384.731 419.7 391.608 425.537 396.47 433.32C401.332 440.964 403.763 450.414 403.763 461.671C403.763 463.478 403.694 465.146 403.555 466.675C403.555 468.064 403.416 469.732 403.138 471.678H310.199V451.873H374.798L366.254 464.173C366.254 462.922 366.254 461.741 366.254 460.629C366.254 459.378 366.254 458.127 366.254 456.877C366.254 450.484 364.587 446.036 361.253 443.535C358.058 441.033 352.154 439.782 343.541 439.782C334.65 439.782 328.606 441.172 325.411 443.952C322.355 446.731 320.827 451.734 320.827 458.961V468.968C320.827 476.334 322.424 481.337 325.62 483.977C328.815 486.618 334.858 487.938 343.749 487.938C351.668 487.938 356.947 487.243 359.586 485.854C362.365 484.325 363.754 482.032 363.754 478.974V476.681H402.93V479.183C402.93 486.965 400.568 493.845 395.845 499.821C391.121 505.797 384.453 510.522 375.84 513.997C367.227 517.332 357.016 519 345.208 519Z" stroke="url(#paint19_linear_1205_1309)" stroke-width="4" mask="url(#path-1-outside-1_1205_1309)"/>
<path d="M526.564 516.915H489.889V493.567H487.805V456.251C487.805 450.97 486.416 447.635 483.637 446.245C480.998 444.716 476.205 443.952 469.259 443.952C462.869 443.952 458.423 444.716 455.923 446.245C453.561 447.773 452.38 450.762 452.38 455.209V456.043H413.204V455.626C413.204 446.314 415.635 438.254 420.497 431.444C425.36 424.495 432.236 419.144 441.127 415.392C450.018 411.639 460.368 409.763 472.176 409.763C484.402 409.763 494.543 411.709 502.6 415.6C510.658 419.352 516.631 424.773 520.521 431.86C524.55 438.809 526.564 447.218 526.564 457.085V516.915ZM448.212 519C436.404 519 427.235 516.429 420.706 511.287C414.315 506.145 411.12 499.126 411.12 490.231C411.12 485.228 412.301 480.781 414.663 476.89C417.024 472.998 420.706 469.871 425.707 467.508C430.708 465.007 437.168 463.339 445.087 462.505L489.889 458.127V479.808L455.506 483.769C453.7 483.908 452.38 484.325 451.546 485.02C450.852 485.715 450.505 486.618 450.505 487.73C450.505 489.398 451.269 490.509 452.797 491.065C454.464 491.482 456.826 491.691 459.882 491.691C466.828 491.691 472.315 491.343 476.344 490.648C480.373 489.815 483.29 488.355 485.096 486.271C486.902 484.186 487.805 481.198 487.805 477.306L490.722 476.473V494.818H487.805C485.86 502.184 481.623 508.09 475.094 512.538C468.564 516.846 459.604 519 448.212 519Z" stroke="url(#paint20_linear_1205_1309)" stroke-width="4" mask="url(#path-1-outside-1_1205_1309)"/>
<path d="M616.737 516.915H589.231C576.172 516.915 565.892 513.649 558.39 507.117C551.027 500.585 547.346 490.509 547.346 476.89V393.711H586.522V471.261C586.522 475.43 587.286 478.21 588.814 479.6C590.481 480.989 593.537 481.684 597.983 481.684H616.737V516.915ZM616.737 443.952H531.925V411.848H616.737V443.952Z" stroke="url(#paint21_linear_1205_1309)" stroke-width="4" mask="url(#path-1-outside-1_1205_1309)"/>
<path d="M684.227 519C672.141 519 661.444 516.846 652.136 512.538C642.967 508.09 635.813 501.767 630.673 493.567C625.533 485.367 622.963 475.639 622.963 464.381C622.963 452.985 625.533 443.257 630.673 435.196C635.813 426.996 642.967 420.742 652.136 416.434C661.444 411.987 672.141 409.763 684.227 409.763C696.452 409.763 707.149 411.987 716.318 416.434C725.487 420.742 732.642 426.996 737.782 435.196C742.922 443.257 745.492 452.985 745.492 464.381C745.492 475.639 742.922 485.367 737.782 493.567C732.642 501.767 725.487 508.09 716.318 512.538C707.149 516.846 696.452 519 684.227 519ZM684.227 484.394C693.118 484.394 699.092 483.005 702.148 480.225C705.204 477.306 706.733 472.025 706.733 464.381C706.733 456.738 705.204 451.456 702.148 448.538C699.092 445.619 693.118 444.16 684.227 444.16C675.336 444.16 669.363 445.619 666.306 448.538C663.25 451.456 661.722 456.738 661.722 464.381C661.722 472.025 663.25 477.306 666.306 480.225C669.363 483.005 675.336 484.394 684.227 484.394Z" stroke="url(#paint22_linear_1205_1309)" stroke-width="4" mask="url(#path-1-outside-1_1205_1309)"/>
<path d="M794.079 516.915H754.903V411.848H791.579V441.867L794.079 442.909V516.915ZM794.079 454.167H786.786V439.365H793.663C794.635 433.528 796.51 428.386 799.289 423.939C802.067 419.491 805.818 416.017 810.542 413.515C815.404 411.014 821.308 409.763 828.254 409.763C836.034 409.763 842.285 411.361 847.009 414.558C851.732 417.615 855.136 421.854 857.219 427.274C859.442 432.694 860.554 438.948 860.554 446.036V466.883H821.377V454.583C821.377 450.136 820.405 447.079 818.46 445.411C816.515 443.604 812.973 442.701 807.833 442.701C802.554 442.701 798.942 443.604 796.997 445.411C795.052 447.079 794.079 449.997 794.079 454.167Z" stroke="url(#paint23_linear_1205_1309)" stroke-width="4" mask="url(#path-1-outside-1_1205_1309)"/>
</g>
<defs>
<linearGradient id="paint0_linear_1205_1309" x1="831" y1="1.99992" x2="-71" y2="500" gradientUnits="userSpaceOnUse">
<stop stop-color="white"/>
<stop offset="1" stop-color="white" stop-opacity="0"/>
</linearGradient>
<linearGradient id="paint1_linear_1205_1309" x1="831" y1="1.99992" x2="-71" y2="500" gradientUnits="userSpaceOnUse">
<stop stop-color="white"/>
<stop offset="1" stop-color="white" stop-opacity="0"/>
</linearGradient>
<linearGradient id="paint2_linear_1205_1309" x1="831" y1="1.99992" x2="-71" y2="500" gradientUnits="userSpaceOnUse">
<stop stop-color="white"/>
<stop offset="1" stop-color="white" stop-opacity="0"/>
</linearGradient>
<linearGradient id="paint3_linear_1205_1309" x1="831" y1="1.99992" x2="-71" y2="500" gradientUnits="userSpaceOnUse">
<stop stop-color="white"/>
<stop offset="1" stop-color="white" stop-opacity="0"/>
</linearGradient>
<linearGradient id="paint4_linear_1205_1309" x1="831" y1="1.99992" x2="-71" y2="500" gradientUnits="userSpaceOnUse">
<stop stop-color="white"/>
<stop offset="1" stop-color="white" stop-opacity="0"/>
</linearGradient>
<linearGradient id="paint5_linear_1205_1309" x1="831" y1="1.99992" x2="-71" y2="500" gradientUnits="userSpaceOnUse">
<stop stop-color="white"/>
<stop offset="1" stop-color="white" stop-opacity="0"/>
</linearGradient>
<linearGradient id="paint6_linear_1205_1309" x1="831" y1="1.99992" x2="-71" y2="500" gradientUnits="userSpaceOnUse">
<stop stop-color="white"/>
<stop offset="1" stop-color="white" stop-opacity="0"/>
</linearGradient>
<linearGradient id="paint7_linear_1205_1309" x1="831" y1="1.99992" x2="-71" y2="500" gradientUnits="userSpaceOnUse">
<stop stop-color="white"/>
<stop offset="1" stop-color="white" stop-opacity="0"/>
</linearGradient>
<linearGradient id="paint8_linear_1205_1309" x1="831" y1="1.99992" x2="-71" y2="500" gradientUnits="userSpaceOnUse">
<stop stop-color="white"/>
<stop offset="1" stop-color="white" stop-opacity="0"/>
</linearGradient>
<linearGradient id="paint9_linear_1205_1309" x1="831" y1="1.99992" x2="-71" y2="500" gradientUnits="userSpaceOnUse">
<stop stop-color="white"/>
<stop offset="1" stop-color="white" stop-opacity="0"/>
</linearGradient>
<linearGradient id="paint10_linear_1205_1309" x1="831" y1="1.99992" x2="-71" y2="500" gradientUnits="userSpaceOnUse">
<stop stop-color="white"/>
<stop offset="1" stop-color="white" stop-opacity="0"/>
</linearGradient>
<linearGradient id="paint11_linear_1205_1309" x1="831" y1="1.99992" x2="-71" y2="500" gradientUnits="userSpaceOnUse">
<stop stop-color="white"/>
<stop offset="1" stop-color="white" stop-opacity="0"/>
</linearGradient>
<linearGradient id="paint12_linear_1205_1309" x1="831" y1="1.99992" x2="-71" y2="500" gradientUnits="userSpaceOnUse">
<stop stop-color="white"/>
<stop offset="1" stop-color="white" stop-opacity="0"/>
</linearGradient>
<linearGradient id="paint13_linear_1205_1309" x1="831" y1="1.99992" x2="-71" y2="500" gradientUnits="userSpaceOnUse">
<stop stop-color="white"/>
<stop offset="1" stop-color="white" stop-opacity="0"/>
</linearGradient>
<linearGradient id="paint14_linear_1205_1309" x1="831" y1="1.99992" x2="-71" y2="500" gradientUnits="userSpaceOnUse">
<stop stop-color="white"/>
<stop offset="1" stop-color="white" stop-opacity="0"/>
</linearGradient>
<linearGradient id="paint15_linear_1205_1309" x1="831" y1="1.99992" x2="-71" y2="500" gradientUnits="userSpaceOnUse">
<stop stop-color="white"/>
<stop offset="1" stop-color="white" stop-opacity="0"/>
</linearGradient>
<linearGradient id="paint16_linear_1205_1309" x1="831" y1="1.99992" x2="-71" y2="500" gradientUnits="userSpaceOnUse">
<stop stop-color="white"/>
<stop offset="1" stop-color="white" stop-opacity="0"/>
</linearGradient>
<linearGradient id="paint17_linear_1205_1309" x1="831" y1="1.99992" x2="-71" y2="500" gradientUnits="userSpaceOnUse">
<stop stop-color="white"/>
<stop offset="1" stop-color="white" stop-opacity="0"/>
</linearGradient>
<linearGradient id="paint18_linear_1205_1309" x1="831" y1="1.99992" x2="-71" y2="500" gradientUnits="userSpaceOnUse">
<stop stop-color="white"/>
<stop offset="1" stop-color="white" stop-opacity="0"/>
</linearGradient>
<linearGradient id="paint19_linear_1205_1309" x1="831" y1="1.99992" x2="-71" y2="500" gradientUnits="userSpaceOnUse">
<stop stop-color="white"/>
<stop offset="1" stop-color="white" stop-opacity="0"/>
</linearGradient>
<linearGradient id="paint20_linear_1205_1309" x1="831" y1="1.99992" x2="-71" y2="500" gradientUnits="userSpaceOnUse">
<stop stop-color="white"/>
<stop offset="1" stop-color="white" stop-opacity="0"/>
</linearGradient>
<linearGradient id="paint21_linear_1205_1309" x1="831" y1="1.99992" x2="-71" y2="500" gradientUnits="userSpaceOnUse">
<stop stop-color="white"/>
<stop offset="1" stop-color="white" stop-opacity="0"/>
</linearGradient>
<linearGradient id="paint22_linear_1205_1309" x1="831" y1="1.99992" x2="-71" y2="500" gradientUnits="userSpaceOnUse">
<stop stop-color="white"/>
<stop offset="1" stop-color="white" stop-opacity="0"/>
</linearGradient>
<linearGradient id="paint23_linear_1205_1309" x1="831" y1="1.99992" x2="-71" y2="500" gradientUnits="userSpaceOnUse">
<stop stop-color="white"/>
<stop offset="1" stop-color="white" stop-opacity="0"/>
</linearGradient>
</defs>
</svg>
