<svg width="200" height="49" viewBox="0 0 200 49" fill="none" xmlns="http://www.w3.org/2000/svg">
<path fill-rule="evenodd" clip-rule="evenodd" d="M15.1259 24.7476C15.1259 23.2986 15.3842 21.91 15.8574 20.6252C12.8249 17.6277 11.3649 14.8994 12.2785 13.3171C13.3698 11.4268 17.5711 11.6524 22.905 13.5582C24.2002 13.0769 25.6016 12.8139 27.0645 12.8139C32.9668 12.8139 37.8687 17.0953 38.8316 22.7207C43.2275 26.424 45.577 29.998 44.4754 31.906C43.5509 33.5072 40.3949 33.5902 36.2092 32.4197C34.0192 35.0252 30.7353 36.6812 27.0645 36.6812C20.471 36.6812 15.1259 31.3383 15.1259 24.7476ZM37.9871 29.5722C38.3449 28.7641 38.6156 27.9089 38.7872 27.0184C39.0287 27.261 39.2586 27.5017 39.4762 27.7397L39.5232 27.7913C39.5564 27.8279 39.5893 27.8643 39.6217 27.9006L39.718 28.009C39.9082 28.2249 40.0848 28.4352 40.2474 28.6386L40.3275 28.7398C40.4459 28.8907 40.5564 29.0377 40.6587 29.1803L40.7258 29.2747C40.9014 29.5248 41.0513 29.7608 41.1747 29.9801L41.1913 30.0099L41.1097 30.0108C40.9664 30.0113 40.8145 30.0073 40.6543 29.9984L40.5463 29.9919L40.4359 29.9839C40.3615 29.9781 40.2855 29.9713 40.208 29.9636L40.0905 29.9514C39.9522 29.9363 39.8092 29.9182 39.6618 29.8972L39.5343 29.8785C39.47 29.8688 39.405 29.8585 39.3391 29.8476L39.2064 29.8252L39.0716 29.8014L38.9348 29.776L38.7959 29.7492C38.726 29.7354 38.6554 29.7211 38.584 29.7061L38.4403 29.6756L38.3678 29.6597C38.2422 29.632 38.1153 29.6029 37.9871 29.5722ZM35.7981 24.7476C35.7981 26.144 35.4701 27.4638 34.8869 28.6343C32.4368 27.7555 29.7339 26.4931 27.0354 24.9351C24.2896 23.3499 21.8066 21.6076 19.8021 19.8967C21.3689 17.5576 24.0368 16.0176 27.0645 16.0176C31.8879 16.0176 35.7981 19.9261 35.7981 24.7476ZM25.4336 27.7096C22.8301 26.2065 20.484 24.591 18.5085 22.9872C18.3921 23.5558 18.3309 24.1445 18.3309 24.7476C18.3309 29.569 22.2411 33.4776 27.0645 33.4776C29.2813 33.4776 31.3052 32.652 32.8453 31.2916C30.5079 30.3885 27.9858 29.1831 25.4336 27.7096ZM19.209 15.761C18.5563 16.3315 17.9664 16.9719 17.4508 17.6706C17.3922 17.608 17.3345 17.5456 17.2776 17.4833L17.1811 17.377C17.0169 17.1948 16.8621 17.0163 16.717 16.8422L16.631 16.7383C16.405 16.4626 16.2037 16.1984 16.0281 15.9484L15.9634 15.8552C15.8154 15.6395 15.6871 15.4349 15.5792 15.243L15.5625 15.2132L15.5967 15.2126C15.8166 15.2102 16.0576 15.2189 16.318 15.2392L16.4308 15.2486C16.4498 15.2503 16.4689 15.252 16.4881 15.2538L16.6043 15.2654C16.6435 15.2694 16.683 15.2738 16.7229 15.2783L16.8438 15.2927L16.9668 15.3086C17.1117 15.3279 17.2611 15.3502 17.4147 15.3754L17.5475 15.3978L17.6823 15.4217L17.8191 15.447C17.8421 15.4514 17.8651 15.4558 17.8883 15.4603L18.0281 15.4879C18.0985 15.502 18.1696 15.5167 18.2415 15.532L18.3861 15.5634C18.6545 15.6225 18.929 15.6884 19.209 15.761Z" fill="white"/>
<path d="M72.9355 27.3787V36.4663H67.6856V12.0087H72.9355V21.5953C73.433 20.1809 74.6179 19.5793 75.8158 19.3262L75.9567 19.298L76.0976 19.2728C76.1445 19.2649 76.1913 19.2575 76.238 19.2505L76.3779 19.231C76.4011 19.2279 76.4243 19.225 76.4475 19.2221L76.586 19.2063L76.7232 19.1928L76.859 19.1814L77.0594 19.1679L77.2551 19.1582L77.3826 19.1536L77.5074 19.1503L77.689 19.1474L77.9748 19.1465L78.6691 19.1514C80.5799 19.1766 82.1022 19.8313 83.2359 21.1155C84.3923 22.4255 84.9706 24.2266 84.9706 26.519V36.4663H79.7206V27.133C79.7206 25.9869 79.4187 25.0914 78.8149 24.4467C78.2111 23.8019 77.4077 23.4796 76.4048 23.4796C75.3405 23.4796 74.4962 23.8173 73.8719 24.4927C73.2477 25.1681 72.9355 26.1301 72.9355 27.3787Z" fill="white"/>
<path fill-rule="evenodd" clip-rule="evenodd" d="M97.1886 35.7909C96.2471 36.3844 95.1214 36.6812 93.8115 36.6812C92.3992 36.6812 91.1353 36.3282 90.0198 35.622C88.9043 34.9159 88.0242 33.8976 87.3795 32.5672C86.7348 31.2368 86.4124 29.6813 86.4124 27.9006C86.4124 26.0994 86.7348 24.5388 87.3795 23.2186C88.0242 21.8984 88.9043 20.8853 90.0198 20.1791C91.1353 19.473 92.3992 19.1199 93.8115 19.1199L95.2791 19.1211C99.9009 19.196 103.625 22.966 103.625 27.6057V36.4663H99.2763V33.3655C98.826 34.3888 98.1301 35.1973 97.1886 35.7909ZM94.4064 32.0683C93.2676 32.0683 92.3514 31.6956 91.6578 30.9502C90.9642 30.2048 90.6174 29.1695 90.6174 27.8444C90.6174 26.5193 90.9642 25.484 91.6578 24.7386C92.3514 23.9932 93.2676 23.6205 94.4064 23.6205C95.5245 23.6205 96.4407 23.9984 97.155 24.7542C97.8694 25.5099 98.2265 26.54 98.2265 27.8444C98.2265 29.1281 97.8694 30.153 97.155 30.9191C96.4407 31.6852 95.5245 32.0683 94.4064 32.0683Z" fill="white"/>
<path d="M110.315 36.4663V12.0087H105.065V36.4663H110.315Z" fill="white"/>
<path d="M124.314 19.3349V17.2587C124.314 14.3882 126.618 12.0558 129.477 12.0094L129.564 12.0087V19.3349H133.003V23.7559H129.564V30.1418C129.564 30.8172 129.702 31.288 129.979 31.5541C130.244 31.8091 130.682 31.9419 131.295 31.9525L131.376 31.9532H133.034V36.4663H130.67C128.664 36.4663 127.103 35.97 125.988 34.9773C124.893 34.003 124.335 32.4027 124.315 30.1764L124.314 30.0497V23.7559H119.065V36.4663H113.816V23.7559H111.759V19.3349H113.816V19.1506C113.816 17.022 114.435 14.8998 115.673 13.7434C116.911 12.5869 118.707 12.0087 121.061 12.0087L121.324 12.0098L121.562 12.0131L121.773 12.0184L121.9 12.0232L122.015 12.029L122.119 12.0357L122.166 12.0394V16.5219H121.583L121.518 16.5227C120.282 16.5544 119.254 17.4858 119.1 18.7123L119.093 18.7771L119.081 18.9143C119.074 19.0063 119.069 19.0993 119.067 19.1932L119.065 19.3349H124.314Z" fill="white"/>
<path d="M139.859 14.7194C139.859 16.2109 138.65 17.42 137.158 17.42C135.667 17.42 134.458 16.2109 134.458 14.7194C134.458 13.2279 135.667 12.0188 137.158 12.0188C138.65 12.0188 139.859 13.2279 139.859 14.7194Z" fill="white"/>
<path d="M139.724 19.3349H134.474V36.4663H139.724V19.3349Z" fill="white"/>
<path d="M146.555 27.3787V36.4663H141.306V19.3349H146.555V22.2515L146.605 22.1492C147.055 21.2357 147.73 20.5125 148.628 19.9796C149.559 19.427 150.649 19.1506 151.898 19.1506C153.207 19.1506 154.364 19.4525 155.367 20.0563C156.37 20.6601 157.127 21.5249 157.639 22.6506C158.232 21.5863 159.046 20.7369 160.08 20.1024C161.113 19.4679 162.254 19.1506 163.503 19.1506C165.611 19.1506 167.269 19.8005 168.476 21.1002C169.684 22.3999 170.288 24.2062 170.288 26.519V36.4663H165.069V27.133L165.068 27.0288C165.049 25.994 164.758 25.1845 164.194 24.6002C163.61 23.9964 162.817 23.6945 161.814 23.6945C160.77 23.6945 159.946 24.0168 159.343 24.6616C158.739 25.3063 158.437 26.212 158.437 27.3787V36.4663H153.187V27.133L153.186 27.0288C153.168 25.994 152.882 25.1845 152.327 24.6002C151.754 23.9964 150.966 23.6945 149.963 23.6945C148.92 23.6945 148.091 24.0117 147.477 24.6462C146.863 25.2807 146.555 26.1915 146.555 27.3787Z" fill="white"/>
<path fill-rule="evenodd" clip-rule="evenodd" d="M180.355 36.6812C181.788 36.6812 183.087 36.41 184.254 35.8676C185.421 35.3252 186.383 34.5782 187.14 33.6264C187.87 32.7087 188.353 31.672 188.588 30.5163L188.613 30.3874H183.057C182.893 31.0014 182.555 31.5029 182.043 31.8918C181.532 32.2807 180.887 32.4751 180.109 32.4751C179.188 32.4751 178.431 32.1937 177.837 31.6308C177.261 31.0845 176.936 30.196 176.861 28.9652L176.855 28.8523H188.736C188.839 28.3406 188.89 27.8699 188.89 27.4401C188.89 25.8026 188.537 24.3546 187.831 23.0958C187.124 21.837 186.127 20.8597 184.837 20.1638C183.548 19.4679 182.054 19.1199 180.355 19.1199C178.676 19.1199 177.182 19.473 175.872 20.1791C174.562 20.8853 173.544 21.8984 172.818 23.2186C172.091 24.5388 171.728 26.0994 171.728 27.9006C171.728 29.6813 172.096 31.2368 172.833 32.5672C173.57 33.8976 174.588 34.9159 175.888 35.622C177.187 36.3282 178.676 36.6812 180.355 36.6812ZM176.886 26.6418H183.578L183.579 26.5403C183.58 25.4652 183.278 24.6547 182.673 24.1089C182.048 23.5461 181.276 23.2647 180.355 23.2647C179.393 23.2647 178.595 23.5512 177.96 24.1243C177.326 24.6974 176.967 25.5366 176.886 26.6418Z" fill="white"/>
<path fill-rule="evenodd" clip-rule="evenodd" d="M197.817 0C199.022 0 200 0.977544 200 2.18341V46.7249C200 47.9308 199.022 48.9083 197.817 48.9083H2.18341C0.977544 48.9083 0 47.9308 0 46.7249V2.18341C0 0.977544 0.977544 0 2.18341 0H197.817ZM54.1485 3.05677H3.05677V45.8515H54.1485V3.05677ZM57.2052 45.8515V3.05677H196.943V45.8515H57.2052Z" fill="white"/>
</svg>
