<svg width="222" height="48" viewBox="0 0 222 48" fill="none" xmlns="http://www.w3.org/2000/svg">
<path d="M86.9419 37.8011H81.5384V13.6655H86.9419V37.8011ZM95.9117 18.5287H72.5685V13.6655H95.9117V18.5287ZM116.077 37.8011H111.034V33.5144L110.745 33.4423V27.1382C110.745 25.9615 110.445 25.169 109.845 24.7607C109.268 24.3524 108.26 24.1483 106.819 24.1483C105.45 24.1483 104.465 24.3524 103.865 24.7607C103.265 25.169 102.964 25.8894 102.964 26.9221V27.0662H97.5248V26.9581C97.5248 25.4692 97.9211 24.1603 98.7136 23.0316C99.5061 21.8788 100.623 20.9902 102.064 20.3658C103.529 19.7174 105.246 19.3932 107.215 19.3932C109.232 19.3932 110.89 19.7174 112.186 20.3658C113.507 21.0143 114.48 21.9269 115.104 23.1036C115.753 24.2564 116.077 25.6253 116.077 27.2103V37.8011ZM103.397 38.1614C101.451 38.1614 99.9264 37.7291 98.8217 36.8645C97.717 36 97.1646 34.8232 97.1646 33.3343C97.1646 32.4217 97.3807 31.6412 97.813 30.9927C98.2453 30.3443 98.8937 29.828 99.7583 29.4437C100.623 29.0355 101.704 28.7593 103 28.6152L111.106 27.7867V30.8847L104.477 31.6412C103.829 31.6892 103.349 31.8213 103.036 32.0374C102.748 32.2295 102.604 32.5417 102.604 32.974C102.604 33.4543 102.796 33.8026 103.181 34.0187C103.565 34.2348 104.153 34.3429 104.946 34.3429C106.242 34.3429 107.311 34.2228 108.152 33.9827C108.992 33.7425 109.629 33.3583 110.061 32.8299C110.517 32.2776 110.745 31.5451 110.745 30.6325L111.25 30.5965V33.6585H110.745C110.337 35.0514 109.509 36.1561 108.26 36.9726C107.035 37.7651 105.414 38.1614 103.397 38.1614ZM127.93 38.1614C124.904 38.1614 122.574 37.597 120.941 36.4683C119.308 35.3155 118.492 33.6945 118.492 31.6051V31.4971H123.895V31.8213C123.895 32.6378 124.183 33.1902 124.76 33.4783C125.36 33.7425 126.429 33.8746 127.966 33.8746C129.407 33.8746 130.355 33.7545 130.812 33.5144C131.292 33.2502 131.532 32.8539 131.532 32.3256C131.532 31.8213 131.352 31.473 130.992 31.2809C130.631 31.0648 129.923 30.8847 128.866 30.7406L123.787 30.1282C121.986 29.936 120.593 29.4317 119.608 28.6152C118.648 27.7987 118.167 26.6219 118.167 25.0849C118.167 24.0282 118.48 23.0796 119.104 22.2391C119.728 21.3745 120.689 20.6901 121.986 20.1857C123.307 19.6574 125 19.3932 127.065 19.3932C129.034 19.3932 130.703 19.6454 132.072 20.1497C133.465 20.63 134.522 21.3625 135.242 22.3471C135.963 23.3318 136.323 24.5566 136.323 26.0215V26.1296H130.92V25.9134C130.92 25.4091 130.812 25.0008 130.595 24.6886C130.403 24.3524 130.007 24.1003 129.407 23.9322C128.83 23.764 127.99 23.68 126.885 23.68C125.54 23.68 124.64 23.8121 124.183 24.0762C123.727 24.3164 123.499 24.7247 123.499 25.301C123.499 25.7573 123.679 26.1056 124.039 26.3457C124.423 26.5619 125.204 26.754 126.381 26.9221L130.235 27.3904C132.637 27.6546 134.342 28.2069 135.35 29.0475C136.359 29.888 136.863 31.0528 136.863 32.5417C136.863 33.6705 136.503 34.6551 135.783 35.4957C135.062 36.3362 134.042 36.9966 132.721 37.4769C131.4 37.9332 129.803 38.1614 127.93 38.1614ZM159.469 37.8011H153.093L148.59 31.2809H141.962V26.4538H148.554L153.165 19.7534H159.577L152.985 28.4711L159.469 37.8011ZM144.447 37.8011H139.044V13.6655H144.447V37.8011ZM166.293 37.8011H160.89V13.6655H166.293V37.8011ZM174.525 37.8011H169.122V19.7534H174.525V37.8011ZM174.525 17.9163H169.122V13.6655H174.525V17.9163ZM197.311 37.8011H191.907V28.363C191.907 26.8981 191.571 25.8534 190.898 25.229C190.226 24.5806 189.061 24.2564 187.404 24.2564C185.675 24.2564 184.462 24.6166 183.766 25.3371C183.093 26.0335 182.757 27.1502 182.757 28.6872H182.073L181.677 25.301H182.685C182.853 24.2924 183.214 23.3438 183.766 22.4552C184.318 21.5426 185.099 20.8101 186.107 20.2578C187.14 19.6814 188.449 19.3932 190.034 19.3932C191.667 19.3932 193.024 19.7174 194.105 20.3658C195.185 20.9902 195.99 21.8428 196.518 22.9235C197.046 24.0042 197.311 25.217 197.311 26.5619V37.8011ZM182.757 37.8011H177.354V19.7534H182.361V25.3731L182.757 25.5532V37.8011ZM209.626 38.1614C207.633 38.1614 205.868 37.8252 204.331 37.1527C202.794 36.4803 201.605 35.4476 200.765 34.0547C199.924 32.6618 199.504 30.9087 199.504 28.7953C199.504 26.8741 199.924 25.217 200.765 23.8241C201.605 22.4072 202.77 21.3145 204.259 20.546C205.772 19.7775 207.525 19.3932 209.518 19.3932C211.488 19.3932 213.205 19.7294 214.67 20.4019C216.159 21.0743 217.311 22.0709 218.128 23.3918C218.944 24.6886 219.353 26.2737 219.353 28.1469C219.353 28.4591 219.341 28.7473 219.317 29.0114C219.293 29.2756 219.257 29.5638 219.209 29.876H202.998V27.0302H215.39L214.165 28.7953C214.165 28.5552 214.165 28.327 214.165 28.1109C214.165 27.8947 214.165 27.6786 214.165 27.4624C214.165 26.0936 213.793 25.1089 213.049 24.5085C212.304 23.9081 211.091 23.6079 209.41 23.6079C207.585 23.6079 206.312 23.9682 205.592 24.6886C204.871 25.3851 204.511 26.5018 204.511 28.0388V29.4077C204.511 30.9447 204.871 32.0734 205.592 32.7939C206.312 33.4904 207.597 33.8386 209.446 33.8386C211.031 33.8386 212.148 33.6344 212.796 33.2262C213.445 32.8179 213.769 32.2295 213.769 31.461V31.1008H219.173V31.4971C219.173 32.7939 218.776 33.9466 217.984 34.9553C217.191 35.964 216.075 36.7565 214.634 37.3328C213.217 37.8852 211.548 38.1614 209.626 38.1614Z" fill="white"/>
<path d="M21.9958 45.7155H10.1383L10.1146 45.7131C6.17793 45.6894 3.00013 42.5116 3.00013 38.5987V38.5963V10.1384C2.97642 6.20176 6.17793 3.00025 10.0909 3.00025H38.5488H38.525C42.438 2.97654 45.6395 6.17805 45.6395 10.1147V21.9722" stroke="white" stroke-width="4.50292" stroke-linecap="round" stroke-linejoin="round"/>
<path d="M21.9949 33.8579H25.5972" stroke="white" stroke-width="4.50292" stroke-linecap="round" stroke-linejoin="round"/>
<path d="M42.2116 30.8691C42.2517 30.9011 42.2852 30.9406 42.3103 30.9853L47.5844 40.3798C48.533 42.0873 47.9164 44.2691 46.2089 45.2177C45.6635 45.5023 45.0706 45.6683 44.454 45.6683H33.806C31.814 45.6445 30.2251 44.0556 30.2251 42.0873C30.2251 41.4707 30.3674 40.8541 30.6757 40.3324L35.982 30.8569C35.9846 30.8522 35.9812 30.8465 35.9759 30.8465V30.8465C35.9706 30.8465 35.9672 30.8407 35.9698 30.8361C36.9214 29.1128 39.0979 28.5006 40.8019 29.471C41.3497 29.7677 41.7876 30.2182 42.1157 30.7589C42.1412 30.8009 42.1733 30.8385 42.2116 30.8691V30.8691Z" stroke="white" stroke-width="4.50292" stroke-linecap="round" stroke-linejoin="round"/>
<path d="M31.4808 24.3719H21.9949" stroke="white" stroke-width="4.50292" stroke-linecap="round" stroke-linejoin="round"/>
<path d="M36.2238 14.8868H21.9949" stroke="white" stroke-width="4.50292" stroke-linecap="round" stroke-linejoin="round"/>
<path d="M12.4561 14.942H12.6362" stroke="white" stroke-width="4.50292" stroke-linecap="round" stroke-linejoin="round"/>
<path d="M12.4561 33.8579H12.6362" stroke="white" stroke-width="4.50292" stroke-linecap="round" stroke-linejoin="round"/>
<path d="M12.4561 24.308H12.6362" stroke="white" stroke-width="4.50292" stroke-linecap="round" stroke-linejoin="round"/>
</svg>
