<svg width="60" height="60" viewBox="0 0 60 60" fill="none" xmlns="http://www.w3.org/2000/svg">
<path fill-rule="evenodd" clip-rule="evenodd" d="M53.7609 11.6834C48.1706 4.43307 39.4755 0 30 0C13.4309 0 0 13.4319 0 30C0 46.5681 13.4309 60 30 60C46.5691 60 60 46.5681 60 30C60 28.7676 59.0009 27.7685 57.7685 27.7685C56.5361 27.7685 55.537 28.7676 55.537 30C55.537 44.1034 44.1042 55.537 30 55.537C15.8958 55.537 4.46296 44.1034 4.46296 30C4.46296 15.8966 15.8958 4.46296 30 4.46296C38.1013 4.46296 45.5303 8.2677 50.2877 14.4883L47.0664 14.4897L46.71 14.5123C44.2099 14.839 44.2099 18.6034 46.71 18.9301L47.0664 18.9527H54.3498C54.3789 18.9533 54.4081 18.9533 54.4373 18.9527H55.9924L56.2952 18.9323C57.3843 18.7846 58.2238 17.8509 58.2238 16.7212V7.79529L58.2035 7.49249C58.0557 6.40331 57.1221 5.56381 55.9924 5.56381L55.6896 5.58418C54.6004 5.73194 53.7609 6.66558 53.7609 7.79529V11.6834Z" fill="white"/>
<path fill-rule="evenodd" clip-rule="evenodd" d="M27.3893 14.4953L17.732 20.0812C16.1875 20.9738 15.2344 22.6265 15.2344 24.4138V35.5794C15.2344 37.3668 16.1845 39.0154 17.7299 39.9108L27.3856 45.4958C28.0896 45.9026 28.8679 46.1239 29.6531 46.1599C29.7296 46.1678 29.8073 46.1719 29.8859 46.1719C29.9668 46.1719 30.0466 46.1676 30.1253 46.1592C30.9045 46.1212 31.6769 45.9007 32.3763 45.498L42.0344 39.9115C43.5805 39.0158 44.5312 37.3646 44.5312 35.5794V24.4138C44.5312 22.6264 43.5812 20.9778 42.0357 20.0825L32.38 14.4974C30.8364 13.6054 28.9347 13.6054 27.3893 14.4953ZM32.1199 40.4765L39.798 36.0354C39.9615 35.9406 40.0617 35.7665 40.0617 35.5794V26.6949L32.1177 31.2875L32.1199 40.4765ZM37.8269 22.8178L30.1458 18.3748C29.9842 18.2815 29.7822 18.2815 29.6209 18.3744L21.9411 22.8165L29.8829 27.4104L37.8269 22.8178ZM19.7041 26.6916V35.5794C19.7041 35.7681 19.8031 35.9399 19.9665 36.0346L27.6503 40.479L27.6481 31.2845L19.7041 26.6916Z" fill="white"/>
</svg>
