<svg fill="none" height="48" viewBox="0 0 200 48" width="200" xmlns="http://www.w3.org/2000/svg"><g fill="#fff"><path clip-rule="evenodd" d="m24.6868 43.9434c1.2061.902 2.5419 1.626 3.9666 2.1454 2.2671.8264 4.6966 1.1116 7.094.8328 2.3973-.2789 4.696-1.114 6.7118-2.4386 2.0159-1.3246 3.6929-3.1018 4.8968-5.1893s1.9013-4.4273 2.0362-6.8321c.135-2.4047-.2962-4.8076-1.259-7.0162-.9629-2.2086-2.4305-4.1615-4.2856-5.7024-1.1566-.9608-2.4438-1.7447-3.819-2.3307.0832-.6482.1261-1.309.1261-1.9797 0-8.5232-6.924-15.4326-15.4652-15.4326-8.5411 0-15.46513 6.9094-15.46513 15.4326 0 .6727.04314 1.3355.12681 1.9855-1.99899.8571-3.80378 2.1301-5.28802 3.7452-2.09801 2.283-3.458235 5.1437-3.903425 8.2093-.445191 3.0656.045302 6.1939 1.407555 8.9773 1.36226 2.7834 3.53311 5.0928 6.22966 6.6273 2.69655 1.5344 5.79375 2.2227 8.88795 1.9752 2.9017-.2321 5.6746-1.2771 8.0019-3.009zm.0027-38.47271c-5.5134 0-9.9829 4.46009-9.9829 9.96191 0 1.0186.1532 2.0015.4379 2.927.0125.037.0242.0745.0352.1123 1.2877 4.0154 5.0586 6.9226 9.5098 6.9226.7032 0 1.3893-.0726 2.0514-.2105l.0163-.0052c.1405-.044.2818-.0761.423-.0969 3.3249-.8521 5.9801-3.3703 7.019-6.6098.0111-.038.0229-.0756.0355-.1128.2846-.9254.4377-1.9082.4377-2.9267 0-5.50182-4.4695-9.96191-9.9829-9.96191zm.7019 25.37891c-.2327.0103-.4667.0156-.7019.0156-5.9203 0-11.0636-3.3197-13.6626-8.1955-1.09569.5414-2.0881 1.2823-2.92322 2.1911-1.35358 1.4729-2.23116 3.3186-2.51839 5.2964-.28722 1.9778.02923 3.9962.90812 5.7919.87889 1.7958 2.27946 3.2858 4.01919 4.2757 1.7397.99 3.738 1.4341 5.7343 1.2744s3.8981-.9157 5.4576-2.1696c.3259-.262.6337-.5432.922-.8416.0445-.0506.0911-.1.1399-.1479 1.021-1.1009 1.7838-2.423 2.2235-3.8705.3579-1.178.4916-2.4054.4015-3.62zm3.066 9.0553c.7635-1.1883 1.364-2.4822 1.7789-3.8481.6356-2.092.8151-4.2845.5392-6.4326 3.2522-1.3906 5.93-3.8618 7.5802-6.961.7078.3469 1.3744.7775 1.9846 1.2844 1.1972.9944 2.1443 2.2548 2.7657 3.6801.6214 1.4254.8997 2.9761.8126 4.5281-.0871 1.5519-.5372 3.0619-1.3142 4.4091-.7769 1.3472-1.8592 2.4942-3.1601 3.349-1.301.8548-2.7845 1.3938-4.3316 1.5738-1.5472.1799-3.1151-.0042-4.5782-.5375-.7334-.2673-1.4301-.6187-2.0771-1.0453z" fill-rule="evenodd"/><path clip-rule="evenodd" d="m192.261 19.5566c.949 0 1.765.215 2.447.6449.681.4299 1.178 1.0155 1.489 1.7567v-6.2931h3.803v16.4556h-3.803v-2.2459c-.311.7412-.808 1.3268-1.489 1.7567-.682.4299-1.498.6449-2.447.6449-1.023 0-1.942-.252-2.757-.7561-.801-.5189-1.438-1.2601-1.912-2.2237-.46-.9636-.69-2.0903-.69-3.3801 0-1.3046.23-2.4313.69-3.3801.474-.9636 1.111-1.6974 1.912-2.2015.815-.5189 1.734-.7783 2.757-.7783zm1.223 3.3356c-.815 0-1.475.2669-1.979.8006-.489.5337-.734 1.2749-.734 2.2237s.245 1.69.734 2.2237c.504.5337 1.164.8006 1.979.8006.801 0 1.453-.2743 1.957-.8228.519-.5485.779-1.2824.779-2.2015 0-.934-.26-1.6678-.779-2.2015-.504-.5485-1.156-.8228-1.957-.8228z" fill-rule="evenodd"/><path d="m183.772 21.002c-.831-.9488-1.957-1.4232-3.381-1.4232-.948 0-1.779.215-2.49.6449-.697.43-1.223 1.0155-1.579 1.7568v-2.2682h-3.803v12.4084h3.803v-6.5822c0-.9044.222-1.6011.667-2.0904.46-.4892 1.075-.7338 1.846-.7338.726 0 1.304.2372 1.734.7116.445.4596.668 1.1045.668 1.9347v6.7601h3.802v-7.2049c0-1.6604-.422-2.965-1.267-3.9138z"/><path d="m166.074 19.7123h3.825v12.4084h-3.825v-2.2459c-.356.7264-.89 1.3045-1.601 1.7345-.697.4299-1.512.6449-2.446.6449-1.423 0-2.558-.4744-3.403-1.4232-.83-.9488-1.245-2.2534-1.245-3.9138v-7.2049h3.78v6.7379c0 .845.215 1.5047.645 1.9791.445.4596 1.038.6894 1.779.6894.771 0 1.379-.2446 1.824-.7339.445-.4892.667-1.1859.667-2.0903z"/><path clip-rule="evenodd" d="m152.45 20.3349c-.964-.5189-2.061-.7783-3.291-.7783-1.231 0-2.335.2594-3.314.7783-.978.5041-1.749 1.2379-2.312 2.2015-.549.9636-.823 2.0903-.823 3.3801s.274 2.4165.823 3.3801c.563.9636 1.334 1.7048 2.312 2.2237.979.5041 2.083.7561 3.314.7561 1.23 0 2.327-.252 3.291-.7561.978-.5189 1.742-1.2601 2.29-2.2237.563-.9636.845-2.0903.845-3.3801s-.282-2.4165-.845-3.3801c-.548-.9636-1.312-1.6974-2.29-2.2015zm-5.137 3.3134c.504-.5337 1.119-.8006 1.846-.8006.726 0 1.334.2669 1.823.8006.489.5189.734 1.2749.734 2.2682s-.245 1.7493-.734 2.2682-1.097.7783-1.823.7783c-.727 0-1.342-.2594-1.846-.7783-.489-.5189-.734-1.2749-.734-2.2682s.245-1.7493.734-2.2682z" fill-rule="evenodd"/><path d="m137.493 22.0472c.475-.7561 1.083-1.3565 1.824-1.8012.756-.4448 1.571-.6672 2.446-.6672v4.0695h-1.09c-1.008 0-1.793.2149-2.357.6449-.548.4299-.823 1.1563-.823 2.1792v5.6483h-3.802v-12.4084h3.802z"/><path clip-rule="evenodd" d="m125.78 20.2015c-.682-.4299-1.497-.6449-2.446-.6449-1.023 0-1.942.2594-2.757.7783-.801.5041-1.438 1.2379-1.913 2.2015-.459.9488-.689 2.0755-.689 3.3801 0 1.2898.23 2.4165.689 3.3801.475.9636 1.112 1.7048 1.913 2.2237.815.5041 1.734.7561 2.757.7561.949 0 1.764-.215 2.446-.6449s1.186-1.0155 1.512-1.7567v2.1792c0 .9933-.244 1.7123-.733 2.157-.475.4596-1.105.6894-1.891.6894-.682 0-1.237-.1408-1.667-.4225-.415-.2817-.682-.6745-.801-1.1786h-3.758c.222 1.5122.889 2.7056 2.001 3.5802 1.127.8895 2.624 1.3343 4.492 1.3343 1.364 0 2.506-.2743 3.425-.8228s1.601-1.2898 2.046-2.2238c.444-.9191.667-1.9568.667-3.1132v-12.3417h-3.781v2.2459c-.326-.7412-.83-1.3268-1.512-1.7567zm-3.202 3.4913c.504-.5337 1.164-.8006 1.979-.8006.801 0 1.453.2743 1.957.8228.519.5337.778 1.2675.778 2.2015 0 .9191-.259 1.653-.778 2.2015-.504.5485-1.156.8228-1.957.8228-.815 0-1.475-.2669-1.979-.8006-.489-.5337-.734-1.2749-.734-2.2237s.245-1.69.734-2.2237z" fill-rule="evenodd"/><path d="m107.395 19.7123 2.979 7.6052 2.78-7.6052h4.203l-7.739 18.3236h-4.18l2.913-6.3822-5.204-11.9414z"/><path clip-rule="evenodd" d="m96.6155 20.2015c-.682-.4299-1.4974-.6449-2.4462-.6449-1.0229 0-1.942.2594-2.7574.7783-.8005.5041-1.438 1.2379-1.9124 2.2015-.4596.9488-.6894 2.0755-.6894 3.3801 0 1.2898.2298 2.4165.6894 3.3801.4744.9636 1.1119 1.7048 1.9124 2.2237.8154.5041 1.7345.7561 2.7574.7561.9488 0 1.7642-.215 2.4462-.6449.6819-.4299 1.1859-1.0155 1.5121-1.7567v2.2459h3.7804v-12.4084h-3.7804v2.2459c-.3262-.7412-.8302-1.3268-1.5121-1.7567zm-3.2022 3.4913c.504-.5337 1.1637-.8006 1.9791-.8006.8005 0 1.4528.2743 1.9569.8228.5189.5337.7783 1.2675.7783 2.2015 0 .9191-.2594 1.653-.7783 2.2015-.5041.5485-1.1564.8228-1.9569.8228-.8154 0-1.4751-.2669-1.9791-.8006-.4892-.5337-.7339-1.2749-.7339-2.2237s.2447-1.69.7339-2.2237z" fill-rule="evenodd"/><path d="m86.8296 15.6651v16.4556h-3.8026v-16.4556z"/><path clip-rule="evenodd" d="m73.0616 32.1207v-5.5148h2.3571c1.2305 0 2.2756-.215 3.1355-.6449.8598-.4448 1.5047-1.0452 1.9346-1.8013.4448-.7709.6672-1.6455.6672-2.624 0-1.5714-.4893-2.8167-1.4677-3.7358-.9785-.934-2.4016-1.401-4.2696-1.401h-6.1597v15.7218zm4.2251-10.585c0 1.3491-.7635 2.0236-2.2905 2.0236h-1.9346v-4.0916h1.9346c1.527 0 2.2905.6893 2.2905 2.068z" fill-rule="evenodd"/></g></svg>