<svg fill="none" height="148" viewBox="0 0 169 148" width="169" xmlns="http://www.w3.org/2000/svg" xmlns:xlink="http://www.w3.org/1999/xlink"><clipPath id="a"><path d="m35 0h100v99h-100z"/></clipPath><mask id="b" height="11" maskUnits="userSpaceOnUse" width="17" x="118" y="66"><path d="m118.494 66.2634h16.506v10.4384h-16.506z" fill="#fff"/></mask><mask id="c" height="8" maskUnits="userSpaceOnUse" width="21" x="93" y="91"><path d="m93.4414 91.8374h19.8336v6.5097h-19.8336z" fill="#fff"/></mask><mask id="d" height="95" maskUnits="userSpaceOnUse" width="95" x="35" y="0"><path d="m35 0h94.215v94.2149h-94.215z" fill="#fff"/></mask><g fill="#fff"><path d="m154.63 147v-9.45h1.872v2.016l-.342.216c.096-.312.246-.612.45-.9.216-.288.474-.54.774-.756.312-.228.642-.408.99-.54.36-.132.726-.198 1.098-.198.54 0 1.014.09 1.422.27s.744.45 1.008.81.456.81.576 1.35l-.288-.072.126-.306c.132-.276.312-.534.54-.774.24-.252.51-.474.81-.666s.618-.342.954-.45.666-.162.99-.162c.708 0 1.29.144 1.746.432.468.288.816.726 1.044 1.314.24.588.36 1.32.36 2.196v5.67h-1.872v-5.562c0-.54-.072-.978-.216-1.314-.132-.348-.336-.606-.612-.774s-.63-.252-1.062-.252c-.336 0-.654.06-.954.18-.288.108-.54.264-.756.468s-.384.444-.504.72c-.12.264-.18.558-.18.882v5.652h-1.872v-5.598c0-.492-.072-.906-.216-1.242-.144-.348-.354-.612-.63-.792s-.612-.27-1.008-.27c-.336 0-.648.06-.936.18-.288.108-.54.264-.756.468-.216.192-.384.426-.504.702-.12.264-.18.552-.18.864v5.688z"/><path d="m147.84 147.18c-.924 0-1.752-.21-2.484-.63-.72-.432-1.29-1.014-1.71-1.746-.42-.744-.63-1.59-.63-2.538s.21-1.788.63-2.52c.42-.744.99-1.326 1.71-1.746.732-.432 1.56-.648 2.484-.648.912 0 1.728.216 2.448.648.732.42 1.308 1.002 1.728 1.746.42.732.63 1.572.63 2.52s-.21 1.794-.63 2.538c-.42.732-.996 1.314-1.728 1.746-.72.42-1.536.63-2.448.63zm0-1.692c.564 0 1.068-.138 1.512-.414.444-.288.792-.672 1.044-1.152.252-.492.372-1.044.36-1.656.012-.624-.108-1.176-.36-1.656-.252-.492-.6-.876-1.044-1.152s-.948-.414-1.512-.414-1.074.144-1.53.432c-.444.276-.792.66-1.044 1.152-.252.48-.372 1.026-.36 1.638-.012.612.108 1.164.36 1.656.252.48.6.864 1.044 1.152.456.276.966.414 1.53.414z"/><path d="m137.973 147.18c-.876 0-1.662-.216-2.358-.648-.684-.432-1.23-1.02-1.638-1.764-.396-.744-.594-1.578-.594-2.502s.198-1.758.594-2.502c.408-.744.954-1.332 1.638-1.764.696-.432 1.482-.648 2.358-.648.84 0 1.602.174 2.286.522.696.336 1.224.798 1.584 1.386l-1.026 1.26c-.192-.276-.438-.528-.738-.756s-.618-.408-.954-.54-.66-.198-.972-.198c-.576 0-1.092.144-1.548.432-.444.276-.798.66-1.062 1.152s-.396 1.044-.396 1.656.138 1.164.414 1.656c.276.48.642.864 1.098 1.152s.96.432 1.512.432c.324 0 .636-.054.936-.162.312-.108.612-.27.9-.486s.558-.48.81-.792l1.026 1.26c-.384.54-.936.984-1.656 1.332-.708.348-1.446.522-2.214.522z"/><path d="m130.619 147.198c-.396 0-.702-.114-.918-.342-.216-.24-.324-.576-.324-1.008 0-.396.114-.72.342-.972s.528-.378.9-.378c.396 0 .702.12.918.36.216.228.324.558.324.99 0 .396-.114.72-.342.972s-.528.378-.9.378z"/><path d="m121.325 144.048-.09-2.016 4.518-4.482h2.502zm-1.692 2.952v-13.32h1.854v13.32zm6.372 0-3.564-4.158 1.314-1.206 4.626 5.364z"/><path d="m112.373 147v-9.45h1.872v2.97l-.18-.72c.132-.456.354-.87.666-1.242.324-.372.69-.666 1.098-.882.42-.216.852-.324 1.296-.324.204 0 .396.018.576.054.192.036.342.078.45.126l-.486 2.016c-.144-.06-.306-.108-.486-.144-.168-.048-.336-.072-.504-.072-.324 0-.636.066-.936.198-.288.12-.546.294-.774.522-.216.216-.39.474-.522.774-.132.288-.198.606-.198.954v5.22z"/><path d="m106.236 147.18c-.972 0-1.836-.204-2.592-.612-.744-.42-1.332-.99-1.764-1.71-.42-.72-.63-1.548-.63-2.484 0-.744.12-1.422.36-2.034s.57-1.14.99-1.584c.432-.456.942-.804 1.53-1.044.6-.252 1.248-.378 1.944-.378.612 0 1.182.12 1.71.36.528.228.984.546 1.368.954.396.408.696.894.9 1.458.216.552.318 1.158.306 1.818l-.018.792h-7.722l-.414-1.476h6.534l-.27.306v-.432c-.036-.396-.168-.75-.396-1.062s-.516-.558-.864-.738-.726-.27-1.134-.27c-.648 0-1.194.126-1.638.378-.444.24-.78.6-1.008 1.08-.228.468-.342 1.05-.342 1.746 0 .66.138 1.236.414 1.728.276.48.666.852 1.17 1.116s1.086.396 1.746.396c.468 0 .9-.078 1.296-.234.408-.156.846-.438 1.314-.846l.936 1.314c-.288.288-.642.54-1.062.756-.408.216-.846.39-1.314.522-.456.12-.906.18-1.35.18z"/><path d="m85.2139 147v-9.45h1.872v2.016l-.342.216c.096-.312.246-.612.45-.9.216-.288.474-.54.774-.756.312-.228.642-.408.99-.54.36-.132.726-.198 1.098-.198.54 0 1.014.09 1.422.27s.744.45 1.008.81.456.81.576 1.35l-.288-.072.126-.306c.132-.276.312-.534.54-.774.24-.252.51-.474.81-.666s.618-.342.954-.45.666-.162.99-.162c.708 0 1.29.144 1.746.432.468.288.816.726 1.044 1.314.24.588.36 1.32.36 2.196v5.67h-1.872v-5.562c0-.54-.072-.978-.216-1.314-.132-.348-.336-.606-.612-.774s-.63-.252-1.062-.252c-.336 0-.654.06-.954.18-.288.108-.54.264-.756.468s-.384.444-.504.72c-.12.264-.18.558-.18.882v5.652h-1.872v-5.598c0-.492-.072-.906-.216-1.242-.144-.348-.354-.612-.63-.792s-.612-.27-1.008-.27c-.336 0-.648.06-.936.18-.288.108-.54.264-.756.468-.216.192-.384.426-.504.702-.12.264-.18.552-.18.864v5.688z"/><path d="m74.5449 147v-9.45h1.854v1.944l-.324.216c.12-.42.354-.804.702-1.152.348-.36.762-.648 1.242-.864.48-.228.972-.342 1.476-.342.72 0 1.32.144 1.8.432.48.276.84.702 1.08 1.278s.36 1.302.36 2.178v5.76h-1.854v-5.634c0-.54-.072-.984-.216-1.332-.144-.36-.366-.618-.666-.774-.3-.168-.672-.24-1.116-.216-.36 0-.69.06-.99.18-.3.108-.564.264-.792.468-.216.204-.39.444-.522.72-.12.264-.18.552-.18.864v5.724h-.918c-.156 0-.312 0-.468 0s-.312 0-.468 0z"/><path d="m69.841 147v-9.45h1.854v9.45zm.9-11.538c-.396 0-.702-.102-.918-.306s-.324-.492-.324-.864c0-.348.108-.63.324-.846.228-.216.534-.324.918-.324.396 0 .702.102.918.306s.324.492.324.864c0 .348-.114.63-.342.846-.216.216-.516.324-.9.324z"/><path d="m62.2754 147v-9.45h1.872v2.97l-.18-.72c.132-.456.354-.87.666-1.242.324-.372.69-.666 1.098-.882.42-.216.852-.324 1.296-.324.204 0 .396.018.576.054.192.036.342.078.45.126l-.486 2.016c-.144-.06-.306-.108-.486-.144-.168-.048-.336-.072-.504-.072-.324 0-.636.066-.936.198-.288.12-.546.294-.774.522-.216.216-.39.474-.522.774-.132.288-.198.606-.198.954v5.22z"/><path d="m56.5372 147v-11.862h1.854v11.862zm-1.962-7.65v-1.8h6.012v1.8z"/><path d="m47.6123 147.18c-.78 0-1.494-.216-2.142-.648-.636-.432-1.146-1.02-1.53-1.764s-.576-1.584-.576-2.52c0-.948.192-1.788.576-2.52.396-.744.924-1.326 1.584-1.746.672-.42 1.422-.63 2.25-.63.492 0 .942.072 1.35.216s.762.348 1.062.612c.312.252.564.546.756.882.204.336.33.696.378 1.08l-.414-.144v-2.448h1.872v9.45h-1.872v-2.25l.432-.126c-.072.324-.222.642-.45.954-.216.3-.498.57-.846.81-.336.24-.714.432-1.134.576-.408.144-.84.216-1.296.216zm.486-1.71c.564 0 1.062-.138 1.494-.414s.768-.654 1.008-1.134c.252-.492.378-1.05.378-1.674 0-.612-.126-1.158-.378-1.638-.24-.48-.576-.858-1.008-1.134s-.93-.414-1.494-.414c-.552 0-1.044.138-1.476.414-.42.276-.756.654-1.008 1.134-.24.48-.36 1.026-.36 1.638 0 .624.12 1.182.36 1.674.252.48.588.858 1.008 1.134.432.276.924.414 1.476.414z"/><path d="m35.8424 144.048-.09-2.016 4.518-4.482h2.502zm-1.692 2.952v-13.32h1.854v13.32zm6.372 0-3.564-4.158 1.314-1.206 4.626 5.364z"/><path d="m23.4453 147v-9.45h1.854v1.944l-.324.216c.12-.42.354-.804.702-1.152.348-.36.762-.648 1.242-.864.48-.228.972-.342 1.476-.342.72 0 1.32.144 1.8.432.48.276.84.702 1.08 1.278s.36 1.302.36 2.178v5.76h-1.854v-5.634c0-.54-.072-.984-.216-1.332-.144-.36-.366-.618-.666-.774-.3-.168-.672-.24-1.116-.216-.36 0-.69.06-.99.18-.3.108-.564.264-.792.468-.216.204-.39.444-.522.72-.12.264-.18.552-.18.864v5.724h-.918c-.156 0-.312 0-.468 0s-.312 0-.468 0z"/><path d="m12.7402 147v-9.45h1.854v1.944l-.324.216c.12-.42.354-.804.702-1.152.348-.36.762-.648 1.242-.864.48-.228.972-.342 1.476-.342.72 0 1.32.144 1.8.432.48.276.84.702 1.08 1.278s.36 1.302.36 2.178v5.76h-1.854v-5.634c0-.54-.072-.984-.216-1.332-.144-.36-.366-.618-.666-.774-.3-.168-.672-.24-1.116-.216-.36 0-.69.06-.99.18-.3.108-.564.264-.792.468-.216.204-.39.444-.522.72-.12.264-.18.552-.18.864v5.724h-.918c-.156 0-.312 0-.468 0s-.312 0-.468 0z"/><path d="m4.9853 147.18c-.78 0-1.494-.216-2.142-.648-.636-.432-1.146-1.02-1.53-1.764-.383995-.744-.575995-1.584-.575995-2.52 0-.948.192-1.788.575995-2.52.396-.744.924-1.326 1.584-1.746.672-.42 1.422-.63 2.25001-.63.49199 0 .94199.072 1.34999.216.40801.144.76201.348 1.06201.612.312.252.56399.546.75599.882.204.336.33.696.37801 1.08l-.41401-.144v-2.448h1.872v9.45h-1.872v-2.25l.43201-.126c-.072.324-.22201.642-.45001.954-.216.3-.498.57-.846.81-.336.24-.714.432-1.134.576-.408.144-.84.216-1.296.216zm.48601-1.71c.564 0 1.062-.138 1.49399-.414.43201-.276.76801-.654 1.00801-1.134.252-.492.378-1.05.378-1.674 0-.612-.126-1.158-.378-1.638-.24-.48-.576-.858-1.00801-1.134-.43199-.276-.92999-.414-1.49399-.414-.552 0-1.04401.138-1.47601.414-.42.276-.756.654-1.008 1.134-.24.48-.36 1.026-.36 1.638 0 .624.12 1.182.36 1.674.252.48.588.858 1.008 1.134.432.276.92401.414 1.47601.414z"/></g><g clip-path="url(#a)"><path d="m125.522 64.5182c-3.442 8.6117-9.526 16.1367-17.208 21.3334-1.931 1.2865-3.943 2.4445-6.027 3.4557-2.095.9969-4.2627 1.8267-6.4748 2.524-2.2161.6768-4.4874 1.1702-6.779 1.531-2.2936.3364-4.6097.4873-6.9258.5158v-.4974c2.2937-.0306 4.5853-.1753 6.8565-.5117 2.2651-.3568 4.5119-.842 6.7036-1.5148 2.1856-.6891 4.3324-1.5107 6.4035-2.4934 2.062-1.0051 4.056-2.1468 5.96-3.421 7.6-5.1417 13.617-12.5872 17.026-21.1091z" fill="#fff"/><path d="m111.108 68.9301s-.059.2202-.151.5606c-.096.3405-.206.8176-.353 1.3109-.153.4934-.314 1.0092-.453 1.4435-.132.4485-.273.793-.326.9888-.768 2.6687-1.582 5.4862-2.628 8.3792-.532 1.4699-1.129 2.9439-1.794 4.4363-.102.2202-.194.4444-.285.6728l-.153.3914c-.043.1019-.063.2222.073.2773.063.0244.133 0 .196-.0326.265-.1468.44-.4404.614-.6688.191-.2405.356-.5096.528-.7686 1.751-2.685 3.37-5.4658 4.324-8.3466.966-2.8746 1.25-5.8226.408-8.6442z" fill="#fff"/><path d="m115.107 79.5376c.524-3.0214 1.059-6.0999 1.599-9.2171.518-2.9399 1.025-5.7329 1.594-8.4302 1.099 2.5484.895 5.4536.186 8.2019-.693 2.7523-1.564 5.8756-2.386 8.8155z" fill="#fff"/><path d="m123.75 67.7721c-.008-.1448.061-.3996.073-.4526.076-.3201.129-.6483.2-.9664.124-.6483.3-1.266.416-1.9103.124-.6381.281-1.266.418-1.896.124-.6361.265-1.262.42-1.8838.55-2.5117 1.119-4.9929 1.718-7.4965.51-2 .938-4.0183 1.493-6.0591 1.029 3.3497 1.064 7.1132.071 10.579-.764 2.6891-2.079 5.1377-3.299 7.578-.232.4485-.464.8971-.676 1.3578-.176.3813-.312.9378-.661 1.1988-.124.0958-.169.051-.173-.0489z" fill="#fff"/><path d="m127.393 68.6018c2.549-2.897 4.728-6.3629 5.944-10.2589-.213.634-1.271 1.5005-1.719 1.9878-.589.6503-1.132 1.315-1.701 1.9592-1.133 1.3028-2.279 2.6137-3.429 3.9327-1.091 1.2539-2.192 2.5158-3.295 3.7819-.44.4893-.905.9806-1.361 1.474-.461.4893-.881 1.0071-1.175 1.6025 1.191-.4832 2.528-.8971 3.639-1.6616 1.106-.7054 2.027-1.6555 2.945-2.6381z" fill="#fff"/><path d="m119.632 74.3878c1.233-2.6402 1.042-5.6127.734-8.3181-.053-.6687-.157-1.3619-.206-2.0285-.031-.3364-.043-.6646-.063-.997-.025-.3323-.037-.6646-.041-.9826 0-.3242.012-.6443.037-.9562.02-.314.04-.63.091-.9378.096-.6137.274-1.2029.498-1.788.432.9215.764 1.8593 1.074 2.8461.163.4995.263.9888.367 1.4944.094.5076.182 1.0255.214 1.5453.237 3.2702-.878 6.5852-2.357 9.6698z" fill="#fff"/><g mask="url(#b)"><path d="m118.843 75.6457c.636.4811 1.407.6381 2.228.5973.806-.055 1.654-.32 2.437-.6361 4.238-1.7206 8.012-5.001 11.339-8.8562-2.585 1.7675-5.209 3.3618-7.79 4.8012-2.614 1.4251-5.213 2.6769-7.77 3.7737z" fill="#fff"/></g><path d="m115.688 79.5682c.934.6055 2.013.9419 3.167 1.0357 1.133.0754 2.328-.1019 3.482-.4893 2.267-.8094 4.371-2.4016 6.161-4.2875-4.081 2.0102-8.33 3.0092-12.398 3.0847z" fill="#fff"/><path d="m122.471 81.9984c2.194.212 4.421.7115 6.71-.2487-1.547 1.0418-3.191 1.5617-4.869 1.7696-1.651.2324-3.331.1651-4.925.1325-1.374-.0387-2.765-.0795-4.155-.1162-.208-.0081-1.067-.0041-1.831-.0754-.763-.0714-1.431-.2202-1.331-.473.091-.2283.768-.3731 1.498-.4811.73-.104 1.486-.208 1.719-.2406.55-.0877 1.115-.159 1.688-.212.561-.0632 1.121-.1081 1.694-.1366.63-.0286 1.274-.0347 1.908-.0204.628.0122 1.262.0448 1.894.1019z" fill="#fff"/><path d="m106.355 86.8343c2.465-1.054 5.245-1.3741 8.059-1.2946 1.386.0245 2.805.1835 4.188.3405 1.394.1692 2.817.4016 4.208.5932-3.692 1.8471-7.723 2.2488-11.177 1.3701-.991-.2569-1.984-.5851-2.97-.8012-.997-.2284-1.943-.2773-2.893 0 .193-.0714.393-.1285.585-.208z" fill="#fff"/><path d="m97.5596 90.8608c3.7554 1.5352 8.0594 2.3201 12.5874 2.1244 4.52-.1998 9.26-1.3619 13.813-3.5393-3.988.7054-7.923.9073-11.662.7054-1.242-.0469-2.512-.1957-3.739-.004-1.429.1814-2.781.7706-4.198.8623-2.165.1794-4.277-.7726-6.2571-.2895z" fill="#fff"/><path d="m106.3 70.8812c.067.2935.033 1.215-.033 2.1773-.024.4873-.083.9562-.132 1.3374-.051.3894-.088.6891-.1.8053-.076.9664-.269 1.8757-.489 2.8257-.108.4893-.365 1.2539-.698 2.2284-.163.4954-.383.9847-.603 1.529-.222.5342-.465 1.1071-.742 1.6433-.269.5423-.553 1.0988-.838 1.631-.3.5096-.594 1.0091-.881 1.4699-.145.2263-.281.4465-.414.6585-.143.1998-.275.3874-.395.5566-.249.3445-.469.6299-.634.8379-.141.1794-.5326.7482-.9771 1.2049-.4342.4648-.9032.8583-1.1356.7095-.2079-.1366.0041-.6891.2773-1.2538.2732-.5607.6096-1.1295.7054-1.311.2284-.4526.6565-1.2375 1.154-2.1345.253-.4404.502-.9664.765-1.472.256-.5239.53-1.0296.762-1.5821.232-.5321.469-1.0662.693-1.582.216-.5138.4-1.0214.573-1.4679.353-.8889.589-1.6494.748-2.0591.178-.4649.394-1.0174.598-1.627.212-.6055.448-1.2212.646-1.8634.432-1.2456.801-2.4709 1.15-3.2619z" fill="#fff"/><path d="m111.961 79.189c.129-.526.257-1.054.386-1.58.12-.524.24-1.0459.357-1.5739.263-1.0173.456-2.0673.727-3.0377.465-2 .999-3.8736 1.68-5.6575-.028.5973-.049 1.1865-.065 1.7798-.026.5851-.067 1.1539-.104 1.7431-.03.5953-.092 1.1764-.167 1.7737-.073.5974-.145 1.2314-.281 1.8593-.137.6341-.316 1.3905-.557 2.1081s-.469 1.4699-.665 2.1162l-.593 1.9307c-.053.1733-.298.7503-.526 1.3028-.236.5525-.457 1.0581-.457 1.0581-.291.0795-.212-.7931-.083-1.7187.067-.4648.145-.9378.216-1.3191.061-.3812.108-.685.132-.7849z" fill="#fff"/><path d="m96.3686 82.7752c-.1346.3914-.3588 1.1743-.685 2.0999-.3324.9092-.7483 2.0428-1.2254 3.1009-.4811 1.0459-.9949 2.1244-1.4557 2.9215-.4607.8053-.8481 1.4067-1.0132 1.5984.1162-.1325.4689-.2243.6299-.316.0592-.0326.2488-.2039.4996-.4445.1202-.1203.2609-.2568.4098-.4057.1406-.157.2915-.3241.4444-.4893.5974-.6768 1.1744-1.37 1.311-1.5902s.4811-.7931.8053-1.3619.632-1.1274.7401-1.3863c.2018-.4485.473-.8461.63-1.2987.1651-.4363 1.0132-1.5392 1.892-3.0377.4281-.7727.8886-1.5984 1.2456-2.5484.184-.469.357-.9379.498-1.4312.136-.5036.252-1.0092.336-1.5148.141-.7646.12-1.6106.096-2.4078-.954 1.2702-2.0431 2.3283-2.9381 3.7758-.4486.6646-.8339 1.4454-1.2172 2.212-.3772.789-.7054 1.6534-1.0031 2.524z" fill="#fff"/><g mask="url(#c)"><path d="m96.6425 95.2931c1.0419.9337 2.2651 1.6677 3.6225 2.2365.677.2833 1.371.4729 2.088.6279.714.1447 1.454.2487 2.167.2406.73.004 1.428.0081 2.109.0122.685-.0041 1.357-.0122 2.02-.0163 1.358.0163 2.687-.0204 4.171.0041-3.435-.7014-6.701-1.6902-9.969-2.4445-1.191-.2956-2.386-.5525-3.4194-1.0805-.4812-.2569-2.0918-1.1111-3.4333-1.8451-1.3518-.7482-2.4486-1.2925-2.2366-.6565.0754.2162.6606.8543 1.3028 1.4822.6524.6259 1.3578 1.2436 1.578 1.4394z" fill="#fff"/></g><g mask="url(#d)"><path d="m78.9092 94.2046c-.0082 0-.0164 0-.0246 0-24.6069-1.6827-43.8846-22.3341-43.8846-47.004 0-25.9801 21.1566-47.1187137 47.1587-47.1187137 11.869 0 23.2113 4.4217937 31.9373 12.4527137 8.671 7.9817 14.015 18.8171 15.037 30.5062.016.1843-.121.346-.305.3583-.181.0163-.347-.1208-.359-.3051-1.01-11.5232-6.274-22.2031-14.823-30.0763-8.602-7.91012-19.7842-12.26845-31.4873-12.26845-25.6354 0-46.4908 20.83765-46.4908 46.45135 0 24.3239 19.0032 44.6785 43.2659 46.3408.1843.0143.3216.1719.3093.3562-.0123.174-.1598.307-.3339.307z" fill="#fff"/></g><g fill="#fff"><path d="m55.7734 50.1552c0 3.2223 2.0669 6.0431 5.6972 6.0431 6.2312 0 9.894-5.454 9.894-12.9862 0-1.4871-.0632-2.7259-.1875-3.7187l3.883 10.1351c1.1884 3.1296 1.3453 5.6396-3.0697 5.6396v.3108h10.2691v-.3108c-1.9099 0-2.9107-1.7029-4.2886-5.1129l-10.0184-26.1883h-.3139c-1.9711 5.1452-3.1309 8.2122-5.0408 13.2021-.3119.8071-.157 1.6424.7215 1.6424 1.7836 0 2.7233-3.2546 4.2255-3.2546.4077 0 .7521.2482.7521.8374 0 3.2243-12.5235 6.1359-12.5235 13.761zm2.6601-.5892c0-7.6553 10.2079-8.9568 10.2079-13.1093 0-.8051-.4382-1.2086-1.0334-1.2086-1.6592 0-2.819 3.2546-4.2581 3.2546-.5014 0-.7521-.3733-.3445-1.4568l3.5997-9.4834 3.7893 9.8849c.5626 1.8301.6563 3.5331.6563 5.8273 0 5.0827-2.4725 11.4365-7.7008 11.4365-3.0677 0-4.9164-2.2316-4.9164-5.1452z"/><path d="m83.2002 24.5863v.3108c2.6926 0 2.8802 2.1993 2.8802 8.305v13.761c0 6.1057-.1876 8.305-2.8802 8.305v.3108h8.453v-.3108c-2.6927 0-5.2589-2.2316-5.2589-11.2489v-3.9366l.0305-13.2949c4.7595 10.1028 7.5765 16.1157 12.493 26.5293h.2813c3.8499-10.228 7.0119-18.7509 10.3939-27.7077v21.3538c0 6.1057-.188 8.305-2.881 8.305v.3108h8.453v-.3108c-2.692 0-2.88-2.1993-2.88-8.305v-13.761c0-6.1057.188-8.305 2.88-8.305v-.3108h-5.509l-9.393 24.9797-12.022-24.9797z"/><path d="m47.3965 55.035h4.3396v-.2038c-1.3086 0-1.3086-1.4669-1.3086-2.3022v-7.8914c0-.7002-.1386-.9383-.4301-.9383-.2772 0-.534.3753-1.0334.7325-.4648.341-1.1537.6658-1.5675.6658v.2038c.638 0 .7929-.1876 1.0844-.1876.2242 0 .2242.2905.2242.7506v6.6646c0 .8353 0 2.3022-1.3086 2.3022zm1.1027-12.2396c.1896.1715.4118.2744.6543.2744.3099 0 .6543-.1554.9642-.4782.5157-.5287.6196-1.1602.1712-1.6021-.1712-.1715-.3792-.2562-.6197-.2562-.3098 0-.6706.1715-.9804.4782-.5341.5286-.6217 1.1763-.1896 1.5839z"/><path d="m61.1922 62.7491c-.4439 0-.8529-.1083-1.2249-.327-.3741-.2167-.67-.5152-.8879-.8913-.2137-.3762-.3206-.785-.3206-1.2265 0-.4457.1069-.8586.3206-1.2347.2179-.3762.5138-.6726.8879-.8913.372-.2167.781-.3271 1.2249-.3271.5036 0 .9475.139 1.3318.417.3823.2739.67.6439.8632 1.1121h-.5837c-.1603-.3107-.3781-.5561-.6576-.7359-.2796-.184-.5981-.2781-.9537-.2781-.3412 0-.6536.0879-.9372.2617-.2857.1697-.5138.4007-.6823.695-.1644.2944-.2467.6215-.2467.9813 0 .3597.0823.6868.2467.9812.1685.2943.3966.5294.6823.7032.2836.1697.596.2535.9372.2535.3659 0 .6926-.09.9783-.2699.2836-.1839.5056-.4354.6659-.7522h.5755c-.1932.4742-.4809.8483-.8632 1.1202-.3843.2739-.8365.4088-1.3565.4088z"/><path d="m66.8726 62.7491c-.4501 0-.8632-.1083-1.2414-.327-.3782-.2167-.6783-.5152-.8961-.8913-.2199-.3762-.3289-.785-.3289-1.2265 0-.4457.109-.8586.3289-1.2347.2178-.3762.5179-.6726.8961-.8913.3782-.2167.7913-.3271 1.2414-.3271.448 0 .8632.1104 1.2413.3271.3823.2187.6824.5151.8961.8913.2179.3761.3289.789.3289 1.2347 0 .4415-.111.8503-.3289 1.2265-.2137.3761-.5138.6746-.8961.8913-.3781.2187-.7933.327-1.2413.327zm0-.5069c.3452 0 .6618-.0838.9536-.2535.2898-.1738.52-.4089.6906-.7032.1685-.2944.2548-.6215.2548-.9812 0-.3598-.0863-.6869-.2548-.9813-.1706-.2943-.4008-.5253-.6906-.695-.2918-.1738-.6084-.2617-.9536-.2617-.3453 0-.6639.0879-.9537.2617-.2918.1697-.522.4007-.6905.695-.1706.2944-.2549.6215-.2549.9813 0 .3597.0843.6868.2549.9812.1685.2943.3987.5294.6905.7032.2898.1697.6084.2535.9537.2535z"/><path d="m74.507 62.6837h-.5919l-.5097-1.2919h-2.121l-.5097 1.2919h-.5755l1.9484-4.7589h.4111zm-1.3071-1.7989-.855-2.1505-.855 2.1505z"/><path d="m77.7948 62.7491c-.444 0-.853-.1083-1.225-.327-.374-.2167-.67-.5152-.8879-.8913-.2137-.3762-.3206-.785-.3206-1.2265 0-.4457.1069-.8586.3206-1.2347.2179-.3762.5139-.6726.8879-.8913.372-.2167.781-.3271 1.225-.3271.5035 0 .9474.139 1.3318.417.3822.2739.67.6439.8632 1.1121h-.5837c-.1603-.3107-.3782-.5561-.6577-.7359-.2795-.184-.5981-.2781-.9536-.2781-.3412 0-.6536.0879-.9372.2617-.2857.1697-.5139.4007-.6824.695-.1644.2944-.2466.6215-.2466.9813 0 .3597.0822.6868.2466.9812.1685.2943.3967.5294.6824.7032.2836.1697.596.2535.9372.2535.3658 0 .6926-.09.9783-.2699.2836-.1839.5056-.4354.6659-.7522h.5754c-.1932.4742-.4809.8483-.8632 1.1202-.3843.2739-.8365.4088-1.3564.4088z"/><path d="m84.3549 59.9608v-2.036h.5509v4.7589h-.5509v-2.2077h-2.5238v2.2077h-.5508v-4.7589h.5508v2.036z"/><path d="m87.1289 62.6837h-.5508v-4.7589h.5508z"/><path d="m92.3697 61.678v-3.7532h.5344v4.7589h-.3371l-3.2309-3.7532v3.7532h-.5343v-4.7589h.3452z"/><path d="m96.5681 60.1652h2.5321v.2045c0 .4313-.1028.8299-.3042 1.1938-.1973.3598-.4768.6501-.8386.8667-.3576.2126-.7625.3189-1.2167.3189-.4501 0-.8632-.1083-1.2413-.327-.3782-.2167-.6783-.5152-.8961-.8913-.22-.3762-.3289-.785-.3289-1.2265 0-.4457.1089-.8586.3289-1.2347.2178-.3762.5179-.6726.8961-.8913.3781-.2167.7912-.3271 1.2413-.3271.52 0 .9783.139 1.3729.417.3988.278.6947.6501.8879 1.1121h-.5837c-.1541-.3107-.3781-.5561-.6741-.7359-.296-.184-.631-.2781-1.003-.2781-.3453 0-.6638.0879-.9536.2617-.2919.1697-.522.4007-.6906.695-.1706.2944-.2548.6215-.2548.9813 0 .3597.0842.6868.2548.9812.1686.2943.3987.5294.6906.7032.2898.1697.6083.2535.9536.2535.3165 0 .6043-.0654.8632-.1963.2569-.1308.4645-.3127.6248-.5478.1645-.2331.259-.507.2878-.8177h-1.9484z"/><path d="m58.8304 67.3118-.9043 1.0467.9043.9975h-.6824l-.5508-.6296c-.2302.2453-.4562.4232-.6741.5315-.2137.1084-.4665.1635-.7563.1635-.2754 0-.5138-.0531-.7153-.1553-.1973-.1022-.3514-.2412-.4603-.417-.1049-.1738-.1562-.368-.1562-.5806 0-.2065.0452-.4047.1397-.5969.0925-.1901.222-.3557.3864-.4988l.485-.4007-.2712-.3107c-.1316-.1472-.2343-.2821-.3042-.4088-.0658-.1247-.0987-.2719-.0987-.4416 0-.2003.0452-.3843.1398-.5478.0925-.1676.224-.2985.3946-.3925.1747-.0981.372-.1472.5919-.1472.2179 0 .4131.047.5837.139.1685.0941.3001.2187.3946.3762.0925.1533.1398.325.1398.5151 0 .186-.0452.3557-.1316.507-.0822.1471-.226.3086-.4275.4824l-.3124.2617 1.0606 1.1938.5919-.6869zm-2.6143-.8586.2055-.1717c.1644-.1308.2836-.2473.3617-.3516.0823-.1083.1234-.233.1234-.3761 0-.1513-.0576-.2801-.1727-.3843-.1151-.1084-.261-.1636-.4357-.1636-.1809 0-.3288.0614-.4439.1799-.111.1145-.1645.2576-.1645.4252 0 .1104.0247.2085.074.2944.0535.0818.1398.1881.2549.3189zm-.0493 2.494c.2137 0 .3966-.0368.5508-.1145.1582-.0756.3453-.2289.559-.4579l-1.1098-1.251-.444.3761c-.1315.1104-.2281.2248-.2877.3434-.0617.1145-.0904.2494-.0904.4007 0 .186.0678.3495.2055.4906.1418.1431.3473.2126.6166.2126z"/><path d="m66.66 64.5971.5837 4.7589h-.5509l-.4028-3.5078-1.5784 3.5078h-.2713l-1.5867-3.5324-.411 3.5324h-.5344l.5837-4.7589h.3782l1.7099 3.8104 1.71-3.8104z"/><path d="m69.2295 67.1483v1.7008h2.0471v.5069h-2.5979v-4.7589h2.5321v.507h-1.9813v1.529h1.9155v.5152z"/><path d="m76.2808 68.3503v-3.7532h.5344v4.7589h-.3371l-3.2308-3.7531v3.7531h-.5344v-4.7589h.3453z"/><path d="m79.7552 69.356h-.5426v-4.2519h-1.2331v-.507h3.0089v.507h-1.2332z"/><path d="m84.3442 69.4214c-.4501 0-.8632-.1083-1.2413-.327-.3782-.2167-.6783-.5152-.8961-.8913-.2199-.3761-.3289-.785-.3289-1.2265 0-.4457.109-.8586.3289-1.2347.2178-.3762.5179-.6726.8961-.8913.3781-.2167.7912-.3271 1.2413-.3271.4481 0 .8632.1104 1.2414.3271.3823.2187.6824.5151.8961.8913.2179.3761.3289.789.3289 1.2347 0 .4415-.111.8504-.3289 1.2265-.2137.3761-.5138.6746-.8961.8913-.3782.2187-.7933.327-1.2414.327zm0-.5069c.3453 0 .6618-.0838.9537-.2535.2898-.1738.52-.4088.6905-.7032.1686-.2944.2549-.6215.2549-.9812 0-.3598-.0863-.6869-.2549-.9813-.1705-.2943-.4007-.5253-.6905-.695-.2919-.1737-.6084-.2616-.9537-.2616-.3452 0-.6638.0879-.9536.2616-.2918.1697-.522.4007-.6906.695-.1706.2944-.2548.6215-.2548.9813 0 .3597.0842.6868.2548.9812.1686.2944.3988.5294.6906.7032.2898.1697.6084.2535.9536.2535z"/><path d="m90.984 69.356-1.6935-2.0442h-.559v2.0442h-.5508v-4.7589h1.4058c.3 0 .5693.0613.8056.1799.2343.1145.4152.276.5426.4824.1315.2085.1973.4395.1973.6951 0 .3393-.111.6296-.3288.8749-.2138.2412-.5015.3925-.8632.4579l1.7264 2.0687zm-2.2525-4.2519v1.7008h.855c.3 0 .5384-.0757.7152-.229.1747-.1574.2631-.3639.2631-.6214 0-.2556-.0884-.46-.2631-.6133-.1768-.1574-.4152-.2371-.7152-.2371z"/><path d="m93.2774 69.356h-.5508v-4.7589h.5508z"/><path d="m98.5181 68.3503v-3.7532h.5344v4.7589h-.3371l-3.2308-3.7531v3.7531h-.5344v-4.7589h.3453z"/><path d="m102.717 66.8376h2.532v.2044c0 .4313-.103.8299-.305 1.1938-.197.3598-.476.6501-.838.8668-.358.2125-.763.3188-1.217.3188-.45 0-.863-.1083-1.241-.327-.378-.2167-.678-.5152-.896-.8913-.22-.3761-.329-.785-.329-1.2265 0-.4457.109-.8586.329-1.2347.218-.3762.518-.6726.896-.8913.378-.2167.791-.3271 1.241-.3271.52 0 .978.139 1.373.417.399.278.695.6501.888 1.1121h-.584c-.154-.3107-.378-.556-.674-.7359-.296-.184-.631-.278-1.003-.278-.345 0-.664.0879-.953.2616-.292.1697-.523.4007-.691.695-.171.2944-.255.6215-.255.9813 0 .3597.084.6868.255.9812.168.2944.399.5294.691.7032.289.1697.608.2535.953.2535.317 0 .604-.0654.863-.1963.257-.1308.465-.3127.625-.5478.165-.2331.259-.507.288-.8177h-1.948z"/><path d="m99.522 9.42537c-.1295.30337-.0514.65003.2855.79663.5775.2476 1.1365-.1177 1.4385-.82552.059-.14034.104-.26003.131-.35703l-.047 1.10615c-.014.3426-.101.584-.51.4086l-.012.0289.949.4107.015-.0289c-.179-.0763-.202-.2765-.193-.6521l.123-2.86242-.029-.01238c-.388.40449-.618.64801-.996 1.04012-.062.06191-.081.14859 0 .18367.166.07017.384-.19812.523-.13827.037.01651.06.05366.035.10938-.129.30337-1.4069.07636-1.713.79247zm.2712.05159c.3078-.72024 1.3048-.43544 1.4708-.82549.033-.07429.008-.13001-.047-.15478-.152-.06604-.39.19399-.524.13621-.047-.02064-.055-.06398.027-.15065l.715-.74707-.048 1.07933c-.02.19605-.08.35908-.172.57578-.206.47672-.688.97411-1.173.76561-.2838-.1217-.3659-.40446-.2488-.67894z"/><path d="m103.378 8.26086-.015.02889c.241.12589.154.33433-.133.88741l-.647 1.24854c-.288.5531-.409.745-.65.6191l-.014.0269.756.3962.014-.0289c-.24-.1259-.3-.5737.126-1.393l.766-1.47764.366 3.63834.026.0145 1.083-2.0865c.288-.55305.409-.74498.649-.61909l.015-.02683-.756-.39624-.015.02683c.241.12795.3.57578-.125 1.39513l-.635 1.2237-.322-3.22144z"/><path d="m106.165 9.74273-.018.02682c.232.14446.129.34465-.199.87505l-.74 1.1949c-.329.5304-.464.712-.694.5675l-.017.0268.723.452.017-.0268c-.23-.1424-.255-.5965.23-1.3786l.877-1.4157.09 3.6548.027.0165 1.237-1.9976c.329-.5304.462-.712.692-.5676l.017-.0268-.723-.452-.017.0269c.23.1444.255.5964-.23 1.3806l-.727 1.1722-.076-3.2359z"/><path d="m107.925 12.8258 1.095.7822.037-.0516-1.097-.7822z"/><path d="m111.762 14.0573c-.555.6914-1.607-.0185-1.786.2044-.113.1403.161.2662.103.8977-.08.8998-.135 1.1103-.022 1.2011l.376.3054.02-.0248c-.281-.227-.162-.8523-.115-1.3847.049-.5449-.45-.8338-.337-.9741.13-.161 1.385.7202 1.995-.0434.074-.0908.121-.2105.111-.2889l-.242-.1981c.022.0846-.029.2146-.103.3054zm-3.308 1.0071.662.5345.018-.0247c-.211-.1713-.084-.357.306-.8441l.878-1.0958c.39-.4871.546-.6501.758-.4788l.018-.0248-.659-.5345-.021.0248c.212.1692.086.357-.304.8441l-.879 1.0958c-.391.487-.547.6501-.756.4788z"/><path d="m110.969 16.3997c-.224.2415-.267.5944 0 .8462.458.4292 1.107.2744 1.631-.2869.103-.1114.185-.2084.244-.291l-.417 1.0257c-.131.3157-.293.5138-.618.2084l-.023.0227.758.7099.021-.0227c-.14-.132-.097-.3281.039-.6789l1.083-2.6499-.025-.0206c-.501.2477-.801.3962-1.288.6377-.078.0392-.125.1114-.062.1734.132.1217.428-.0558.539.0474.03.0289.039.0702-.002.1156-.224.2414-1.35-.4066-1.88.163zm.236.1404c.532-.5738 1.374.035 1.664-.2745.056-.0619.051-.1218.008-.1631-.123-.1135-.433.0496-.54-.0495-.037-.0351-.029-.0805.076-.1341l.924-.4602-.408 1.0009c-.085.1754-.198.3095-.356.4808-.353.3797-.978.6852-1.362.324-.226-.2125-.207-.5077-.006-.7243z"/><path d="m114.975 16.6128-.31.291.02.0227c.006-.0062-.002-.0021.006-.0103.156-.1445.551.0309.921.4292l-1.644 1.5396c-.454.4251-.631.5654-.816.3653l-.022.0206.561.6067.022-.0227c-.185-.1981-.016-.3487.438-.7739l1.646-1.5374c.369.3982.515.8069.361.9513-.01.0083-.006 0-.012.0062l.022.0227.311-.291z"/><path d="m114.358 20.6017.535.6624.024-.0206c-.17-.2105-.008-.3674.475-.7615l1.707-1.3868c.175.1052.294.2043.442.3859.37.4581.351.9493-.056 1.2815-.293.2394-.756.2848-1.004-.0227-.185-.229-.138-.456-.255-.6026-.035-.0433-.093-.066-.152-.0185-.167.1362.033.4065-.132.9369-.267.8606-.365 1.0566-.275 1.1681l.304.3776.025-.0206c-.226-.2807.024-.8647.17-1.3043.148-.4499-.236-.9988-.078-1.1288.058-.0454.099-.0104.121.0206.085.1032.054.388.241.6191.345.4293.873.4582 1.208.1857.401-.326.454-.8543.031-1.3785-.23-.2869-.421-.421-.639-.6934l-.239-.2952-.024.0207c.17.2105.008.3673-.475.7615l-1.089.8853c-.482.3921-.669.5201-.84.3075z"/><path d="m118.66 21.005c.16.2209-.01.3694-.514.7368l-1.132.8275c-.503.3653-.696.483-.854.2621l-.027.0186.501.6934.025-.0185c-.158-.2209.01-.3695.513-.7368l1.134-.8276c.504-.3652.695-.4829.855-.262l.025-.0186-.499-.6934z"/><path d="m119.469 22.0485-.027.0166c.148.229-.031.3673-.551.7078l-1.177.7657c-.522.3405-.719.4457-.867.2167l-.027.0185.465.7182.026-.0186c-.148-.229.021-.648.791-1.1495l1.393-.908-1.465 3.3474.017.0268 1.964-1.2816c.522-.3384.721-.4458.869-.2167l.025-.0165-.463-.7182-.026.0165c.148.2291-.023.6481-.793 1.1516l-1.153.7512 1.298-2.9635z"/><path d="m121.841 25.8912-.029.0124c.121.2455-.072.3611-.629.6397l-1.255.6233c-.557.2786-.766.3611-.888.1155l-.028.0145.38.7677.027-.0145c-.12-.2435-.031-.5778.79-.9885l.36-.1775 1.214-.6005c-.709.8894-1.13 1.4178-1.861 2.3382l.012.0248c1.105-.1156 2.026-.2147 2.994-.3158l-1.948.97c-.557.2765-.766.3611-.888.1155l-.028.0145.38.7677.026-.0145c-.119-.2435.072-.3611.629-.6377l1.257-.6253c.557-.2786.767-.3611.886-.1155l.029-.0145-.247-.4994-2.699.2807 1.742-2.2247z"/><path d="m123.436 29.2855c.101.2518-.101.3529-.678.5861l-1.3.5242c-.578.2332-.791.2992-.894.0454l-.029.0124.842 2.107.483-.196-.012-.0289c-.421.1692-.812-.7141-.925-.9947l-.15-.3756 1.566-.6315c.08.0227.152.0784.183.1651.078.2125-.113.4643.029.8213.094.2332.3.3178.474.2477l-.012-.0289c-.103.0413-.21-.0392-.255-.1507-.103-.26.014-.4932-.103-.7863-.053-.1341-.15-.2311-.271-.2868l1.26-.5077.195.4891c.271.6769.267 1.1289.072 1.2073l-.013.0062.013.0289.394-.1589-.84-2.1071z"/><path d="m121.476 32.8207.261.8111.028-.0083c-.082-.26.126-.3467.717-.5386l2.092-.6769c.125.163.201.2992.273.5221.179.5613-.014 1.0133-.514 1.1743-.359.1176-.807-.0083-.928-.3859-.091-.2807.037-.4747-.021-.6522-.016-.0536-.063-.097-.135-.0722-.204.066-.113.39-.459.8234-.558.7079-.721.8523-.678.9906l.148.4623.031-.0083c-.111-.3446.335-.7986.627-1.1557.302-.3673.14-1.0174.335-1.0814.068-.0227.094.0269.104.062.042.1279-.088.3838.003.6665.168.5242.649.743 1.06.6088.489-.1568.729-.6315.524-1.2733-.113-.3508-.241-.5448-.348-.8771l-.117-.3632-.029.0103c.083.2601-.125.3467-.717.5387l-1.333.4313c-.592.1898-.811.2414-.894-.0186z"/><path d="m125.57 36.7597c-.859.2105-1.266-.9947-1.541-.9287-.175.0434-.035.3096-.462.776-.608.6645-.781.7966-.748.939l.115.4705.031-.0062c-.085-.3508.388-.7739.745-1.168.372-.4045.15-.937.327-.9803.199-.0475.66 1.4178 1.609 1.1866.113-.0289.224-.0949.263-.163l-.074-.3034c-.033.0784-.152.1507-.265.1775zm-3.236-1.2217.199.8275.031-.0062c-.064-.2662.15-.3363.754-.4849l1.362-.3323c.604-.1465.826-.1816.89.0826l.031-.0083-.2-.8276-.03.0083c.063.2642-.15.3364-.754.4829l-1.363.3323c-.604.1486-.826.1836-.889-.0826z"/></g></g></svg>