<svg width="102" height="121" viewBox="0 0 102 121" fill="none" xmlns="http://www.w3.org/2000/svg">
<path fill-rule="evenodd" clip-rule="evenodd" d="M45.6273 58.6523L43.8849 59.6227L43.4009 59.9139L42.8197 60.1081H42.3356L41.8516 59.8165L41.0773 59.9139H40.3996L40.1091 59.8165L39.9155 59.6227L39.0445 59.8165H38.2702L37.9798 59.7197L37.689 59.5254L37.4959 59.6227L36.818 59.9139L35.9466 60.1081L35.4626 60.0107L34.882 59.8165L34.4944 59.5254L34.3008 59.1376L34.1077 58.6523L32.8492 58.7491L31.9778 58.6523L31.5902 58.4579L31.3 58.167L28.493 58.8459L26.0726 59.4286L24.0395 59.8165L22.1038 60.0107L21.5228 59.8165L21.0387 59.4286L20.8449 59.04L20.7483 58.6523L20.8449 57.8752L21.2324 57.0989L21.813 56.6136L23.8464 55.9347L24.2331 55.6432L22.7811 55.9347L19.7802 56.5168L18.1345 56.9053L16.6824 57.0021L16.1017 56.808L15.6177 56.3227L15.2302 55.6432V54.9641L15.424 54.3814L15.7142 53.896L16.1017 53.7019L16.1983 53.6051V53.5083L16.0052 53.3139L14.2622 53.896L12.81 54.2846L11.6488 54.5757H10.9711L10.1966 54.4787L9.8093 54.2846L9.5189 53.9936L9.42236 53.6051L9.32524 53.0229L9.42236 52.7312L9.61564 52.2461L10.2934 51.6638L10.7774 51.3728L11.4552 51.1786L16.5858 50.0138L13.7782 50.208L10.0995 50.5965L9.03484 50.7907L7.67939 50.8875L6.3245 50.7907L5.35638 50.6933L4.96886 50.499L4.67865 50.1112L4.38825 49.7227V49.2374V48.752L4.5821 48.2669L4.96886 47.7816L5.55004 47.3936L7.00223 46.9083L7.97036 46.8109H5.06598L2.93625 46.7141L2.16179 46.5198L1.67773 46.3256L1.48406 46.132L1.19385 45.5493L1 44.7728L1.09712 44.2877L1.2904 43.8992L1.67773 43.5112L2.25853 43.2203L3.71053 42.9285L5.64678 42.8317L5.45293 42.0554V41.3758L5.74389 40.7936L6.22777 40.4053L6.71183 40.211H7.09878L9.90642 40.6963L13.3912 41.4728L14.0689 40.6963L14.6496 40.1142L15.2302 39.8232L15.3275 39.7258L15.2302 39.6288L14.6496 39.3379L12.6169 38.3672L10.487 37.3966L9.32524 36.8139L8.84118 36.135L8.35711 34.9701V34.2907L8.64751 33.9027L9.13158 33.6112L7.00223 32.7379L6.71183 32.5437L6.22777 32.0584L5.93699 31.3789L6.0341 30.991L6.22777 30.6024L6.61471 30.2147L7.00223 29.9229L7.58284 29.8261L8.26057 29.7293L9.90642 30.0203L12.1329 30.7968V30.3115L12.2294 29.4376L12.4231 28.9525L12.7135 28.5645L13.101 28.2734L13.6816 28.176L13.3912 27.885L12.6169 27.0112L11.9392 25.8469L11.7454 25.2643V24.6821L11.9392 24.1L12.1329 23.7115L12.4231 23.5173L11.3584 22.3525L10.5836 21.4792L10.1966 20.7029V20.0234L10.3905 19.247L10.8745 18.5675L11.2613 18.3733H11.6488L12.2294 18.4707L12.9072 18.6645L14.2622 19.4413L15.424 20.2176L16.0052 20.7029L17.5537 21.6736L18.9088 22.5467L17.8441 20.9941L17.1664 19.5381L17.0699 18.8586V18.1791L17.4572 17.2085L17.8441 16.8205L18.2317 16.7232H18.3282L17.8441 15.1704L17.6505 13.9088L17.7476 13.4235L17.8441 13.0351L18.3282 12.453L18.9088 12.0645L19.5865 11.9677L20.4581 12.453L21.4261 13.3267L22.2971 14.3941L23.1685 15.5589L23.4589 15.3648L24.0395 14.9762L25.0076 14.7821L25.4917 14.8794L26.0726 15.1704L27.1373 16.0443L28.2991 17.3059L29.6542 18.8586L27.2344 14.7821L25.7824 11.7733L25.3949 10.6085L25.2984 10.1234L25.3949 9.83223L25.9755 9.05595L26.6534 8.66799L27.2344 8.47363L27.6214 7.21202L28.2026 6.33836L28.5895 6.14401H29.0736L29.3638 6.04721L29.945 6.14401L30.816 6.53253L31.3 7.01785L31.7841 7.69734L32.6555 9.34691L33.5265 11.1912L34.3008 13.1325L36.2368 17.1117L34.882 11.7733L34.5916 10.0264L34.4944 9.34691L34.5916 8.66799L34.6883 8.27947L34.9785 7.9885L35.753 7.50318L36.6244 7.30882L37.3988 7.50318L37.9798 7.79414L38.3668 8.18267L38.8508 9.34691L39.5285 11.6765L40.4967 15.8499L39.7224 11.3856L38.9479 7.79414L38.2702 5.17355L38.1731 4.30027L38.3668 3.32963L38.6572 2.45597L38.9479 2.06801L39.3349 1.97065H40.1091L40.6903 2.35917L41.1744 2.84449L41.3677 3.32963L41.9487 5.65887L42.5295 8.66799L42.8197 8.47363L43.4974 7.9885L43.9815 7.89113H44.4655L45.0461 8.0853L45.6273 8.57062L46.2079 9.63807L46.692 11.0938L46.9822 13.3267L47.0795 11.2882L46.8857 6.04721L46.9822 4.7856L47.2732 3.71758L47.5634 3.23226L47.9503 2.84449L48.8219 2.55334L49.5962 2.74713L50.3705 3.23226L50.8545 4.10611L51.1449 5.36772L51.4357 8.76479L51.5322 13.5203L51.8226 9.63807L52.0163 5.07675L52.2102 2.84449L52.5969 1.67968L52.8879 1.29116L53.1781 1.09737L53.9526 1L54.6303 1.19436L55.2109 1.67968L55.4046 2.55334V4.30027L55.2109 8.76479L55.5011 8.86159L55.7915 8.76479L55.8886 8.66799L57.2437 5.46452L57.8247 4.7856L58.4055 4.39707L58.9865 4.2029H59.7609L59.9546 4.30027L60.5352 4.68823L60.9222 5.46452L61.0193 5.94984L60.9222 6.62933L60.5352 8.27947L60.1479 9.83223L59.5673 11.2882L58.3087 14.2973L57.631 16.0443L61.5999 8.0853L62.0839 7.11465L63.0521 5.56189L64.2139 4.10611L64.7945 3.62078L65.3757 3.42662H65.7626L66.5369 3.71758L66.9244 4.10611L67.2146 4.49406L67.3117 5.17355L67.118 6.04721L66.2465 8.0853L65.3757 9.9296L64.3104 11.9677L64.7945 11.4824L66.0528 10.3176L66.7305 9.83223L67.505 9.44428L68.1827 9.34691L68.7639 9.54108L69.5382 10.1234L69.9251 10.7059L70.0222 11.1912L69.9251 11.5792L71.7646 9.83223L73.2168 8.66799L73.8946 8.27947L74.4752 8.18267H75.0558L75.4433 8.37627L76.121 8.86159L76.4112 9.63807L76.3147 10.6085L75.637 12.1619L74.4752 13.812L73.2168 15.3648L71.8612 16.9173L69.3445 19.247L68.2798 20.1202H68.6668H69.4411L69.9251 20.3144L70.2159 20.5088L70.5063 20.9941V21.5762L72.5389 19.6349L74.0877 18.1791L75.0558 17.4027L75.9272 17.2085L76.9918 17.3059L77.4759 17.5L77.7663 17.9854L77.8634 18.5675L77.6696 19.5381L76.6051 20.7997L75.3466 22.0614L73.4105 23.6147L73.7007 23.8085L73.8946 24.0026V24.2936L74.8625 23.6147L76.8953 21.7704L80.3801 18.6645L81.4453 17.7912L82.9941 16.4322L83.8649 15.9469L84.6399 15.7525L85.0267 15.8499L85.3171 15.9469L85.6079 16.2379L85.8011 16.7232L85.8983 16.8205V17.4027L85.6079 18.2765L84.7365 19.5381L84.9301 19.6349L85.4142 19.9267L85.8983 20.5088L85.9948 20.8965V21.4792L85.8011 22.2557L85.2205 22.9352L83.8649 24.1L82.6066 24.9733L81.9294 25.3616L82.1225 25.4584L82.3163 25.8469L82.4129 26.5259L82.2196 27.3997L81.8323 28.0792L81.2517 28.4672L79.9933 29.1467L79.7024 29.4376L79.7995 29.632H80.3801H80.7676L81.1546 29.9229L81.9294 30.6024H82.4129L83.381 30.2147L86.3823 28.9525L90.4477 27.0112L91.0289 26.8176L92.2872 26.6232H92.8679L93.449 26.7202L93.836 27.0112L94.0296 27.5939V27.788L93.9331 28.2734L93.449 29.0499L92.3838 29.7293L84.5428 32.9321L84.4461 33.4174L86.8664 32.4469L88.7053 31.7672L90.1575 31.4763L91.0289 31.5731L91.7066 31.9616L91.997 32.3496L92.0936 32.7379V33.1258L91.8999 33.7085L91.513 34.0965L90.7385 34.5816L88.6088 35.6496L84.5428 37.0082L85.5107 36.8139L87.5435 36.6203L88.7053 36.5229L89.8671 36.6203L90.7385 36.8139L91.3193 37.2992L91.7066 37.7845L91.8032 38.2699V38.7552L91.6095 39.1435L90.9318 39.7258L90.0608 40.1142L86.7693 40.5995L84.5428 40.8906L94.2235 40.211L95.0943 40.1142L96.5465 40.211L97.2242 40.4053L97.902 40.6963L98.2889 41.0848L98.4826 41.7643L98.2889 42.3464L97.902 42.7349L97.2242 43.0259L96.45 43.1227L93.836 43.3171L91.4159 43.5112L89.5767 43.7054L90.7385 43.8992L91.6095 44.2877L91.8999 44.676L92.0936 45.064L92.1907 45.8403L91.997 46.5198L91.6095 47.1021H92.965L94.7074 47.1995L95.2882 47.2963L95.8692 47.7816L96.2561 48.4611L96.3532 48.8494V49.3347L96.2561 49.7227L95.9659 50.1112L95.2882 50.499L93.7394 50.8875L98.2889 51.6638L98.8701 51.7613L99.7409 52.0523L100.612 52.5376L100.903 52.9256L101 53.3139V53.7019L100.806 53.9936L100.322 54.2846L99.6444 54.4787H98.9666L94.2235 54.1872L94.32 55.0609L94.1264 55.7405L93.836 56.0315L93.449 56.2257L92.4811 56.42L91.4159 56.3227L90.1575 56.1283L86.4789 55.8373V56.1283L86.3823 56.42L86.0919 56.6136L86.1885 56.711L86.4789 57.0021L87.7372 57.6816L89.8671 58.6523L90.7385 59.3312L91.0289 59.9139L91.1255 60.6902L90.8352 61.2723L90.2546 61.7576L89.4796 61.855L88.3184 61.6608L87.3503 61.2723L86.7693 61.855L86.0919 62.3403L85.6079 62.4371H85.124L83.381 61.855L81.2517 61.0787L80.4772 61.564L79.6058 61.7576L79.0252 61.6608L78.3475 61.564L76.2176 60.7872L75.0558 60.3018L74.4752 60.6902L73.8946 60.8845L73.023 60.9813L71.6675 60.5934L70.9904 60.3018L70.2159 60.0107L69.6347 59.9139L69.0541 59.6227L68.3764 59.9139L67.505 60.1081L66.4403 60.0107L66.0528 60.1081H64.7945L63.7298 59.9139H63.6333L62.7617 60.0107H61.8903L60.9222 59.7197L59.5673 59.04L59.0832 58.9432L58.3087 59.2344L57.631 59.4286H56.7596L55.9852 59.1376L55.4046 58.7491L55.1143 58.3606L55.0172 58.167L45.6273 58.6523Z" stroke="white" stroke-width="0.5669"/>
<path fill-rule="evenodd" clip-rule="evenodd" d="M45.9249 43.876L46.5514 44.8186L45.9249 43.876Z" fill="white"/>
<path fill-rule="evenodd" clip-rule="evenodd" d="M45.9249 43.876L46.5514 44.8186L45.9249 43.876Z" stroke="white" stroke-width="0.2835"/>
<path fill-rule="evenodd" clip-rule="evenodd" d="M47.939 5.20123L48.2653 4.36054L48.5924 3.83534L48.9187 3.73059H49.2452H49.5715L50.1158 3.94071L50.4423 4.46591L50.6601 5.30598L50.5515 5.83118L50.225 6.14626L49.7895 6.35638L49.2452 6.46113L48.8095 6.35638L48.3745 6.14626L48.0482 5.72643" fill="white"/>
<path fill-rule="evenodd" clip-rule="evenodd" d="M82.7897 20.8815L83.7314 20.7964L84.2548 20.8815L84.4642 21.1379L84.5685 21.3937L84.6737 21.6497V21.991L84.2548 22.4177L83.5221 22.8443H82.9987L82.5804 22.7587L82.2666 22.5028L82.057 22.0763L81.9526 21.7347L82.057 21.3081L82.2666 21.0523" fill="white"/>
<path d="M47.7936 57.6587L47.6925 57.0569V56.7563L47.8954 56.4556L47.7936 55.9543L47.6925 55.6538L47.3888 55.2525L46.9831 54.4507V53.7489V53.3482L46.8821 52.8469L46.7804 52.4456V52.1451L47.0848 51.9444H47.1858L46.8821 51.4433L46.7804 50.942L46.9831 50.5413L46.8821 49.7389V49.2377L47.1858 48.837L47.3888 48.6364V48.6364L47.0848 48.7364L46.8821 48.2351L46.7804 47.9346L46.9831 47.6339L46.6794 47.1326L46.5781 46.7321L46.8821 46.3308L46.7804 45.629L46.8821 45.1277L47.0848 45.0277H47.3888L47.4898 44.4259L47.6925 44.1252L48.1992 44.0252L48.5031 43.6239L48.8069 43.5239L49.1115 43.7245L49.5163 43.4233L49.8202 43.3234L50.0229 43.5239L50.4285 43.3234L50.7323 43.4233L50.8336 43.8246L51.1373 43.9246L51.34 44.2257L51.239 44.6264" stroke="white" stroke-width="0.5669"/>
<path fill-rule="evenodd" clip-rule="evenodd" d="M47.861 50.7005L48.0699 50.3859L48.3828 50.2815L48.6965 50.3859L47.861 50.7005Z" fill="white"/>
<path fill-rule="evenodd" clip-rule="evenodd" d="M47.861 50.7005L48.0699 50.3859L48.3828 50.2815L48.6965 50.3859L47.861 50.7005Z" stroke="white" stroke-width="0.2835"/>
<path fill-rule="evenodd" clip-rule="evenodd" d="M48.4376 49.2828L48.7505 48.9687H49.0636L49.4811 49.0737L48.4376 49.2828Z" fill="white"/>
<path fill-rule="evenodd" clip-rule="evenodd" d="M48.4376 49.2828L48.7505 48.9687H49.0636L49.4811 49.0737L48.4376 49.2828Z" stroke="white" stroke-width="0.2835"/>
<path fill-rule="evenodd" clip-rule="evenodd" d="M47.9134 49.3354L48.0181 49.1257L48.2263 48.9162H48.644L47.9134 49.3354Z" fill="white"/>
<path fill-rule="evenodd" clip-rule="evenodd" d="M47.9134 49.3354L48.0181 49.1257L48.2263 48.9162H48.644L47.9134 49.3354Z" stroke="white" stroke-width="0.2835"/>
<path fill-rule="evenodd" clip-rule="evenodd" d="M46.5531 48.705L46.6571 48.286L46.8661 48.1813H47.2837L46.5531 48.705Z" fill="white"/>
<path fill-rule="evenodd" clip-rule="evenodd" d="M46.5531 48.705L46.6571 48.286L46.8661 48.1813H47.2837L46.5531 48.705Z" stroke="white" stroke-width="0.2835"/>
<path fill-rule="evenodd" clip-rule="evenodd" d="M48.4896 47.97L48.6986 47.7605L48.9073 47.551L49.4292 47.6561L48.4896 47.97Z" fill="white"/>
<path fill-rule="evenodd" clip-rule="evenodd" d="M48.4896 47.97L48.6986 47.7605L48.9073 47.551L49.4292 47.6561L48.4896 47.97Z" stroke="white" stroke-width="0.2835"/>
<path fill-rule="evenodd" clip-rule="evenodd" d="M47.8614 48.0224L48.1742 47.6031L48.4873 47.4987L48.6961 47.6031L47.8614 48.0224Z" fill="white"/>
<path fill-rule="evenodd" clip-rule="evenodd" d="M47.8614 48.0224L48.1742 47.6031L48.4873 47.4987L48.6961 47.6031L47.8614 48.0224Z" stroke="white" stroke-width="0.2835"/>
<path fill-rule="evenodd" clip-rule="evenodd" d="M48.6464 46.4477L48.8552 46.2382H49.064L49.2723 46.5522L48.6464 46.4477Z" fill="white"/>
<path fill-rule="evenodd" clip-rule="evenodd" d="M48.6464 46.4477L48.8552 46.2382H49.064L49.2723 46.5522L48.6464 46.4477Z" stroke="white" stroke-width="0.2835"/>
<path fill-rule="evenodd" clip-rule="evenodd" d="M46.6054 46.7095L46.7095 46.3956L46.9183 46.1859L47.2313 46.0808L46.6054 46.7095Z" fill="white"/>
<path fill-rule="evenodd" clip-rule="evenodd" d="M46.6054 46.7095L46.7095 46.3956L46.9183 46.1859L47.2313 46.0808L46.6054 46.7095Z" stroke="white" stroke-width="0.2835"/>
<path fill-rule="evenodd" clip-rule="evenodd" d="M48.4896 46.6044L48.8026 46.2904L49.1161 46.186L49.4292 46.2904L48.4896 46.6044Z" fill="white"/>
<path fill-rule="evenodd" clip-rule="evenodd" d="M48.4896 46.6044L48.8026 46.2904L49.1161 46.186L49.4292 46.2904L48.4896 46.6044Z" stroke="white" stroke-width="0.2835"/>
<path fill-rule="evenodd" clip-rule="evenodd" d="M47.861 45.9744L48.0699 45.6598L48.3828 45.4507H48.6965L47.861 45.9744Z" fill="white"/>
<path fill-rule="evenodd" clip-rule="evenodd" d="M47.861 45.9744L48.0699 45.6598L48.3828 45.4507H48.6965L47.861 45.9744Z" stroke="white" stroke-width="0.2835"/>
<path fill-rule="evenodd" clip-rule="evenodd" d="M48.6461 45.8698L48.7508 45.6603L48.9598 45.5553L49.2726 45.6603L48.6461 45.8698Z" fill="white"/>
<path fill-rule="evenodd" clip-rule="evenodd" d="M48.6461 45.8698L48.7508 45.6603L48.9598 45.5553L49.2726 45.6603L48.6461 45.8698Z" stroke="white" stroke-width="0.2835"/>
<path fill-rule="evenodd" clip-rule="evenodd" d="M50.0068 44.3473L50.3198 44.1378L50.5286 44.2429L50.6327 44.5568L50.0068 44.3473Z" fill="white"/>
<path fill-rule="evenodd" clip-rule="evenodd" d="M50.0068 44.3473L50.3198 44.1378L50.5286 44.2429L50.6327 44.5568L50.0068 44.3473Z" stroke="white" stroke-width="0.2835"/>
<path fill-rule="evenodd" clip-rule="evenodd" d="M48.594 44.5044L48.907 44.2947L49.1158 44.1902L49.3248 44.2947L48.594 44.5044Z" fill="white"/>
<path fill-rule="evenodd" clip-rule="evenodd" d="M48.594 44.5044L48.907 44.2947L49.1158 44.1902L49.3248 44.2947L48.594 44.5044Z" stroke="white" stroke-width="0.2835"/>
<path fill-rule="evenodd" clip-rule="evenodd" d="M48.4896 48.6527L48.8026 48.338L49.1161 48.2335L49.4292 48.338L48.4896 48.6527Z" fill="white"/>
<path fill-rule="evenodd" clip-rule="evenodd" d="M48.4896 48.6527L48.8026 48.338L49.1161 48.2335L49.4292 48.338L48.4896 48.6527Z" stroke="white" stroke-width="0.2835"/>
<path fill-rule="evenodd" clip-rule="evenodd" d="M49.9543 48.548L50.1633 48.3383H50.4761L50.6851 48.4429L49.9543 48.548Z" fill="white"/>
<path fill-rule="evenodd" clip-rule="evenodd" d="M49.9543 48.548L50.1633 48.3383H50.4761L50.6851 48.4429L49.9543 48.548Z" stroke="white" stroke-width="0.2835"/>
<path fill-rule="evenodd" clip-rule="evenodd" d="M46.501 51.5402L46.7098 51.0165L47.0228 50.807H47.3357L46.501 51.5402Z" fill="white"/>
<path fill-rule="evenodd" clip-rule="evenodd" d="M46.501 51.5402L46.7098 51.0165L47.0228 50.807H47.3357L46.501 51.5402Z" stroke="white" stroke-width="0.2835"/>
<path fill-rule="evenodd" clip-rule="evenodd" d="M58.5623 56.5114L59.2944 57.1672L59.5038 57.6039V58.0413L59.2944 58.3688L59.19 58.5875L58.771 58.915L58.2476 59.024L57.3061 58.8061L56.8871 58.4777L56.7827 57.9321V57.495L56.9921 56.9487L57.2011 56.621L57.6199 56.2935H58.1433L58.5623 56.5114Z" fill="white"/>
<path fill-rule="evenodd" clip-rule="evenodd" d="M58.5623 56.5114L59.2944 57.1672L59.5038 57.6039V58.0413L59.2944 58.3688L59.19 58.5875L58.771 58.915L58.2476 59.024L57.3061 58.8061L56.8871 58.4777L56.7827 57.9321V57.495L56.9921 56.9487L57.2011 56.621L57.6199 56.2935H58.1433L58.5623 56.5114Z" stroke="white" stroke-width="0.2835"/>
<path fill-rule="evenodd" clip-rule="evenodd" d="M44.2461 58.6342L43.6627 58.9267L43.2743 59.024L42.7885 58.8293L42.691 58.6342L42.4966 58.2438L42.5941 57.8541L42.8854 57.2686L43.1768 57.0733L43.5656 56.9761L44.2461 57.2686L44.4399 57.561L44.5374 57.9514V58.2438L44.2461 58.6342Z" fill="white"/>
<path fill-rule="evenodd" clip-rule="evenodd" d="M49.9794 66.7215L49.396 66.2274L49.1047 65.931L48.9101 65.5357L48.7158 63.0656L48.6188 60.6945L48.8132 59.8051V59.7065H48.5219H47.8417H47.6471L47.5502 59.9042L48.0361 61.4849L48.2299 63.5595L48.133 65.4372L47.744 66.3265L47.2583 67.2155L49.9794 66.7215Z" fill="white"/>
<path fill-rule="evenodd" clip-rule="evenodd" d="M49.9794 66.7215L49.396 66.2274L49.1047 65.931L48.9101 65.5357L48.7158 63.0656L48.6188 60.6945L48.8132 59.8051V59.7065H48.5219H47.8417H47.6471L47.5502 59.9042L48.0361 61.4849L48.2299 63.5595L48.133 65.4372L47.744 66.3265L47.2583 67.2155L49.9794 66.7215Z" stroke="white" stroke-width="0.5669"/>
<path fill-rule="evenodd" clip-rule="evenodd" d="M47.3392 67.7136L47.7568 67.5047L48.1745 66.981L48.3827 66.7715L48.6964 67.3996L49.2182 68.3423L47.3392 67.7136Z" fill="white"/>
<path fill-rule="evenodd" clip-rule="evenodd" d="M47.3392 67.7136L47.7568 67.5047L48.1745 66.981L48.3827 66.7715L48.6964 67.3996L49.2182 68.3423L47.3392 67.7136Z" stroke="white" stroke-width="0.5669"/>
<path fill-rule="evenodd" clip-rule="evenodd" d="M48.6462 68.2898L48.5421 67.4522L48.3332 66.8241L48.855 67.138L49.2727 67.2425H49.5856L48.6462 68.2898Z" fill="white"/>
<path fill-rule="evenodd" clip-rule="evenodd" d="M48.6462 68.2898L48.5421 67.4522L48.3332 66.8241L48.855 67.138L49.2727 67.2425H49.5856L48.6462 68.2898Z" stroke="white" stroke-width="0.5669"/>
<path fill-rule="evenodd" clip-rule="evenodd" d="M50.4257 67.5568L50.8435 67.2429L51.2606 66.7192V67.3473L51.3653 67.9754L51.5741 68.3946L50.4257 67.5568Z" fill="white"/>
<path fill-rule="evenodd" clip-rule="evenodd" d="M50.4257 67.5568L50.8435 67.2429L51.2606 66.7192V67.3473L51.3653 67.9754L51.5741 68.3946L50.4257 67.5568Z" stroke="white" stroke-width="0.5669"/>
<path fill-rule="evenodd" clip-rule="evenodd" d="M52.5192 68.2902L52.6239 67.3473V66.8237L53.0408 67.0334L53.3545 67.1378H53.5626L52.5192 68.2902Z" fill="white"/>
<path fill-rule="evenodd" clip-rule="evenodd" d="M52.5192 68.2902L52.6239 67.3473V66.8237L53.0408 67.0334L53.3545 67.1378H53.5626L52.5192 68.2902Z" stroke="white" stroke-width="0.5669"/>
<path fill-rule="evenodd" clip-rule="evenodd" d="M52.701 66.1591L52.3458 65.6915L52.1688 65.1301V62.8862L52.3458 60.7355L52.5234 59.8004L52.4349 59.7065H52.2573L51.7251 59.8004L51.5476 59.8938L51.4585 60.0809L51.636 61.2031V62.8862L51.5476 64.3822L51.37 65.1301L51.1039 65.7848L50.6602 66.5329L52.701 66.1591Z" fill="white"/>
<path fill-rule="evenodd" clip-rule="evenodd" d="M52.701 66.1591L52.3458 65.6915L52.1688 65.1301V62.8862L52.3458 60.7355L52.5234 59.8004L52.4349 59.7065H52.2573L51.7251 59.8004L51.5476 59.8938L51.4585 60.0809L51.636 61.2031V62.8862L51.5476 64.3822L51.37 65.1301L51.1039 65.7848L50.6602 66.5329L52.701 66.1591Z" stroke="white" stroke-width="0.5669"/>
<path fill-rule="evenodd" clip-rule="evenodd" d="M52.5931 47.7496L52.4932 47.941V48.5149L52.7939 49.2799L53.1944 49.6628L53.3952 50.2366L53.5957 51.0976L53.6957 52.0542V53.9672L53.8964 55.4022L54.4983 56.4542L55.0996 57.1238L55.6009 57.5066L56.002 58.0805L56.1019 58.3672L56.002 58.6542L55.7008 59.0369L55.0996 59.3238L54.3975 59.2284L53.2952 59.3238L51.9919 59.6106L50.8889 59.7066L49.3851 59.6106H47.7812H47.28L46.8789 59.5152L46.6787 59.2284L46.5781 58.9409L46.6787 58.4626L47.28 57.9843L47.8812 57.5066L48.5833 56.6455L49.2851 55.6889L49.7864 54.6369L50.3877 52.8193L50.5882 51.5759L50.6888 50.2366L50.7888 49.5673L51.0895 48.8016V47.845L50.8889 46.9846L50.7888 46.4108V45.7412L50.9895 45.1669L51.29 44.88L51.6908 44.6886H52.0921L52.4932 44.88L52.7939 45.0713L52.9944 45.4542L53.1944 46.1233V46.8892V46.9846L52.5931 47.7496Z" fill="white"/>
<path fill-rule="evenodd" clip-rule="evenodd" d="M52.5931 47.7496L52.4932 47.941V48.5149L52.7939 49.2799L53.1944 49.6628L53.3952 50.2366L53.5957 51.0976L53.6957 52.0542V53.9672L53.8964 55.4022L54.4983 56.4542L55.0996 57.1238L55.6009 57.5066L56.002 58.0805L56.1019 58.3672L56.002 58.6542L55.7008 59.0369L55.0996 59.3238L54.3975 59.2284L53.2952 59.3238L51.9919 59.6106L50.8889 59.7066L49.3851 59.6106H47.7812H47.28L46.8789 59.5152L46.6787 59.2284L46.5781 58.9409L46.6787 58.4626L47.28 57.9843L47.8812 57.5066L48.5833 56.6455L49.2851 55.6889L49.7864 54.6369L50.3877 52.8193L50.5882 51.5759L50.6888 50.2366L50.7888 49.5673L51.0895 48.8016V47.845L50.8889 46.9846L50.7888 46.4108V45.7412L50.9895 45.1669L51.29 44.88L51.6908 44.6886H52.0921L52.4932 44.88L52.7939 45.0713L52.9944 45.4542L53.1944 46.1233V46.8892V46.9846L52.5931 47.7496Z" stroke="white" stroke-width="0.5669"/>
<path fill-rule="evenodd" clip-rule="evenodd" d="M66.5239 11.3659L67.2859 10.7594L67.8302 10.5569L68.2652 10.6579L68.483 10.8602L68.8095 11.0625L69.0272 11.3659V11.9724L68.7009 12.7818L68.3744 13.0851L67.8302 13.2874L67.3947 13.186L66.9596 12.9837L66.5239 12.6803L66.3062 12.2761V11.7705" fill="white"/>
<path fill-rule="evenodd" clip-rule="evenodd" d="M58.228 6.82876L58.6531 6.0935L59.0783 5.77844H59.4187L59.5889 5.88339L59.844 5.98875L60.0989 6.40855L60.1839 6.9335L60.0141 7.87908L59.844 8.29888L59.5036 8.50898H59.0783L58.7386 8.40424L58.3982 8.08918L58.1431 7.77372V7.35392" fill="white"/>
<path fill-rule="evenodd" clip-rule="evenodd" d="M54.8504 11.607L55.3946 10.8717L55.9388 10.5569H56.3739L56.5916 10.6622L56.9181 10.767L57.2443 11.082L57.4623 11.607L57.3535 12.5523L57.1358 12.972L56.7001 13.1821L56.1561 13.2874L55.6119 13.1821L55.1769 12.972L54.8504 12.5523L54.7412 12.1319" fill="white"/>
<path fill-rule="evenodd" clip-rule="evenodd" d="M43.2855 11.8697L43.1768 10.9243L43.3941 10.3993L43.7211 10.0845L43.9385 9.9796L44.2654 9.87427L44.8098 9.9796L45.3535 10.2946L45.7893 11.0297L45.8978 11.5547L45.7893 11.9744L45.4627 12.2898L44.9184 12.6048H44.4828H43.9385L43.6119 12.2898" fill="white"/>
<path fill-rule="evenodd" clip-rule="evenodd" d="M35.8024 11.8697L35.6938 10.9242L35.8024 10.3991L36.1289 10.0843L36.3467 9.97961L36.6732 9.87427H37.1087L37.6529 10.1897L38.1972 10.9242L38.4149 11.3446L38.3057 11.8697L37.9794 12.1845L37.5444 12.4995L37.0001 12.6048L36.5646 12.4995L36.1289 12.2898" fill="white"/>
<path fill-rule="evenodd" clip-rule="evenodd" d="M32.6196 19.5887L32.2925 18.7485V18.1185L32.5102 17.8034L32.7282 17.5933L33.0545 17.3832H33.4902L34.143 17.4879L34.7958 18.1185L35.0136 18.5383V19.0635L34.7958 19.4838L34.3608 19.7988L33.9253 20.009L33.4902 20.1137L33.0545 20.009" fill="white"/>
<path fill-rule="evenodd" clip-rule="evenodd" d="M41.8164 19.3043V18.3945L41.9865 17.8888L42.2414 17.5857L42.4117 17.4842L42.6666 17.3832L43.0917 17.4842L43.4321 17.8888L43.7723 18.6978L43.8572 19.2033L43.687 19.6081L43.4321 19.9114L43.0069 20.1137H42.6666L42.2414 20.0123L41.9865 19.7089" fill="white"/>
<path fill-rule="evenodd" clip-rule="evenodd" d="M52.1053 19.1162L52.5306 18.381L52.871 18.0659H53.211L53.4659 18.1713L53.7215 18.276L53.9765 18.5911L54.0613 19.2216L53.9765 20.0616L53.8064 20.4814L53.4659 20.7965H53.0407L52.7009 20.6915L52.3604 20.4814L52.1053 20.0616L52.0205 19.6414" fill="white"/>
<path fill-rule="evenodd" clip-rule="evenodd" d="M57.6806 22.8969L58.4429 22.2664L58.9869 22.1616H59.422L59.6399 22.3717L59.8577 22.5821L60.0754 22.8969L60.184 23.5269L59.7485 24.3672L59.422 24.6827L58.9869 24.8922L58.4429 24.7874L58.0072 24.5773L57.6806 24.2622L57.4629 23.842V23.3168" fill="white"/>
<path fill-rule="evenodd" clip-rule="evenodd" d="M50.0645 26.6872L50.4897 25.9791L50.8299 25.6757L51.1699 25.5748L51.4253 25.6757L51.6804 25.7768L51.9353 26.1815L52.0203 26.6872L51.9353 27.5979L51.7652 28.0019L51.4253 28.2045L51.0001 28.3054L50.6598 28.2045L50.3199 27.9011L50.0645 27.5979L49.9795 27.193" fill="white"/>
<path fill-rule="evenodd" clip-rule="evenodd" d="M39.409 24.367L39.0952 23.5268L39.1996 22.8969L39.409 22.582L39.6186 22.3717L39.9324 22.1616H40.3514L40.9791 22.3717L41.6069 23.0016L41.8163 23.422V23.9472L41.5025 24.367L41.1885 24.6825L40.6652 24.8922H40.2464L39.828 24.7872" fill="white"/>
<path fill-rule="evenodd" clip-rule="evenodd" d="M18.7123 20.4814L18.2084 19.7461L18.0068 19.221L18.1079 18.8008L18.3091 18.5911L18.5107 18.2756L18.9139 18.0659H19.5185L20.224 18.4857L20.6268 18.9061L20.7279 19.3259L20.6268 19.8509L20.4256 20.2713L20.0222 20.5864L19.619 20.7965H19.2162" fill="white"/>
<path fill-rule="evenodd" clip-rule="evenodd" d="M22.8205 28.0869L22.2972 27.3222L22.0884 26.7761L22.1928 26.3395L22.2972 26.121L22.5068 25.7933L22.9255 25.5748H23.5533L24.2861 25.9023L24.7045 26.2299L24.8095 26.7761V27.2131L24.6001 27.6496L24.2861 28.0869L23.8673 28.3054H23.3439" fill="white"/>
<path fill-rule="evenodd" clip-rule="evenodd" d="M14.1514 26.1486L13.5468 25.4929L13.2446 24.9474V24.5101L13.3452 24.2916L13.5468 23.964L13.9497 23.6365L14.5549 23.527L15.3611 23.7455L15.7647 24.0729L15.9657 24.5101V25.0563L15.7647 25.4929L15.4619 25.9299L15.1595 26.2575H14.6554" fill="white"/>
<path fill-rule="evenodd" clip-rule="evenodd" d="M10.8904 37.0701L10.1577 36.5246L9.84375 35.9785V35.5413V35.3228L10.0533 34.9952L10.3671 34.6678L10.9948 34.4491L11.8325 34.6678L12.2509 34.8863L12.5648 35.3228V35.8689L12.4605 36.3059L12.2509 36.7424L11.8325 37.0701L11.4138 37.1796" fill="white"/>
<path fill-rule="evenodd" clip-rule="evenodd" d="M21.1563 39.8013L20.4506 39.2551L20.1485 38.8179L20.0474 38.3816L20.1485 38.0533L20.249 37.7258L20.5513 37.3982L21.1563 37.1797L21.9624 37.2893L22.4663 37.5071L22.6679 37.9443L22.7685 38.3816L22.6679 38.9277L22.4663 39.3641L22.0629 39.6917L21.6601 39.9102" fill="white"/>
<path fill-rule="evenodd" clip-rule="evenodd" d="M34.9618 34.1214L34.4385 33.3568L34.3335 32.8107L34.4385 32.3735L34.6475 32.1557L34.8568 31.8276L35.2758 31.7185H35.9035L36.6362 32.1557L36.95 32.5922L37.0546 33.0292L36.95 33.5753L36.7406 34.0119L36.3223 34.3399L35.9035 34.449H35.3802" fill="white"/>
<path fill-rule="evenodd" clip-rule="evenodd" d="M40.5415 32.3485L40.4561 31.4037L40.5415 30.8785L40.7964 30.5634L40.9665 30.458L41.2216 30.3533L41.6467 30.458L42.0719 30.7737L42.4116 31.5084L42.4969 32.0336L42.4116 32.4539L42.1567 32.7689L41.8168 32.9791L41.4765 33.0838H41.0515L40.7964 32.7689" fill="white"/>
<path fill-rule="evenodd" clip-rule="evenodd" d="M24.6005 44.6886L23.8679 44.2619L23.4492 43.9208V43.5793V43.4084L23.5542 43.1526L23.8679 42.811L24.3912 42.6407L25.2281 42.7259L25.7514 42.8966L26.0653 43.1526L26.1703 43.5793L26.0653 43.9208L25.856 44.3475L25.5421 44.6035L25.1238 44.6886" fill="white"/>
<path fill-rule="evenodd" clip-rule="evenodd" d="M7.85289 44.0059L7.04683 43.7499L6.644 43.4084L6.44238 43.1524V42.8966L6.54289 42.6406L6.74451 42.299L7.24844 42.0431L8.0545 41.958L8.55844 42.0431L8.86076 42.299L9.06237 42.6406L9.16348 43.0673L9.06237 43.4084L8.76025 43.7499L8.35682 44.0059" fill="white"/>
<path fill-rule="evenodd" clip-rule="evenodd" d="M55.5064 30.721L55.9314 29.9857L56.2718 29.6707H56.6118L56.8672 29.7754L57.1223 29.8803L57.3772 30.1958L57.4622 30.8257L57.3772 31.6657L57.2071 32.0861L56.8672 32.2958L56.442 32.4012L56.1017 32.2958L55.7618 32.0861L55.5064 31.6657L55.4214 31.2461" fill="white"/>
<path fill-rule="evenodd" clip-rule="evenodd" d="M57.0967 38.5975L57.8294 37.9676L58.3527 37.8623H58.7717L58.9805 38.0724L59.2948 38.2825L59.3994 38.7022L59.5038 39.3326L59.0855 40.1725L58.7717 40.4875L58.2484 40.5928H57.8294L57.4106 40.2774L56.9923 39.9624L56.7827 39.5427L56.8873 39.0176L57.0967 38.5975Z" fill="white"/>
<path fill-rule="evenodd" clip-rule="evenodd" d="M38.4399 47.2004L37.9362 46.4359L37.7344 45.8897L37.8355 45.4528L37.9362 45.2347L38.2383 44.9067L38.6417 44.7977L39.1456 44.6886L39.9516 45.1251L40.355 45.4528L40.4555 45.9987L40.355 46.4359L40.1532 46.873L39.75 47.3094L39.3472 47.4191H38.9438" fill="white"/>
<path fill-rule="evenodd" clip-rule="evenodd" d="M31.926 49.4671L31.0886 49.382L30.5652 49.126L30.3559 48.87L30.2515 48.6136V48.3578L30.4609 48.0167L30.8792 47.675L31.612 47.4192H32.1354L32.5544 47.5899L32.8682 47.931L32.9725 48.3578V48.6992L32.7632 49.126L32.4492 49.382" fill="white"/>
<path fill-rule="evenodd" clip-rule="evenodd" d="M21.6174 49.4671L20.7797 49.2967L20.2563 49.0403L20.0474 48.7845V48.5285V48.2725L20.2563 47.931L20.6751 47.5899L21.5124 47.4192H22.0357L22.4545 47.675L22.6641 48.0167L22.7685 48.4434V48.7845L22.5591 49.126L22.1407 49.382" fill="white"/>
<path fill-rule="evenodd" clip-rule="evenodd" d="M61.7533 16.1442L62.4861 15.5376L63.0095 15.3353L63.4279 15.4362L63.6373 15.5376L63.9513 15.7396L64.1606 16.1442L64.265 16.6499L63.9513 17.5602L63.6373 17.8636L63.1139 18.0659L62.6951 17.9644L62.1717 17.7621L61.8577 17.4587L61.5439 17.0547V16.549" fill="white"/>
<path fill-rule="evenodd" clip-rule="evenodd" d="M74.9736 18.3934L75.7798 18.0659H76.3848L76.6869 18.2838L76.8885 18.5025L77.0897 18.721L77.1908 19.2672L76.9892 19.8133L76.3848 20.578L75.9814 20.7965H75.578L75.1752 20.578L74.772 20.1407L74.5704 19.7042L74.4697 19.2672L74.6715 18.721" fill="white"/>
<path fill-rule="evenodd" clip-rule="evenodd" d="M62.5506 28.3308L63.3126 27.8253L63.8569 27.6228L64.2918 27.7239L64.5097 27.9262L64.836 28.1285L64.9452 28.5327V29.1397L64.5097 29.9485L64.1832 30.2519L63.6389 30.3533L63.2034 30.2519L62.7684 29.9485L62.4414 29.6454L62.2241 29.2406V28.735" fill="white"/>
<path fill-rule="evenodd" clip-rule="evenodd" d="M72.3525 29.9983L73.2597 29.6707L73.7636 29.7796L74.167 29.9983L74.2675 30.3257L74.368 30.5445L74.4691 31.0904L74.2675 31.6365L73.562 32.2916L73.1591 32.4012H72.6552L72.252 32.0738L71.9497 31.7457L71.8486 31.2002L71.748 30.763L71.9497 30.3257" fill="white"/>
<path fill-rule="evenodd" clip-rule="evenodd" d="M65.4498 32.9263L66.2562 32.5059L66.76 32.4011L67.1629 32.6106L67.3647 32.821L67.5664 33.1358L67.6669 33.5563L67.4652 34.1862L66.9612 34.9215L66.5583 35.1317H66.1551L65.6511 35.0269L65.3487 34.6065L65.0465 34.1862L64.9458 33.7664L65.147 33.2412" fill="white"/>
<path fill-rule="evenodd" clip-rule="evenodd" d="M73.3355 35.8143H74.2422L74.7459 35.9846L74.9477 36.2406L75.0482 36.4969L75.1493 36.7529L75.0482 37.0939L74.6454 37.5206L73.8394 37.8622H73.3355L73.0328 37.6913L72.7305 37.3504L72.5289 37.0088L72.4282 36.582L72.63 36.2406L72.9321 35.9846" fill="white"/>
<path fill-rule="evenodd" clip-rule="evenodd" d="M82.2137 33.0839L83.1559 33.169L83.6793 33.4252L83.8887 33.6812L83.993 33.937V34.1929L83.8887 34.5344L83.3653 34.8753L82.5281 35.1318H82.0047L81.6903 34.9609L81.3764 34.6195L81.272 34.1929V33.8519L81.3764 33.4252L81.6903 33.169" fill="white"/>
<path fill-rule="evenodd" clip-rule="evenodd" d="M89.3309 33.0839L90.168 33.2545L90.6914 33.5105L90.7958 33.8519V34.1078V34.3636L90.5864 34.7051L90.168 34.9611L89.2259 35.1318L88.7025 35.0467L88.3885 34.7902L88.1791 34.4493L88.0747 34.1078L88.1791 33.6812L88.3885 33.3401L88.8075 33.0839" fill="white"/>
<path fill-rule="evenodd" clip-rule="evenodd" d="M82.318 41.958L83.2601 42.0433L83.6791 42.214L83.8878 42.4699L83.993 42.7259V42.9817L83.8878 43.3233L83.4697 43.7501L82.6324 44.0059H82.1091L81.7953 43.8352L81.4809 43.4941L81.272 43.1526V42.7259L81.4809 42.3847L81.7953 42.0433" fill="white"/>
<path fill-rule="evenodd" clip-rule="evenodd" d="M65.4163 44.6886L66.3584 44.7737L66.7768 45.0297L66.9862 45.3713V45.6272V45.8832L66.8812 46.2246L66.3584 46.4807L65.5207 46.7365L64.9973 46.6514L64.6833 46.4807L64.3695 46.1395L64.2651 45.7128L64.3695 45.3713L64.5789 45.0297L64.8929 44.7737" fill="white"/>
<path fill-rule="evenodd" clip-rule="evenodd" d="M66.7249 52.4163L67.4575 53.0714L67.6669 53.6175V54.0538L67.4575 54.3821L67.3526 54.5999L66.9343 54.9282H66.306L65.4691 54.7095L65.0508 54.3821L64.9458 53.9449V53.3988L65.0508 52.9618L65.3645 52.5253L65.7828 52.1976H66.306" fill="white"/>
<path fill-rule="evenodd" clip-rule="evenodd" d="M73.1089 46.8217L73.9459 47.0775L74.3642 47.4192L74.4691 47.7608L74.3642 48.0166V48.2726L74.0504 48.5285L73.5272 48.7845H72.5856L72.1669 48.6136L71.853 48.3577L71.748 47.931V47.5899L71.853 47.1631L72.1669 46.9073L72.5856 46.7366" fill="white"/>
<path fill-rule="evenodd" clip-rule="evenodd" d="M82.0573 46.8457L82.8945 47.2827L83.2085 47.7192L83.3129 48.1564L83.2085 48.4838L83.1035 48.8114L82.8945 49.1389L82.3713 49.3576L81.429 49.4671L81.0106 49.2484L80.6962 48.8114L80.5918 48.3749V47.8288L80.8012 47.2827L81.1152 46.9553L81.534 46.7366" fill="white"/>
<path fill-rule="evenodd" clip-rule="evenodd" d="M78.7605 51.6002L79.4926 51.9416L79.8072 52.3683L79.9115 52.7094L79.8072 52.9652L79.7019 53.1361L79.3882 53.3919L78.7605 53.5628H77.9227L77.5044 53.3068L77.1904 52.9652V52.6243V52.1976L77.5044 51.856L77.8182 51.6002L78.2371 51.5149" fill="white"/>
<path fill-rule="evenodd" clip-rule="evenodd" d="M90.1153 45.3712L90.9526 45.6271L91.3714 45.9687L91.476 46.3098V46.5657L91.3714 46.8222L91.162 47.078L90.6387 47.334L89.6966 47.4191L89.1732 47.2489L88.8593 46.9924L88.7549 46.6513V46.2247L88.8593 45.798L89.1732 45.5419L89.5922 45.3712" fill="white"/>
<path fill-rule="evenodd" clip-rule="evenodd" d="M94.449 48.1871L95.1548 48.5285L95.4569 48.9552L95.558 49.2963L95.4569 49.5526L95.3564 49.723L94.953 49.9793L94.449 50.1497L93.5425 50.0644L93.139 49.8937L92.9374 49.5526L92.8369 49.1259L92.9374 48.7845L93.139 48.4429L93.5425 48.1871L93.9453 48.1018" fill="white"/>
<path fill-rule="evenodd" clip-rule="evenodd" d="M92.4703 53.0988L93.203 53.6449L93.517 54.1911V54.6281L93.4124 54.9557L93.203 55.1742L92.8891 55.5019L92.2609 55.6108L91.4236 55.5019L91.0049 55.1742L90.7959 54.737V54.1911L90.9003 53.7545L91.2142 53.3173L91.528 52.9898L91.947 52.8802" fill="white"/>
<path fill-rule="evenodd" clip-rule="evenodd" d="M88.3888 59.2426L89.1215 59.7887L89.4354 60.2251V60.6623L89.3309 60.9899L89.2259 61.2084L88.9121 61.5358L88.2844 61.7545L87.4471 61.6453L87.0283 61.3173L86.8187 60.8807L86.7144 60.4438L86.8187 59.8977L87.0283 59.4611L87.4471 59.1331L87.8654 59.0239" fill="white"/>
<path fill-rule="evenodd" clip-rule="evenodd" d="M77.6443 57.1946L78.3499 57.8497L78.5512 58.3958L78.4504 58.7232L78.3499 59.0515L78.1483 59.379L77.7448 59.5977L77.2408 59.7066L76.3341 59.379L76.0317 59.0515L75.8301 58.6143L75.9306 58.0682L76.0317 57.6316L76.3341 57.1946L76.7368 56.9761H77.2408" fill="white"/>
<path fill-rule="evenodd" clip-rule="evenodd" d="M65.6759 57.0856L66.4824 57.522L66.8857 57.9592L66.9862 58.2869L66.8857 58.6143L66.7846 58.942L66.5835 59.379L66.0794 59.5977L65.1719 59.7066L64.7692 59.4879L64.4662 59.0515L64.2651 58.6143L64.3657 58.0682L64.4662 57.6316L64.7692 57.1946L65.1719 56.9761" fill="white"/>
<path fill-rule="evenodd" clip-rule="evenodd" d="M8.32589 50.1497H7.48891L6.86128 50.0646L6.65173 49.8086L6.44238 49.6379V49.382V48.9553L6.7563 48.5285L7.48891 48.1869L8.01217 48.1018L8.43087 48.1869L8.84915 48.4429L9.0585 48.7844L9.16348 49.2111L9.0585 49.6379L8.84915 49.8939" fill="white"/>
<path fill-rule="evenodd" clip-rule="evenodd" d="M13.1926 54.1359L12.3554 54.2454L11.7272 54.0269L11.5184 53.6993L11.3091 53.4808L11.2041 53.1531V52.7161L11.5184 52.17L12.2504 51.6238L12.7737 51.5149L13.1926 51.6238L13.6113 51.9513L13.8202 52.3885L13.9252 52.9346V53.3712L13.7158 53.8082" fill="white"/>
<path fill-rule="evenodd" clip-rule="evenodd" d="M19.3152 56.8664L18.3731 56.976L17.8499 56.7575L17.5362 56.539L17.4316 56.2114L17.3267 55.8837V55.4467L17.6412 54.9006L18.3731 54.3544L18.8963 54.2455L19.3152 54.3544L19.7332 54.6827L19.9428 55.1191L20.0477 55.6652V56.1024L19.8382 56.539" fill="white"/>
<path fill-rule="evenodd" clip-rule="evenodd" d="M24.6528 59.7066H23.7113L23.188 59.5364L22.8734 59.3655L22.769 59.1096V58.8531V58.5122L23.083 58.0854L23.8157 57.7438L24.3391 57.6587L24.8624 57.7438L25.1762 57.9998L25.3855 58.4265L25.4901 58.768L25.3855 59.1947L25.1762 59.4508" fill="white"/>
<path fill-rule="evenodd" clip-rule="evenodd" d="M35.0897 58.8055L34.2833 59.024H33.6788L33.376 58.8055L33.1748 58.5874L33.0737 58.2593L32.9731 57.8228L33.1748 57.167L33.7793 56.512L34.2833 56.2935H34.6862L35.0897 56.6211L35.3919 56.9492L35.5937 57.4953L35.6942 57.9319L35.493 58.3689" fill="white"/>
<path fill-rule="evenodd" clip-rule="evenodd" d="M38.9381 52.1976H38.1008L37.5776 52.112L37.263 51.856L37.0542 51.6858V51.3443L37.1586 51.0028L37.4726 50.5761L38.2054 50.2353L38.7287 50.1497L39.1475 50.2353L39.4615 50.491L39.7753 50.9177V51.2592V51.6858L39.4615 52.0267" fill="white"/>
<path fill-rule="evenodd" clip-rule="evenodd" d="M44.6389 43.5185L44.5371 42.8357L44.6389 42.4456L45.0475 42.0558L45.6596 41.958L46.0676 42.1531L46.4761 42.7379L46.5779 43.1282L46.4761 43.4205L46.2718 43.713L45.8638 43.9081L45.5572 44.0059H45.1493L44.8433 43.8108L44.6389 43.5185Z" fill="white"/>
<path fill-rule="evenodd" clip-rule="evenodd" d="M47.9678 38.576V37.9243L48.1768 37.5523L48.5944 37.2725L48.9074 37.1797L49.2203 37.2725L49.6381 37.5523L49.9509 38.1105V38.4831L49.8468 38.7622L49.5334 39.0414L49.1162 39.1342L48.6985 39.2276L48.3856 39.1342L48.0725 38.9484L47.9678 38.576Z" fill="white"/>
<path fill-rule="evenodd" clip-rule="evenodd" d="M50.5301 45.5572L51.0519 45.8719L51.365 46.3956L51.4697 47.2332L51.2609 47.1281L50.8432 46.9192L50.5301 46.3956V45.5572Z" fill="white"/>
<path fill-rule="evenodd" clip-rule="evenodd" d="M50.5301 45.5572L51.0519 45.8719L51.365 46.3956L51.4697 47.2332L51.2609 47.1281L50.8432 46.9192L50.5301 46.3956V45.5572Z" stroke="white" stroke-width="0.2835"/>
<path fill-rule="evenodd" clip-rule="evenodd" d="M50.8955 46.2903H51.1043V46.395V46.5L50.8955 46.2903Z" fill="white"/>
<path fill-rule="evenodd" clip-rule="evenodd" d="M50.8955 46.2903H51.1043V46.395V46.5L50.8955 46.2903Z" stroke="white" stroke-width="0.2835"/>
<path fill-rule="evenodd" clip-rule="evenodd" d="M52.9368 46.975L53.145 47.0795L53.5628 48.5458L53.2499 48.3363L52.9368 48.1268L52.5191 47.7082V47.4987L52.6234 47.3936L52.7281 47.1845V46.975H52.9368Z" fill="white"/>
<path fill-rule="evenodd" clip-rule="evenodd" d="M52.9368 46.975L53.145 47.0795L53.5628 48.5458L53.2499 48.3363L52.9368 48.1268L52.5191 47.7082V47.4987L52.6234 47.3936L52.7281 47.1845V46.975H52.9368Z" stroke="white" stroke-width="0.2835"/>
<path fill-rule="evenodd" clip-rule="evenodd" d="M53.5106 49.0192L53.0929 48.6002L52.5712 47.8671L53.5106 49.0192Z" fill="white"/>
<path fill-rule="evenodd" clip-rule="evenodd" d="M53.5106 49.0192L53.0929 48.6002L52.5712 47.8671L53.5106 49.0192Z" stroke="white" stroke-width="0.2835"/>
<path fill-rule="evenodd" clip-rule="evenodd" d="M51.6261 48.6524H51.209L50.7914 48.5478L50.3737 48.2338L51.6261 48.6524Z" fill="white"/>
<path fill-rule="evenodd" clip-rule="evenodd" d="M51.6261 48.6524H51.209L50.7914 48.5478L50.3737 48.2338L51.6261 48.6524Z" stroke="white" stroke-width="0.2835"/>
<path fill-rule="evenodd" clip-rule="evenodd" d="M67.4045 22.6866L68.2419 22.2664L68.7652 22.1616L69.184 22.3717L69.3936 22.5812L69.6024 22.7916L69.7074 23.2118L69.6024 23.8418L69.079 24.5773L68.6607 24.7874L68.2419 24.8922L67.8235 24.682L67.4045 24.367L67.0907 23.9471L66.9863 23.5269L67.0907 23.1064" fill="white"/>
<path fill-rule="evenodd" clip-rule="evenodd" d="M80.037 25.6838L80.9444 25.5748L81.4483 25.7933L81.7504 26.121L81.8509 26.4484L81.952 26.7761L81.8509 27.2131L81.5488 27.7592L80.7426 28.1958L80.2388 28.3054L79.8354 28.0869L79.5331 27.7592L79.3315 27.3222L79.231 26.7761L79.3315 26.3395L79.6338 25.9023" fill="white"/>
<path fill-rule="evenodd" clip-rule="evenodd" d="M51.3129 44.5546L50.6869 42.7748L51.3129 44.5546Z" fill="white"/>
<path fill-rule="evenodd" clip-rule="evenodd" d="M51.3129 44.5546L50.6869 42.7748L51.3129 44.5546Z" stroke="white" stroke-width="0.2835"/>
<path fill-rule="evenodd" clip-rule="evenodd" d="M51.0522 44.6071V43.8744L50.9476 42.7223L51.0522 44.6071Z" fill="white"/>
<path fill-rule="evenodd" clip-rule="evenodd" d="M51.0522 44.6071V43.8744L50.9476 42.7223L51.0522 44.6071Z" stroke="white" stroke-width="0.2835"/>
<path fill-rule="evenodd" clip-rule="evenodd" d="M51.3676 44.4502L51.5764 43.8221L51.9935 42.8792L51.3676 44.4502Z" fill="white"/>
<path fill-rule="evenodd" clip-rule="evenodd" d="M51.3676 44.4502L51.5764 43.8221L51.9935 42.8792L51.3676 44.4502Z" stroke="white" stroke-width="0.2835"/>
<path fill-rule="evenodd" clip-rule="evenodd" d="M50.8955 43.0868V42.9818L51.0002 42.8771L51.1043 42.9818V43.0868H50.8955Z" fill="white"/>
<path fill-rule="evenodd" clip-rule="evenodd" d="M50.8955 43.0868V42.9818L51.0002 42.8771L51.1043 42.9818V43.0868H50.8955Z" stroke="white" stroke-width="0.2835"/>
<path fill-rule="evenodd" clip-rule="evenodd" d="M50.8955 43.0344L50.9996 42.8249L51.1043 42.9293V43.139L50.8955 43.0344Z" fill="white"/>
<path fill-rule="evenodd" clip-rule="evenodd" d="M50.8955 43.0344L50.9996 42.8249L51.1043 42.9293V43.139L50.8955 43.0344Z" stroke="white" stroke-width="0.2835"/>
<path fill-rule="evenodd" clip-rule="evenodd" d="M51.5762 43.6647L51.6809 43.5603L51.7849 43.7691H51.5762V43.6647Z" fill="white"/>
<path fill-rule="evenodd" clip-rule="evenodd" d="M51.5762 43.6647L51.6809 43.5603V43.5603L51.7849 43.7691H51.5762V43.6647Z" stroke="white" stroke-width="0.2835"/>
<path fill-rule="evenodd" clip-rule="evenodd" d="M51.5762 42.9296L51.6809 42.8246L51.7849 43.0343L51.6809 43.1393L51.5762 42.9296Z" fill="white"/>
<path fill-rule="evenodd" clip-rule="evenodd" d="M51.5762 42.9296L51.6809 42.8246L51.7849 43.0343L51.6809 43.1393L51.5762 42.9296Z" stroke="white" stroke-width="0.2835"/>
<path fill-rule="evenodd" clip-rule="evenodd" d="M51.5238 44.6071L51.8373 42.7223L51.5238 44.6071Z" fill="white"/>
<path fill-rule="evenodd" clip-rule="evenodd" d="M51.5238 44.6071L51.8373 42.7223L51.5238 44.6071Z" stroke="white" stroke-width="0.2835"/>
<path fill-rule="evenodd" clip-rule="evenodd" d="M49.0635 68.5012L48.8553 68.1867V67.9778H48.9594L49.0635 68.1867V68.5012Z" fill="white"/>
<path fill-rule="evenodd" clip-rule="evenodd" d="M49.0635 68.5012L48.8553 68.1867V67.9778H48.9594L49.0635 68.1867V68.5012Z" stroke="white" stroke-width="0.5669"/>
<path fill-rule="evenodd" clip-rule="evenodd" d="M46.7095 67.8186L46.8142 67.5047L47.0225 67.2952L47.1272 67.4002L47.0225 67.6091L46.7095 67.8186Z" fill="white"/>
<path fill-rule="evenodd" clip-rule="evenodd" d="M46.7095 67.8186L46.8142 67.5047L47.0225 67.2952L47.1272 67.4002L47.0225 67.6091L46.7095 67.8186Z" stroke="white" stroke-width="0.5669"/>
<path fill-rule="evenodd" clip-rule="evenodd" d="M50.5806 67.6614L50.2676 67.5569L50.0588 67.4525H50.4766L50.5806 67.6614Z" fill="white"/>
<path fill-rule="evenodd" clip-rule="evenodd" d="M50.5806 67.6614L50.2676 67.5569L50.0588 67.4525V67.4525H50.4766L50.5806 67.6614Z" stroke="white" stroke-width="0.5669"/>
<path fill-rule="evenodd" clip-rule="evenodd" d="M50.8435 67.7662L50.9476 67.4521L51.0522 67.3476H51.1563L51.0522 67.5565L50.8435 67.7662Z" fill="white"/>
<path fill-rule="evenodd" clip-rule="evenodd" d="M50.8435 67.7662L50.9476 67.4521L51.0522 67.3476H51.1563L51.0522 67.5565L50.8435 67.7662Z" stroke="white" stroke-width="0.5669"/>
<path fill-rule="evenodd" clip-rule="evenodd" d="M51.6805 68.5539L51.5764 68.2399V68.0302L51.6805 67.9252L51.7847 68.0302V68.2399L51.6805 68.5539Z" fill="white"/>
<path fill-rule="evenodd" clip-rule="evenodd" d="M51.6805 68.5539L51.5764 68.2399V68.0302L51.6805 67.9252L51.7847 68.0302V68.2399L51.6805 68.5539Z" stroke="white" stroke-width="0.5669"/>
<path fill-rule="evenodd" clip-rule="evenodd" d="M53.2498 67.7665L53.0408 67.6615L52.832 67.4518L52.9361 67.3473L53.0408 67.4518L53.2498 67.7665Z" fill="white"/>
<path fill-rule="evenodd" clip-rule="evenodd" d="M53.2498 67.7665L53.0408 67.6615L52.832 67.4518L52.9361 67.3473L53.0408 67.4518L53.2498 67.7665Z" stroke="white" stroke-width="0.5669"/>
<path fill-rule="evenodd" clip-rule="evenodd" d="M48.0698 63.4086L48.2788 63.5136H48.3835L48.4876 63.4086H48.0698Z" fill="white"/>
<path fill-rule="evenodd" clip-rule="evenodd" d="M48.0698 63.4086L48.2788 63.5136H48.3835L48.4876 63.4086H48.0698Z" stroke="white" stroke-width="0.2835"/>
<path fill-rule="evenodd" clip-rule="evenodd" d="M48.0178 62.7259L48.2266 62.831H48.3309L48.5396 62.7259H48.0178Z" fill="white"/>
<path fill-rule="evenodd" clip-rule="evenodd" d="M48.0178 62.7259L48.2266 62.831H48.3309L48.5396 62.7259H48.0178Z" stroke="white" stroke-width="0.2835"/>
<path fill-rule="evenodd" clip-rule="evenodd" d="M47.9134 60.6782H48.2263L48.4352 60.7828L48.644 60.6782H47.9134Z" fill="white"/>
<path fill-rule="evenodd" clip-rule="evenodd" d="M47.9134 60.6782H48.2263L48.4352 60.7828L48.644 60.6782H47.9134Z" stroke="white" stroke-width="0.2835"/>
<path fill-rule="evenodd" clip-rule="evenodd" d="M51.4196 63.4089L51.6284 63.5133H51.7327L51.9415 63.4089H51.4196Z" fill="white"/>
<path fill-rule="evenodd" clip-rule="evenodd" d="M51.4196 63.4089L51.6284 63.5133H51.7327L51.9415 63.4089H51.4196Z" stroke="white" stroke-width="0.2835"/>
<path fill-rule="evenodd" clip-rule="evenodd" d="M51.4196 62.7785H51.6284H51.9415H51.4196Z" stroke="white" stroke-width="0.2835"/>
<path fill-rule="evenodd" clip-rule="evenodd" d="M51.3153 60.678L51.6283 60.783H51.8371L52.0459 60.678H51.3153Z" fill="white"/>
<path fill-rule="evenodd" clip-rule="evenodd" d="M51.3153 60.678L51.6283 60.783H51.8371L52.0459 60.678H51.3153Z" stroke="white" stroke-width="0.2835"/>
<path fill-rule="evenodd" clip-rule="evenodd" d="M48.0701 65.4567L48.1744 65.5612L48.4873 65.4567H48.0701Z" fill="white"/>
<path fill-rule="evenodd" clip-rule="evenodd" d="M48.0701 65.4567L48.1744 65.5612L48.4873 65.4567H48.0701Z" stroke="white" stroke-width="0.2835"/>
<path fill-rule="evenodd" clip-rule="evenodd" d="M48.0701 65.4564L48.1744 65.5615H48.2791L48.4873 65.4564H48.0701Z" fill="white"/>
<path fill-rule="evenodd" clip-rule="evenodd" d="M48.0701 65.4564L48.1744 65.5615H48.2791L48.4873 65.4564H48.0701Z" stroke="white" stroke-width="0.5669"/>
<path fill-rule="evenodd" clip-rule="evenodd" d="M48.0178 66.1392L48.2268 66.2439H48.3309L48.5396 66.1392H48.0178Z" fill="white"/>
<path fill-rule="evenodd" clip-rule="evenodd" d="M48.0178 66.1392L48.2268 66.2439H48.3309L48.5396 66.1392H48.0178Z" stroke="white" stroke-width="0.5669"/>
<path fill-rule="evenodd" clip-rule="evenodd" d="M51.4717 64.7741L51.5764 64.8785H51.7847L51.8894 64.7741H51.4717Z" fill="white"/>
<path fill-rule="evenodd" clip-rule="evenodd" d="M51.4717 64.7741L51.5764 64.8785H51.7847L51.8894 64.7741H51.4717Z" stroke="white" stroke-width="0.2835"/>
<path fill-rule="evenodd" clip-rule="evenodd" d="M51.4717 65.4567L51.5764 65.5612L51.8894 65.4567H51.4717Z" fill="white"/>
<path fill-rule="evenodd" clip-rule="evenodd" d="M51.4717 65.4567L51.5764 65.5612L51.8894 65.4567H51.4717Z" stroke="white" stroke-width="0.5669"/>
<path fill-rule="evenodd" clip-rule="evenodd" d="M51.472 66.1393L51.5761 66.2438H51.7848L51.8891 66.1393H51.472Z" fill="white"/>
<path fill-rule="evenodd" clip-rule="evenodd" d="M51.472 66.1393L51.5761 66.2438H51.7848L51.8891 66.1393H51.472Z" stroke="white" stroke-width="0.5669"/>
<path fill-rule="evenodd" clip-rule="evenodd" d="M51.472 66.1393L51.5761 66.2438H51.6808L51.8891 66.1393H51.472Z" fill="white"/>
<path fill-rule="evenodd" clip-rule="evenodd" d="M51.472 66.1393L51.5761 66.2438H51.6808L51.8891 66.1393H51.472Z" stroke="white" stroke-width="0.5669"/>
<path fill-rule="evenodd" clip-rule="evenodd" d="M51.472 67.5046L51.5761 67.6092H51.7848L51.8891 67.5046H51.472Z" fill="white"/>
<path fill-rule="evenodd" clip-rule="evenodd" d="M51.472 67.5046L51.5761 67.6092H51.7848L51.8891 67.5046H51.472Z" stroke="white" stroke-width="0.5669"/>
<path fill-rule="evenodd" clip-rule="evenodd" d="M48.0179 66.1389L48.2267 66.2442H48.3307L48.5395 66.1389H48.0179Z" fill="white"/>
<path fill-rule="evenodd" clip-rule="evenodd" d="M48.0179 66.1389L48.2267 66.2442H48.3307L48.5395 66.1389H48.0179Z" stroke="white" stroke-width="0.5669"/>
<path fill-rule="evenodd" clip-rule="evenodd" d="M48.0698 67.5046L48.2786 67.6092L48.4876 67.5046H48.0698Z" fill="white"/>
<path fill-rule="evenodd" clip-rule="evenodd" d="M48.0698 67.5046L48.2786 67.6092L48.4876 67.5046H48.0698Z" stroke="white" stroke-width="0.5669"/>
<path fill-rule="evenodd" clip-rule="evenodd" d="M46.814 67.5571L46.918 67.4521L47.0227 67.6618L46.814 67.5571Z" fill="white"/>
<path fill-rule="evenodd" clip-rule="evenodd" d="M46.814 67.5571L46.918 67.4521L47.0227 67.6618L46.814 67.5571Z" stroke="white" stroke-width="0.5669"/>
<path fill-rule="evenodd" clip-rule="evenodd" d="M46.7618 67.4522H46.9708L47.0749 67.6617L46.7618 67.4522Z" fill="white"/>
<path fill-rule="evenodd" clip-rule="evenodd" d="M46.7618 67.4522H46.9708L47.0749 67.6617L46.7618 67.4522Z" stroke="white" stroke-width="0.5669"/>
<path fill-rule="evenodd" clip-rule="evenodd" d="M48.1223 66.0346H48.227L48.4351 66.3485L48.1223 66.0346Z" fill="white"/>
<path fill-rule="evenodd" clip-rule="evenodd" d="M48.1223 66.0346H48.227L48.4351 66.3485L48.1223 66.0346Z" stroke="white" stroke-width="0.5669"/>
<path fill-rule="evenodd" clip-rule="evenodd" d="M49.1159 67.4522H49.0112L48.8028 67.6617L49.1159 67.4522Z" fill="white"/>
<path fill-rule="evenodd" clip-rule="evenodd" d="M49.1159 67.4522H49.0112L48.8028 67.6617L49.1159 67.4522Z" stroke="white" stroke-width="0.5669"/>
<path fill-rule="evenodd" clip-rule="evenodd" d="M49.1158 66.0871H49.0117L48.8029 66.296L49.1158 66.0871Z" fill="white"/>
<path fill-rule="evenodd" clip-rule="evenodd" d="M49.1158 66.0871H49.0117L48.8029 66.296L49.1158 66.0871Z" stroke="white" stroke-width="0.5669"/>
<path fill-rule="evenodd" clip-rule="evenodd" d="M50.8434 67.4522H51.0523L51.1564 67.6617L50.8434 67.4522Z" fill="white"/>
<path fill-rule="evenodd" clip-rule="evenodd" d="M50.8434 67.4522H51.0523L51.1564 67.6617L50.8434 67.4522Z" stroke="white" stroke-width="0.5669"/>
<path fill-rule="evenodd" clip-rule="evenodd" d="M50.8432 66.0868H51.0519L51.1566 66.2963L50.8432 66.0868Z" fill="white"/>
<path fill-rule="evenodd" clip-rule="evenodd" d="M50.8432 66.0868H51.0519L51.1566 66.2963L50.8432 66.0868Z" stroke="white" stroke-width="0.5669"/>
<path fill-rule="evenodd" clip-rule="evenodd" d="M50.8434 66.087H51.0523L51.1564 66.2961L50.8434 66.087Z" fill="white"/>
<path fill-rule="evenodd" clip-rule="evenodd" d="M50.8434 66.087H51.0523L51.1564 66.2961L50.8434 66.087Z" stroke="white" stroke-width="0.5669"/>
<path fill-rule="evenodd" clip-rule="evenodd" d="M53.1453 66.0867H53.0406L52.9365 66.2964L53.1453 66.0867Z" fill="white"/>
<path fill-rule="evenodd" clip-rule="evenodd" d="M53.1453 66.0867H53.0406L52.9365 66.2964L53.1453 66.0867Z" stroke="white" stroke-width="0.5669"/>
<path fill-rule="evenodd" clip-rule="evenodd" d="M51.837 66.0343H51.7329L51.5241 66.3488L51.837 66.0343Z" fill="white"/>
<path fill-rule="evenodd" clip-rule="evenodd" d="M51.837 66.0343H51.7329L51.5241 66.3488L51.837 66.0343Z" stroke="white" stroke-width="0.5669"/>
<path fill-rule="evenodd" clip-rule="evenodd" d="M28.5375 10.0316L28.2109 9.19156V8.66636L28.4287 8.24653L28.646 8.14117L28.9729 7.93105L29.408 7.82629L30.0615 8.03641L30.7143 8.66636L30.932 9.08681V9.61201L30.7143 10.0316L30.3878 10.3467L29.8437 10.5568H29.408L28.9729 10.4521" fill="white"/>
<path fill-rule="evenodd" clip-rule="evenodd" d="M25.1359 18.2233L24.8096 17.3833V16.7534L25.0267 16.4377L25.2444 16.2283L25.5709 16.0179H26.0064L26.6595 16.1229L27.3127 16.7534L27.5307 17.173V17.6982L27.3127 18.1186L26.8772 18.4334L26.4421 18.7485H26.0064L25.5709 18.6437" fill="white"/>
<path fill-rule="evenodd" clip-rule="evenodd" d="M31.4026 43.2144L30.6698 42.6681L30.2515 42.2308V41.7943V41.5755L30.3559 41.248L30.6698 40.8107L31.2982 40.5928L32.1354 40.7017L32.6588 40.9203L32.8682 41.357L32.9725 41.7943L32.8682 42.3406L32.6588 42.777L32.3448 43.1054L31.926 43.3233" fill="white"/>
<path fill-rule="evenodd" clip-rule="evenodd" d="M26.397 35.5959L25.792 34.9408L25.4897 34.3947V34.0666L25.5904 33.7389L25.792 33.4115L26.1954 33.1928L26.7998 33.0839L27.6058 33.3024L28.0092 33.63L28.2108 34.0666V34.6125L28.0092 35.0497L27.7069 35.487L27.3037 35.7048L26.9009 35.8144" fill="white"/>
<path fill-rule="evenodd" clip-rule="evenodd" d="M13.9253 53.0625L16.6464 52.0152L13.9253 53.0625Z" fill="white"/>
<path fill-rule="evenodd" clip-rule="evenodd" d="M13.9253 53.0625L16.6464 52.0152L13.9253 53.0625Z" stroke="white" stroke-width="0.5669"/>
<path d="M47.1774 31.7185L45.299 12.6047" stroke="white" stroke-width="0.5669"/>
<path d="M60.1836 33.0838L62.9047 30.3533" stroke="white" stroke-width="0.5669"/>
<path d="M61.5439 39.2275L65.6256 35.1317" stroke="white" stroke-width="0.5669"/>
<path d="M60.1836 41.9581L72.4285 37.8623" stroke="white" stroke-width="0.5669"/>
<path d="M66.3062 43.0864L73.1089 42.8775" stroke="white" stroke-width="0.5669"/>
<path fill-rule="evenodd" clip-rule="evenodd" d="M56.5964 31.0359L55.8662 33.1493L54.9268 35.8143L56.5964 31.0359Z" fill="white"/>
<path fill-rule="evenodd" clip-rule="evenodd" d="M56.5964 31.0359L55.8662 33.1493L54.9268 35.8143L56.5964 31.0359Z" stroke="white" stroke-width="0.5669"/>
<path d="M49.8502 33.0839L50.7892 28.3054" stroke="white" stroke-width="0.5669"/>
<path d="M44.5374 38.5449L42.4966 33.0839" stroke="white" stroke-width="0.5669"/>
<path d="M44.8754 32.4011L43.5189 26.9401" stroke="white" stroke-width="0.5669"/>
<path fill-rule="evenodd" clip-rule="evenodd" d="M40.7979 23.527L42.155 27.6228L40.7979 23.527Z" fill="white"/>
<path fill-rule="evenodd" clip-rule="evenodd" d="M40.7979 23.527L42.155 27.6228L40.7979 23.527Z" stroke="white" stroke-width="0.5669"/>
<path fill-rule="evenodd" clip-rule="evenodd" d="M52.0979 20.7964L51.2632 24.8922L52.0979 20.7964Z" fill="white"/>
<path fill-rule="evenodd" clip-rule="evenodd" d="M52.0979 20.7964L51.2632 24.8922L52.0979 20.7964Z" stroke="white" stroke-width="0.5669"/>
<path d="M76.5103 46.0811L80.5919 46.7092" stroke="white" stroke-width="0.5669"/>
<path d="M69.7075 50.5974L77.1905 51.7498" stroke="white" stroke-width="0.5669"/>
<path d="M76.5103 56.2933L86.0341 59.0239" stroke="white" stroke-width="0.5669"/>
<path d="M35.6938 54.2455L25.4897 58.3413" stroke="white" stroke-width="0.5669"/>
<path d="M20.0474 54.9281L37.0542 50.8323" stroke="white" stroke-width="0.5669"/>
<path fill-rule="evenodd" clip-rule="evenodd" d="M23.4492 48.548L30.2519 48.3383L23.4492 48.548Z" fill="white"/>
<path fill-rule="evenodd" clip-rule="evenodd" d="M23.4492 48.548L30.2519 48.3383L23.4492 48.548Z" stroke="white" stroke-width="0.5669"/>
<path d="M37.7349 44.5027L33.6533 42.8267" stroke="white" stroke-width="0.5669"/>
<path d="M29.5718 41.9581L22.769 39.2275" stroke="white" stroke-width="0.5669"/>
<path d="M54.7412 44.6886L57.4623 39.9102" stroke="white" stroke-width="0.5669"/>
<path d="M56.7827 47.4191L63.5854 45.3712" stroke="white" stroke-width="0.5669"/>
<path d="M61.5439 48.3384L66.9861 48.5479" stroke="white" stroke-width="0.5669"/>
<path d="M56.1021 51.7011L64.2653 53.3765" stroke="white" stroke-width="0.5669"/>
<path fill-rule="evenodd" clip-rule="evenodd" d="M73.7889 57.6586L60.8638 54.9281L73.7889 57.6586Z" fill="white"/>
<path fill-rule="evenodd" clip-rule="evenodd" d="M73.7889 57.6586L60.8638 54.9281L73.7889 57.6586Z" stroke="white" stroke-width="0.5669"/>
<path d="M44.4562 41.9581L42.5778 39.2275" stroke="white" stroke-width="0.5669"/>
<path d="M45.2179 49.8589L33.6533 48.3926" stroke="white" stroke-width="0.5669"/>
<path d="M44.5377 54.2455L40.4561 56.976" stroke="white" stroke-width="0.5669"/>
<path d="M44.5371 47.4191L37.7344 40.5928" stroke="white" stroke-width="0.5669"/>
<path d="M50.3197 7.14368V24.8922" stroke="white" stroke-width="0.5669"/>
<path fill-rule="evenodd" clip-rule="evenodd" d="M56.3355 13.2875L55.1877 18.0659L56.3355 13.2875Z" fill="white"/>
<path fill-rule="evenodd" clip-rule="evenodd" d="M56.3355 13.2875L55.1877 18.0659L56.3355 13.2875Z" stroke="white" stroke-width="0.5669"/>
<path d="M53.4078 15.3353L54.0344 2.36523" stroke="white" stroke-width="0.5669"/>
<path d="M43.1772 15.3353L40.4561 3.04785" stroke="white" stroke-width="0.5669"/>
<path fill-rule="evenodd" clip-rule="evenodd" d="M29.5713 12.6047L32.2924 18.0658L29.5713 12.6047Z" fill="white"/>
<path fill-rule="evenodd" clip-rule="evenodd" d="M29.5713 12.6047L32.2924 18.0658L29.5713 12.6047Z" stroke="white" stroke-width="0.5669"/>
<path d="M39.7752 20.7964L37.7344 11.2395" stroke="white" stroke-width="0.5669"/>
<path d="M57.4629 22.1617L66.9867 5.09583" stroke="white" stroke-width="0.5669"/>
<path d="M60.1836 25.5749L75.1496 9.19165" stroke="white" stroke-width="0.5669"/>
<path fill-rule="evenodd" clip-rule="evenodd" d="M66.9866 23.527L64.9458 25.5749L66.9866 23.527Z" fill="white"/>
<path fill-rule="evenodd" clip-rule="evenodd" d="M66.9866 23.527L64.9458 25.5749L66.9866 23.527Z" stroke="white" stroke-width="0.5669"/>
<path d="M60.3692 20.7965L62.0388 18.0659" stroke="white" stroke-width="0.5669"/>
<path d="M72.4282 29.6707L84.6731 18.0659" stroke="white" stroke-width="0.5669"/>
<path d="M83.313 32.4012L92.8368 27.6228" stroke="white" stroke-width="0.5669"/>
<path d="M71.0679 36.4969L78.5508 32.4011" stroke="white" stroke-width="0.5669"/>
<path d="M67.6665 34.449L71.7482 31.7185" stroke="white" stroke-width="0.5669"/>
<path d="M66.9863 31.0359L71.7482 26.2574" stroke="white" stroke-width="0.5669"/>
<path d="M69.7075 40.5928L88.7551 38.5449" stroke="white" stroke-width="0.5669"/>
<path d="M86.0342 42.0355L97.5988 41.1979" stroke="white" stroke-width="0.5669"/>
<path d="M83.9932 48.0242L93.517 48.862" stroke="white" stroke-width="0.5669"/>
<path d="M89.4351 52.4887L101 53.9544" stroke="white" stroke-width="0.5669"/>
<path d="M81.272 52.9618L90.7958 54.8467" stroke="white" stroke-width="0.5669"/>
<path d="M39.7756 29.6707L35.0137 20.1138" stroke="white" stroke-width="0.5669"/>
<path d="M35.0138 30.3533L27.5308 18.0659" stroke="white" stroke-width="0.5669"/>
<path d="M32.2923 30.3533L20.0474 13.2875L21.2914 14.9084" stroke="white" stroke-width="0.5669"/>
<path d="M34.3334 37.1797L24.8096 27.6228" stroke="white" stroke-width="0.5669"/>
<path fill-rule="evenodd" clip-rule="evenodd" d="M11.2041 20.1138L16.7767 24.0291L20.7279 26.9401L11.2041 20.1138Z" fill="white"/>
<path fill-rule="evenodd" clip-rule="evenodd" d="M11.2041 20.1138L16.7767 24.0291L20.7279 26.9401L11.2041 20.1138Z" stroke="white" stroke-width="0.5669"/>
<path d="M22.7686 43.4531L18.687 42.5108" stroke="white" stroke-width="0.5669"/>
<path d="M20.0479 46.343L15.9663 46.4474" stroke="white" stroke-width="0.5669"/>
<path d="M27.5307 37.1796L17.3267 31.7185" stroke="white" stroke-width="0.5669"/>
<path d="M20.0477 35.8143L7.12256 31.0359" stroke="white" stroke-width="0.5669"/>
<path d="M18.0065 44.4522L3.04053 44.2425" stroke="white" stroke-width="0.5669"/>
<path d="M27.0805 96.053H26.436C26.2958 96.053 26.2125 96.0092 26.1862 95.9215C26.1423 95.7725 26.0985 95.4832 26.0547 95.0535H23.8453V102.445L24.0031 102.471C24.4064 102.55 24.6256 102.594 24.6606 102.602C24.7483 102.629 24.7921 102.708 24.7921 102.839V103.391H21.6096V102.839C21.6096 102.769 21.6271 102.712 21.6622 102.668C21.706 102.615 21.763 102.585 21.8331 102.576L22.5564 102.431V95.0404H20.3339C20.2813 95.5314 20.2418 95.8251 20.2155 95.9215C20.1892 96.0092 20.1016 96.053 19.9525 96.053H19.3212V93.9752H27.0805V96.053Z" fill="white"/>
<path d="M28.6705 95.2245C28.6004 95.1544 28.539 95.0667 28.4864 94.9615C28.4426 94.8738 28.4206 94.7686 28.4206 94.6459C28.4206 94.5143 28.4426 94.4048 28.4864 94.3171C28.5478 94.1943 28.6091 94.1023 28.6705 94.0409C28.7407 93.9708 28.8283 93.9094 28.9335 93.8568C29.0212 93.813 29.1264 93.791 29.2492 93.791C29.3719 93.791 29.4771 93.813 29.5648 93.8568C29.67 93.9094 29.7577 93.9708 29.8278 94.0409C29.8892 94.1023 29.9506 94.1943 30.0119 94.3171C30.0645 94.4223 30.0908 94.5319 30.0908 94.6459C30.0908 94.7511 30.0645 94.8563 30.0119 94.9615C29.9593 95.0667 29.898 95.1544 29.8278 95.2245C29.7577 95.2947 29.67 95.356 29.5648 95.4086C29.4771 95.4525 29.3719 95.4744 29.2492 95.4744C29.1264 95.4744 29.0212 95.4525 28.9335 95.4086C28.8283 95.356 28.7407 95.2947 28.6705 95.2245ZM30.5774 102.576C30.6388 102.585 30.687 102.615 30.7221 102.668C30.7572 102.712 30.7747 102.765 30.7747 102.826V103.391H27.7105V102.826C27.7105 102.765 27.728 102.712 27.7631 102.668C27.7982 102.615 27.8464 102.585 27.9077 102.576L28.6705 102.431V97.6838L27.9077 97.5391C27.8464 97.5304 27.7982 97.5041 27.7631 97.4602C27.728 97.4076 27.7105 97.3506 27.7105 97.2893V96.7369H29.8278V102.431L30.5774 102.576Z" fill="white"/>
<path d="M34.1422 96.6317C34.5981 96.6317 35.1768 96.7501 35.8782 96.9868V98.6964H35.3653C35.2426 98.6964 35.168 98.6351 35.1417 98.5123L35.0628 97.6443C34.6507 97.5479 34.3088 97.4997 34.037 97.4997H34.0239C33.6644 97.4997 33.3619 97.5961 33.1164 97.789C32.8797 97.9731 32.7614 98.1748 32.7614 98.394C32.7614 98.6219 32.814 98.7885 32.9192 98.8937C33.0945 99.0953 33.3488 99.2488 33.6819 99.354L34.0765 99.4723C34.1466 99.4899 34.2869 99.5337 34.4973 99.6039L35.1286 99.8406C35.3039 99.902 35.488 100.016 35.6809 100.183C36.0404 100.463 36.2201 100.849 36.2201 101.34C36.2201 101.98 36.0053 102.488 35.5757 102.865C35.111 103.277 34.5236 103.483 33.8135 103.483C33.0858 103.483 32.3668 103.365 31.6567 103.128V101.392H32.1301C32.2353 101.392 32.3011 101.445 32.3274 101.55L32.4063 102.392C32.757 102.567 33.2085 102.655 33.7609 102.655C34.1817 102.655 34.5236 102.545 34.7866 102.326C35.0146 102.125 35.1286 101.901 35.1286 101.655C35.1286 101.401 35.076 101.217 34.9708 101.103C34.848 100.963 34.7165 100.858 34.5762 100.787C34.3833 100.691 34.1992 100.621 34.0239 100.577C33.3751 100.367 32.9674 100.226 32.8008 100.156C32.5904 100.06 32.3931 99.937 32.209 99.788C31.8408 99.4811 31.6567 99.069 31.6567 98.5518C31.6567 98.0257 31.8671 97.5786 32.2879 97.2103C32.7263 96.8246 33.3444 96.6317 34.1422 96.6317Z" fill="white"/>
<path d="M42.5136 102.458C41.9612 103.142 41.1371 103.483 40.0412 103.483C39.1995 103.483 38.5069 103.181 37.9633 102.576C37.3934 101.936 37.1084 101.094 37.1084 100.051C37.1084 99.034 37.3759 98.2142 37.9107 97.5917C38.4718 96.9517 39.2521 96.6317 40.2516 96.6317C40.7513 96.6317 41.4089 96.7895 42.2243 97.1051V98.8411H41.6982C41.5755 98.8411 41.5009 98.7797 41.4746 98.657C41.4659 98.6307 41.4483 98.4641 41.422 98.1572L41.3826 97.7232C41.2861 97.6882 41.1897 97.6619 41.0933 97.6443C41.0056 97.6268 40.9442 97.6136 40.9091 97.6049C40.6724 97.5698 40.4269 97.5523 40.1727 97.5523C39.9447 97.5523 39.7036 97.6093 39.4494 97.7232C39.2126 97.8285 39.0066 97.9906 38.8313 98.2098C38.4981 98.6482 38.3315 99.2619 38.3315 100.051C38.3315 100.84 38.5069 101.463 38.8576 101.918C39.1995 102.357 39.6685 102.576 40.2647 102.576C40.8171 102.576 41.3037 102.392 41.7245 102.024C41.7947 101.954 41.8823 101.918 41.9875 101.918C42.084 101.918 42.1541 101.954 42.198 102.024L42.5136 102.458Z" fill="white"/>
<path d="M45.369 97.6312C46.0091 96.9649 46.7192 96.6317 47.4995 96.6317C48.2097 96.6317 48.7621 96.8596 49.1566 97.3156C49.5424 97.7715 49.7352 98.3852 49.7352 99.1567V102.431C50.1561 102.51 50.4059 102.563 50.4849 102.589C50.6164 102.615 50.6821 102.699 50.6821 102.839V103.391H48.5648V99.1567C48.5648 98.0959 48.0957 97.5654 47.1576 97.5654C46.5176 97.5654 45.9214 97.8767 45.369 98.4992V102.445L45.5269 102.471L46.1055 102.589C46.2458 102.615 46.3159 102.699 46.3159 102.839V103.391H43.2385V102.839C43.2385 102.699 43.3087 102.615 43.449 102.589L44.1854 102.445V94.6722C43.6857 94.5933 43.3964 94.5407 43.3175 94.5143C43.1772 94.488 43.107 94.4048 43.107 94.2645V93.7121H45.369V97.6312Z" fill="white"/>
<path d="M54.2987 102.576C54.439 102.602 54.5091 102.686 54.5091 102.826V103.391H51.4317V102.826C51.4317 102.686 51.5019 102.602 51.6422 102.576L52.3786 102.431V94.659C51.9753 94.5801 51.7298 94.5275 51.6422 94.5012C51.5019 94.4749 51.4317 94.396 51.4317 94.2645V93.699H53.5622V102.418C53.9655 102.497 54.211 102.55 54.2987 102.576Z" fill="white"/>
<path d="M58.2051 96.6317C58.5909 96.6317 58.9547 96.6974 59.2967 96.829C59.6474 96.9605 59.9367 97.149 60.1646 97.3945C60.4277 97.675 60.6206 97.9863 60.7433 98.3282C60.8836 98.7227 60.9537 99.1436 60.9537 99.5907C60.9537 99.7924 60.9362 99.9151 60.9011 99.9589C60.8573 100.02 60.7784 100.051 60.6644 100.051H56.2456C56.2456 100.472 56.2982 100.84 56.4034 101.156C56.4911 101.427 56.6401 101.682 56.8505 101.918C57.0434 102.138 57.2626 102.295 57.5081 102.392C57.7711 102.497 58.0517 102.55 58.3498 102.55C58.6654 102.55 58.9197 102.519 59.1126 102.458C59.2967 102.396 59.4808 102.322 59.6649 102.234C59.8578 102.138 59.9893 102.068 60.0594 102.024C60.1734 101.954 60.2611 101.918 60.3225 101.918C60.4189 101.918 60.4934 101.958 60.546 102.037L60.8748 102.471C60.7521 102.629 60.5767 102.778 60.3488 102.918C60.0857 103.085 59.8709 103.194 59.7044 103.247C59.4413 103.334 59.2046 103.396 58.9942 103.431C58.7312 103.475 58.4901 103.497 58.2709 103.497C57.815 103.497 57.3897 103.418 56.9952 103.26C56.6182 103.111 56.2807 102.879 55.9826 102.563C55.702 102.274 55.4828 101.901 55.325 101.445C55.1672 100.998 55.0883 100.489 55.0883 99.9195C55.0883 99.4636 55.1628 99.034 55.3119 98.6307C55.4609 98.2186 55.6669 97.8679 55.93 97.5786C56.2018 97.2805 56.5305 97.0481 56.9163 96.8816C57.3021 96.715 57.7317 96.6317 58.2051 96.6317ZM58.2314 97.4865C57.6615 97.4865 57.2188 97.6487 56.9032 97.9731C56.5788 98.315 56.3771 98.771 56.2982 99.3408H59.9148C59.9148 99.069 59.8753 98.8236 59.7964 98.6044C59.7 98.3326 59.5948 98.1353 59.4808 98.0126C59.3317 97.8548 59.152 97.7276 58.9416 97.6312C58.7399 97.5435 58.4988 97.4997 58.2183 97.4997L58.2314 97.4865Z" fill="white"/>
<path d="M63.81 98.0915C64.301 97.1008 64.9761 96.6054 65.8353 96.6054C66.1772 96.6054 66.4797 96.6843 66.7427 96.8421L66.5981 97.7232C66.5717 97.8372 66.5148 97.8942 66.4271 97.8942C66.3657 97.8942 66.2605 97.8723 66.1115 97.8285C65.9624 97.7846 65.7827 97.7627 65.5723 97.7627C64.8007 97.7627 64.2308 98.2274 63.8626 99.1567V102.445L64.6122 102.589C64.7437 102.615 64.8095 102.699 64.8095 102.839V103.391H61.7453V102.839C61.7453 102.699 61.811 102.615 61.9425 102.589L62.6921 102.445V97.6969C62.2713 97.618 62.0214 97.5654 61.9425 97.5391C61.811 97.5128 61.7453 97.4295 61.7453 97.2893V96.7369H63.3629C63.4856 96.7369 63.5689 96.7588 63.6127 96.8027C63.6566 96.8465 63.6916 96.9298 63.7179 97.0525L63.7968 98.0915H63.81Z" fill="white"/>
<path d="M70.1234 96.6317C70.5092 96.6317 70.873 96.6974 71.2149 96.829C71.5656 96.9605 71.855 97.149 72.0829 97.3945C72.3459 97.675 72.5388 97.9863 72.6616 98.3282C72.8019 98.7227 72.872 99.1436 72.872 99.5907C72.872 99.7924 72.8545 99.9151 72.8194 99.9589C72.7756 100.02 72.6966 100.051 72.5827 100.051H68.1639C68.1639 100.472 68.2165 100.84 68.3217 101.156C68.4094 101.427 68.5584 101.682 68.7688 101.918C68.9617 102.138 69.1809 102.295 69.4264 102.392C69.6894 102.497 69.97 102.55 70.2681 102.55C70.5837 102.55 70.8379 102.519 71.0308 102.458C71.2149 102.396 71.3991 102.322 71.5832 102.234C71.7761 102.138 71.9076 102.068 71.9777 102.024C72.0917 101.954 72.1794 101.918 72.2407 101.918C72.3372 101.918 72.4117 101.958 72.4643 102.037L72.7931 102.471C72.6703 102.629 72.495 102.778 72.267 102.918C72.004 103.085 71.7892 103.194 71.6226 103.247C71.3596 103.334 71.1229 103.396 70.9125 103.431C70.6494 103.475 70.4083 103.497 70.1892 103.497C69.7332 103.497 69.308 103.418 68.9135 103.26C68.5365 103.111 68.1989 102.879 67.9008 102.563C67.6203 102.274 67.4011 101.901 67.2433 101.445C67.0855 100.998 67.0066 100.489 67.0066 99.9195C67.0066 99.4636 67.0811 99.034 67.2301 98.6307C67.3792 98.2186 67.5852 97.8679 67.8482 97.5786C68.12 97.2805 68.4488 97.0481 68.8346 96.8816C69.2203 96.715 69.65 96.6317 70.1234 96.6317ZM70.1497 97.4865C69.5798 97.4865 69.1371 97.6487 68.8214 97.9731C68.497 98.315 68.2954 98.771 68.2165 99.3408H71.8331C71.8331 99.069 71.7936 98.8236 71.7147 98.6044C71.6182 98.3326 71.513 98.1353 71.3991 98.0126C71.25 97.8548 71.0703 97.7276 70.8599 97.6312C70.6582 97.5435 70.4171 97.4997 70.1365 97.4997L70.1497 97.4865Z" fill="white"/>
<path d="M74.5841 95.2245C74.514 95.1544 74.4526 95.0667 74.4 94.9615C74.3562 94.8738 74.3342 94.7686 74.3342 94.6459C74.3342 94.5143 74.3562 94.4048 74.4 94.3171C74.4614 94.1943 74.5227 94.1023 74.5841 94.0409C74.6543 93.9708 74.7419 93.9094 74.8471 93.8568C74.9348 93.813 75.04 93.791 75.1628 93.791C75.2855 93.791 75.3907 93.813 75.4784 93.8568C75.5836 93.9094 75.6713 93.9708 75.7414 94.0409C75.8028 94.1023 75.8642 94.1943 75.9255 94.3171C75.9781 94.4223 76.0044 94.5319 76.0044 94.6459C76.0044 94.7511 75.9781 94.8563 75.9255 94.9615C75.8729 95.0667 75.8116 95.1544 75.7414 95.2245C75.6713 95.2947 75.5836 95.356 75.4784 95.4086C75.3907 95.4525 75.2855 95.4744 75.1628 95.4744C75.04 95.4744 74.9348 95.4525 74.8471 95.4086C74.7419 95.356 74.6543 95.2947 74.5841 95.2245ZM76.491 102.576C76.5524 102.585 76.6006 102.615 76.6357 102.668C76.6708 102.712 76.6883 102.765 76.6883 102.826V103.391H73.6241V102.826C73.6241 102.765 73.6416 102.712 73.6767 102.668C73.7118 102.615 73.76 102.585 73.8213 102.576L74.5841 102.431V97.6838L73.8213 97.5391C73.76 97.5304 73.7118 97.5041 73.6767 97.4602C73.6416 97.4076 73.6241 97.3506 73.6241 97.2893V96.7369H75.7414V102.431L76.491 102.576Z" fill="white"/>
<path d="M14.6885 113.041H13.9389C13.7723 113.041 13.6671 112.957 13.6233 112.791C13.597 112.642 13.5751 112.462 13.5575 112.252H11.6243V118.998L12.0057 119.064C12.0495 119.073 12.0846 119.081 12.1109 119.09C12.146 119.099 12.1767 119.103 12.203 119.103L12.2819 119.116C12.5098 119.169 12.6238 119.305 12.6238 119.524V120.3H8.86256V119.524C8.86256 119.305 8.97215 119.169 9.19134 119.116L9.27024 119.103C9.29655 119.103 9.32285 119.099 9.34915 119.09C9.38422 119.081 9.42367 119.073 9.46751 119.064L9.8489 118.998V112.238H7.91567C7.89814 112.466 7.87622 112.65 7.84991 112.791C7.80608 112.957 7.70525 113.041 7.54744 113.041H6.78467V110.792H14.6885V113.041Z" fill="white"/>
<path d="M22.682 119.116C22.9012 119.169 23.0108 119.305 23.0108 119.524V120.3H20.3937V116.013C20.3937 115.592 20.2972 115.272 20.1044 115.053C19.9202 114.825 19.6353 114.711 19.2495 114.711C18.9777 114.711 18.7147 114.777 18.4605 114.908C18.1974 115.048 17.9651 115.219 17.7635 115.421V118.998L18.158 119.064C18.2018 119.073 18.2369 119.081 18.2632 119.09C18.2983 119.099 18.329 119.103 18.3553 119.103L18.4342 119.116C18.6533 119.169 18.7629 119.305 18.7629 119.524V120.3H15.1464V119.524C15.1464 119.305 15.256 119.169 15.4751 119.116L15.554 119.103C15.5804 119.103 15.6067 119.099 15.633 119.09C15.668 119.081 15.7075 119.073 15.7513 119.064L16.1459 118.998V111.831L15.7513 111.765C15.7075 111.756 15.668 111.747 15.633 111.739C15.6067 111.73 15.5804 111.726 15.554 111.726L15.4751 111.712C15.256 111.66 15.1464 111.524 15.1464 111.305V110.529H17.7635V114.29C18.0177 114.053 18.307 113.852 18.6314 113.685C18.9471 113.527 19.3197 113.448 19.7493 113.448C20.1 113.448 20.4244 113.51 20.7225 113.632C20.9767 113.738 21.2134 113.913 21.4326 114.158C21.6168 114.378 21.7614 114.649 21.8666 114.974C21.9718 115.333 22.0244 115.675 22.0244 116V118.998L22.4058 119.064L22.6031 119.103L22.682 119.116Z" fill="white"/>
<path d="M26.7952 113.448C27.2775 113.448 27.7334 113.532 28.163 113.698C28.5838 113.865 28.9345 114.093 29.2151 114.382C29.4956 114.671 29.7148 115.035 29.8726 115.474C30.0304 115.903 30.1093 116.381 30.1093 116.907C30.1093 117.433 30.0304 117.915 29.8726 118.354C29.706 118.801 29.4869 119.169 29.2151 119.458C28.9257 119.765 28.575 119.998 28.163 120.155C27.7597 120.313 27.3038 120.392 26.7952 120.392C26.2867 120.392 25.8264 120.313 25.4144 120.155C25.0023 119.998 24.6516 119.765 24.3623 119.458C24.0554 119.143 23.8275 118.775 23.6784 118.354C23.5206 117.915 23.4417 117.433 23.4417 116.907C23.4417 116.381 23.5206 115.903 23.6784 115.474C23.8275 115.07 24.0554 114.706 24.3623 114.382C24.6428 114.093 24.9935 113.865 25.4144 113.698C25.844 113.532 26.3043 113.448 26.7952 113.448ZM26.7952 119.143C27.3564 119.143 27.7684 118.954 28.0315 118.577C28.3032 118.183 28.4391 117.63 28.4391 116.92C28.4391 116.21 28.3032 115.658 28.0315 115.263C27.7684 114.877 27.3564 114.685 26.7952 114.685C26.2341 114.685 25.8133 114.877 25.5327 115.263C25.2522 115.649 25.1119 116.206 25.1119 116.933C25.1119 117.644 25.2522 118.192 25.5327 118.577C25.8045 118.954 26.2254 119.143 26.7952 119.143Z" fill="white"/>
<path d="M35.0422 113.435C35.3841 113.435 35.6603 113.51 35.8707 113.659L35.6603 114.882C35.6515 114.961 35.6252 115.013 35.5814 115.04C35.5288 115.075 35.4674 115.092 35.3973 115.092C35.3359 115.092 35.2482 115.079 35.1342 115.053C34.9764 115.018 34.823 115 34.6739 115C34.332 115 34.0427 115.092 33.806 115.276C33.5868 115.443 33.3851 115.719 33.201 116.105V118.998L33.8586 119.116C34.0777 119.169 34.1873 119.305 34.1873 119.524V120.3H30.5839V119.524C30.5839 119.305 30.6935 119.169 30.9127 119.116L31.5703 118.998V114.855L30.9127 114.737C30.6935 114.685 30.5839 114.549 30.5839 114.329V113.554H32.5303C32.6969 113.554 32.8109 113.584 32.8722 113.646C32.9336 113.707 32.9774 113.812 33.0037 113.961L33.1089 114.777C33.3457 114.347 33.6262 114.018 33.9506 113.79C34.2838 113.554 34.6476 113.435 35.0422 113.435Z" fill="white"/>
<path d="M41.02 117.459C41.1164 117.67 41.1647 117.902 41.1647 118.156C41.1647 118.472 41.1033 118.775 40.9806 119.064C40.8578 119.336 40.6868 119.572 40.4677 119.774C40.2309 119.984 39.9504 120.138 39.626 120.234C39.3103 120.348 38.9246 120.405 38.4687 120.405C38.0741 120.405 37.684 120.37 37.2982 120.3C36.9212 120.23 36.5968 120.142 36.325 120.037V118.13H37.0878C37.2456 118.13 37.3464 118.213 37.3903 118.38C37.4078 118.476 37.4385 118.735 37.4823 119.156C37.7191 119.226 38.0741 119.261 38.5476 119.261C38.7317 119.261 38.8983 119.239 39.0473 119.195C39.1964 119.143 39.3103 119.081 39.3893 119.011C39.4945 118.924 39.5602 118.84 39.5865 118.761C39.6216 118.665 39.6391 118.56 39.6391 118.446C39.6391 118.288 39.5953 118.161 39.5076 118.064C39.4287 117.977 39.3016 117.889 39.1262 117.801C38.9597 117.722 38.7843 117.657 38.6002 117.604L37.9821 117.407C37.8418 117.363 37.6401 117.28 37.3771 117.157C37.1667 117.061 36.987 116.942 36.8379 116.802C36.6801 116.662 36.5574 116.486 36.4697 116.276C36.3732 116.057 36.325 115.802 36.325 115.513C36.325 115.232 36.3776 114.969 36.4828 114.724C36.5881 114.478 36.7502 114.259 36.9694 114.066C37.1886 113.874 37.456 113.724 37.7717 113.619C38.1136 113.505 38.4774 113.448 38.8632 113.448C39.1964 113.448 39.4901 113.475 39.7443 113.527C39.9986 113.571 40.3624 113.663 40.8359 113.803H40.8227V115.71H40.0731C39.9153 115.71 39.8145 115.627 39.7706 115.46C39.7443 115.346 39.7136 115.101 39.6786 114.724C39.4769 114.663 39.2139 114.632 38.8895 114.632C38.5739 114.632 38.324 114.698 38.1399 114.829C37.9558 114.961 37.8637 115.14 37.8637 115.368C37.8637 115.5 37.9119 115.623 38.0084 115.737C38.0785 115.816 38.2013 115.899 38.3766 115.986C38.5783 116.083 38.7536 116.153 38.9027 116.197C38.9728 116.214 39.1745 116.276 39.5076 116.381C39.6742 116.434 39.8802 116.517 40.1257 116.631C40.3361 116.727 40.5115 116.841 40.6518 116.973C40.8096 117.104 40.9323 117.267 41.02 117.459Z" fill="white"/>
<path d="M44.3386 120.405C43.7512 120.405 43.2997 120.239 42.9841 119.906C42.6684 119.572 42.5106 119.116 42.5106 118.538V114.777H41.8267C41.7566 114.777 41.6821 114.746 41.6032 114.685C41.533 114.632 41.498 114.549 41.498 114.435V113.777L42.5895 113.606L42.9314 111.765C42.9402 111.686 42.9797 111.62 43.0498 111.568C43.1199 111.515 43.2032 111.489 43.2997 111.489H44.1414V113.619H45.9168V114.777H44.1414V118.433C44.1414 118.634 44.194 118.796 44.2992 118.919C44.4044 119.033 44.5447 119.09 44.72 119.09C44.8428 119.09 44.926 119.081 44.9699 119.064L45.1408 118.985L45.2855 118.906C45.3118 118.889 45.3469 118.88 45.3907 118.88C45.4609 118.88 45.5047 118.889 45.5222 118.906L45.6143 119.011L46.1009 119.8C45.8729 119.984 45.6011 120.134 45.2855 120.247C44.9874 120.353 44.6718 120.405 44.3386 120.405Z" fill="white"/>
<path d="M49.7046 113.448C50.1342 113.448 50.5244 113.514 50.8751 113.646C51.2082 113.768 51.5151 113.97 51.7957 114.251C52.0499 114.505 52.2516 114.825 52.4006 115.211C52.5497 115.605 52.6242 116.035 52.6242 116.499C52.6242 116.605 52.6154 116.71 52.5979 116.815C52.5804 116.911 52.5628 116.973 52.5453 116.999C52.5277 117.043 52.4883 117.078 52.4269 117.104C52.3918 117.122 52.3305 117.131 52.2428 117.131H48.0739C48.1265 117.823 48.315 118.332 48.6394 118.656C48.9638 118.981 49.3934 119.143 49.9282 119.143C50.2 119.143 50.4236 119.112 50.5989 119.051C50.7918 118.989 50.9584 118.919 51.0987 118.84C51.16 118.805 51.2214 118.775 51.2828 118.748C51.3529 118.713 51.4187 118.678 51.48 118.643C51.5765 118.582 51.6773 118.551 51.7825 118.551C51.8527 118.551 51.914 118.564 51.9666 118.59C52.0105 118.608 52.0499 118.643 52.085 118.696L52.5584 119.287C52.3568 119.515 52.1551 119.695 51.9535 119.827C51.7168 119.976 51.4844 120.09 51.2565 120.169C51.0373 120.239 50.7874 120.296 50.5068 120.34C50.2877 120.375 50.0422 120.392 49.7704 120.392C49.2882 120.392 48.8542 120.318 48.4684 120.169C48.0826 120.02 47.7319 119.787 47.4163 119.472C47.1182 119.173 46.8815 118.796 46.7062 118.341C46.5396 117.902 46.4563 117.381 46.4563 116.776C46.4563 116.337 46.5308 115.908 46.6798 115.487C46.8201 115.092 47.0349 114.737 47.3243 114.421C47.596 114.123 47.9336 113.887 48.3369 113.711C48.7402 113.536 49.1961 113.448 49.7046 113.448ZM49.7309 114.606C49.2663 114.606 48.898 114.742 48.6262 115.013C48.3632 115.276 48.1922 115.653 48.1133 116.144H51.1644C51.1644 115.96 51.1337 115.763 51.0723 115.553C51.0197 115.386 50.9321 115.224 50.8093 115.066C50.6953 114.926 50.5463 114.816 50.3622 114.737C50.1605 114.649 49.9501 114.606 49.7309 114.606Z" fill="white"/>
<path d="M60.6204 119.116C60.8396 119.169 60.9492 119.305 60.9492 119.524V120.3H58.3321V116.013C58.3321 115.609 58.2357 115.289 58.0428 115.053C57.8587 114.825 57.5737 114.711 57.188 114.711C56.9074 114.711 56.6444 114.777 56.3989 114.908C56.1359 115.048 55.9035 115.219 55.7019 115.421V118.998L56.0833 119.064L56.2805 119.103L56.3594 119.116C56.5786 119.169 56.6882 119.305 56.6882 119.524V120.3H53.0848V119.524C53.0848 119.305 53.1944 119.169 53.4136 119.116L53.4925 119.103L53.6897 119.064L54.0711 118.998V114.855L53.6897 114.79C53.6459 114.781 53.6065 114.772 53.5714 114.763C53.5451 114.755 53.5188 114.75 53.4925 114.75L53.4136 114.737C53.1944 114.685 53.0848 114.549 53.0848 114.329V113.554H55.0706C55.2723 113.554 55.4082 113.654 55.4783 113.856L55.5967 114.382C55.7194 114.242 55.8597 114.115 56.0175 114.001C56.1403 113.904 56.3024 113.808 56.5041 113.711C56.7321 113.606 56.9118 113.54 57.0433 113.514C57.2625 113.47 57.4729 113.448 57.6746 113.448C58.0603 113.448 58.3891 113.51 58.6609 113.632C58.9151 113.738 59.1519 113.913 59.3711 114.158C59.5552 114.378 59.6998 114.649 59.805 114.974C59.9015 115.263 59.9497 115.609 59.9497 116.013V118.998L60.3442 119.064C60.3881 119.073 60.4232 119.081 60.4495 119.09C60.4845 119.099 60.5152 119.103 60.5415 119.103L60.6204 119.116Z" fill="white"/>
<path d="M71.8935 112.593C72.0425 112.97 72.117 113.378 72.117 113.817C72.117 114.281 72.0381 114.706 71.8803 115.092C71.7225 115.478 71.4945 115.807 71.1964 116.079C70.9071 116.342 70.5214 116.556 70.0391 116.723C69.6008 116.872 69.0616 116.947 68.4215 116.947H67.2511V118.998L67.6456 119.064C67.6895 119.073 67.7245 119.081 67.7508 119.09C67.7859 119.099 67.8166 119.103 67.8429 119.103L67.9218 119.116C68.141 119.169 68.2506 119.305 68.2506 119.524V120.3H64.4893V119.524C64.4893 119.305 64.5989 119.169 64.8181 119.116L64.897 119.103L65.0943 119.064L65.4888 118.998V112.094L65.0943 112.028C65.0505 112.019 65.011 112.01 64.9759 112.002C64.9496 111.993 64.9233 111.989 64.897 111.989L64.8181 111.975C64.5989 111.923 64.4893 111.787 64.4893 111.568V110.792H68.4215C69.0528 110.792 69.6052 110.866 70.0786 111.015C70.517 111.156 70.8984 111.366 71.2227 111.647C71.5208 111.91 71.7444 112.225 71.8935 112.593ZM70.2233 114.553C70.3022 114.343 70.3416 114.097 70.3416 113.817C70.3416 113.571 70.3022 113.343 70.2233 113.133C70.1444 112.931 70.026 112.756 69.8682 112.607C69.7191 112.466 69.5219 112.357 69.2764 112.278C69.0397 112.199 68.7547 112.159 68.4215 112.159H67.2511V115.566H68.4215C68.7547 115.566 69.0397 115.526 69.2764 115.447C69.5219 115.36 69.7191 115.246 69.8682 115.105C70.026 114.965 70.1444 114.781 70.2233 114.553Z" fill="white"/>
<path d="M75.2106 112.541C75.1493 112.743 75.1186 112.949 75.1186 113.159V113.606H76.8809V114.763H75.1843V118.998L75.5789 119.064C75.6227 119.073 75.6622 119.081 75.6972 119.09C75.7411 119.099 75.7805 119.103 75.8156 119.103L75.9208 119.116C76.14 119.169 76.2496 119.305 76.2496 119.524V120.3H72.5541V119.524C72.5541 119.305 72.6637 119.169 72.8829 119.116C72.918 119.116 72.9486 119.112 72.9749 119.103L73.1722 119.064L73.5536 118.998V114.777L72.9749 114.685C72.8347 114.658 72.7295 114.614 72.6593 114.553C72.5892 114.492 72.5541 114.4 72.5541 114.277V113.619H73.5536V113.12C73.5536 112.716 73.6106 112.37 73.7246 112.081C73.8561 111.747 74.0227 111.484 74.2243 111.292C74.4523 111.081 74.7153 110.919 75.0134 110.805C75.3202 110.691 75.6709 110.634 76.0655 110.634C76.3811 110.634 76.6704 110.673 76.9335 110.752L76.9072 111.568C76.8984 111.699 76.837 111.778 76.723 111.804C76.5828 111.839 76.4556 111.857 76.3416 111.857C76.1312 111.857 75.9603 111.875 75.8288 111.91C75.6885 111.945 75.5613 112.019 75.4474 112.133C75.3422 112.238 75.2633 112.374 75.2106 112.541Z" fill="white"/>
<path d="M83.4455 119.103C83.6646 119.156 83.7742 119.292 83.7742 119.511V120.287H82.2224C82.0558 120.287 81.9331 120.265 81.8542 120.221C81.7665 120.186 81.7007 120.09 81.6569 119.932L81.5122 119.458C81.3369 119.625 81.1703 119.761 81.0125 119.866C80.8897 119.954 80.7188 120.05 80.4996 120.155C80.3418 120.226 80.1577 120.283 79.9472 120.326C79.7281 120.37 79.5089 120.392 79.2897 120.392C79.0004 120.392 78.7373 120.353 78.5006 120.274C78.2463 120.186 78.0403 120.072 77.8825 119.932C77.6984 119.765 77.5625 119.572 77.4748 119.353C77.3784 119.116 77.3301 118.853 77.3301 118.564C77.3301 118.301 77.3959 118.047 77.5274 117.801C77.6589 117.547 77.8825 117.324 78.1981 117.131C78.5313 116.92 78.9434 116.754 79.4343 116.631C79.9516 116.499 80.596 116.434 81.3676 116.434V116.039C81.3676 115.601 81.2711 115.263 81.0782 115.026C80.8941 114.807 80.618 114.698 80.2497 114.698C79.9692 114.698 79.75 114.728 79.5921 114.79C79.3905 114.869 79.2371 114.939 79.1319 115L78.7768 115.197C78.6803 115.259 78.562 115.289 78.4217 115.289C78.3077 115.289 78.2113 115.263 78.1324 115.211C78.0798 115.176 78.0184 115.105 77.9482 115L77.6458 114.487C78.4348 113.768 79.3686 113.409 80.447 113.409C80.8415 113.409 81.1966 113.475 81.5122 113.606C81.8191 113.738 82.0777 113.917 82.2881 114.145C82.5249 114.417 82.6915 114.693 82.7879 114.974C82.8931 115.289 82.9457 115.64 82.9457 116.026V119.011L83.3008 119.077L83.4455 119.103ZM81.3676 117.42C80.8766 117.42 80.482 117.451 80.184 117.512C79.8596 117.582 79.6009 117.661 79.408 117.749C79.2151 117.836 79.0793 117.942 79.0004 118.064C78.9214 118.178 78.882 118.314 78.882 118.472C78.882 118.77 78.9653 118.976 79.1319 119.09C79.3072 119.213 79.5264 119.274 79.7894 119.274C79.956 119.274 80.1094 119.261 80.2497 119.235C80.3988 119.209 80.5347 119.16 80.6574 119.09C80.8152 119.003 80.9336 118.928 81.0125 118.867C81.1352 118.77 81.2536 118.665 81.3676 118.551V117.42Z" fill="white"/>
<path d="M91.7239 119.116C91.9431 119.169 92.0527 119.305 92.0527 119.524V120.3H90.0669C89.8652 120.3 89.7293 120.199 89.6592 119.998L89.5408 119.458C89.3918 119.607 89.2471 119.739 89.1068 119.853C88.9753 119.958 88.8175 120.055 88.6334 120.142C88.458 120.221 88.2739 120.287 88.081 120.34C87.8619 120.383 87.6558 120.405 87.4629 120.405C87.1035 120.405 86.7747 120.344 86.4766 120.221C86.2223 120.116 85.9856 119.936 85.7664 119.682C85.5911 119.48 85.4464 119.213 85.3324 118.88C85.236 118.547 85.1878 118.2 85.1878 117.841V114.855L84.5171 114.737C84.2979 114.685 84.1883 114.549 84.1883 114.329V113.554H86.8054V117.841C86.8054 118.244 86.9018 118.564 87.0947 118.801C87.2788 119.02 87.5638 119.13 87.9495 119.13C88.2126 119.13 88.4756 119.068 88.7386 118.946C88.9753 118.832 89.2077 118.661 89.4356 118.433V114.855C89.1901 114.812 89.0279 114.785 88.949 114.777C88.8701 114.759 88.8131 114.746 88.7781 114.737C88.5589 114.685 88.4493 114.549 88.4493 114.329V113.554H91.0664V118.998L91.7239 119.116Z" fill="white"/>
</svg>
