<?xml version="1.0" standalone="no"?>
<!DOCTYPE svg PUBLIC "-//W3C//DTD SVG 20010904//EN"
 "http://www.w3.org/TR/2001/REC-SVG-20010904/DTD/svg10.dtd">
<svg version="1.0" xmlns="http://www.w3.org/2000/svg"
 width="700.000000pt" height="700.000000pt" viewBox="0 0 700.000000 700.000000"
 preserveAspectRatio="xMidYMid meet">
<metadata>
Created by potrace 1.14, written by Peter Selinger 2001-2017
</metadata>
<g transform="translate(0.000000,700.000000) scale(0.100000,-0.100000)"
fill="#000000" stroke="none">
<path d="M560 6985 c-284 -57 -506 -289 -550 -575 -8 -56 -10 -822 -8 -2955 3
-2730 4 -2883 21 -2939 72 -240 254 -422 492 -493 57 -17 203 -18 2940 -21
2133 -2 2899 0 2955 8 297 46 534 283 580 580 8 56 10 822 8 2955 -3 2730 -4
2883 -21 2939 -72 241 -252 421 -493 493 -56 17 -208 18 -2959 20 -2347 1
-2912 -1 -2965 -12z m2820 -1739 c0 -5 -428 -1823 -436 -1851 -3 -11 17 17 44
62 148 241 301 433 521 654 248 247 477 422 700 533 206 104 339 132 571 123
153 -6 224 -25 301 -81 115 -85 179 -280 165 -506 -21 -344 -266 -683 -626
-865 -87 -44 -213 -87 -287 -100 -24 -4 -43 -11 -43 -15 0 -15 88 -217 137
-314 107 -215 210 -354 279 -376 106 -35 269 53 447 240 l97 102 0 -117 0
-117 -53 -81 c-144 -221 -360 -432 -588 -575 -96 -61 -263 -138 -349 -161
-100 -28 -259 -51 -346 -51 -195 0 -338 68 -425 203 -79 122 -117 333 -163
912 -9 105 -18 215 -21 246 l-6 56 133 12 c383 34 580 89 734 203 187 140 174
325 -29 395 -79 27 -240 25 -337 -6 -150 -46 -268 -120 -403 -250 -192 -185
-367 -466 -459 -736 -19 -55 -86 -310 -148 -567 l-114 -468 -464 0 c-437 0
-463 1 -458 18 2 9 183 778 401 1707 218 930 401 1709 407 1733 l10 42 404 0
c222 0 404 -2 404 -4z"/>
</g>
</svg>
